<svg width="310" height="135" xmlns="http://www.w3.org/2000/svg" style="outline: 1px solid #ccc" >
			<style>
				.text { font: italic 10px sans-serif; fill: #756f6f; }
			</style>
			<path d="M 0 0 L 0 -3006L 1 -599L 2 -391L 3 -299L 4 -222L 4 -171L 5 -140L 6 -108L 7 -82L 8 -64L 9 -58L 10 -31L 11 -30L 12 -15L 12 -3L 13 9L 14 16L 15 18L 16 24L 17 31L 18 37L 19 41L 19 45L 20 46L 21 45L 22 46L 23 49L 24 53L 25 56L 26 57L 27 60L 27 62L 28 63L 29 61L 30 59L 31 57L 32 55L 33 53L 34 60L 35 63L 35 65L 36 67L 37 68L 38 70L 39 70L 40 71L 41 70L 42 60L 43 -4L 43 -1L 44 12L 45 33L 46 42L 47 50L 48 57L 49 63L 50 65L 50 68L 51 70L 52 71L 53 72L 54 72L 55 73L 56 73L 57 73L 58 74L 58 73L 59 74L 60 74L 61 75L 62 75L 63 75L 64 76L 65 76L 66 76L 66 76L 67 76L 68 70L 69 14L 70 -22L 71 14L 72 38L 73 52L 74 61L 74 64L 75 65L 76 67L 77 69L 78 71L 79 73L 80 74L 81 74L 81 75L 82 75L 83 76L 84 76L 85 76L 86 76L 87 77L 88 76L 89 75L 89 73L 90 73L 91 69L 92 69L 93 72L 94 74L 95 73L 96 73L 97 74L 97 75L 98 76L 99 77L 100 77L 101 77L 102 78L 103 78L 104 78L 105 78L 105 78L 106 78L 107 78L 108 78L 109 78L 110 78L 111 78L 112 77L 112 73L 113 41L 114 -105L 115 -127L 116 -16L 117 10L 118 34L 119 47L 120 52L 120 57L 121 60L 122 64L 123 67L 124 70L 125 72L 126 73L 127 74L 128 74L 128 75L 129 76L 130 76L 131 76L 132 76L 133 76L 134 76L 135 77L 136 77L 136 77L 137 76L 138 77L 139 75L 140 70L 141 65L 142 61L 143 57L 143 55L 144 59L 145 64L 146 68L 147 71L 148 74L 149 74L 150 76L 151 76L 151 77L 152 77L 153 77L 154 78L 155 78L 156 78L 157 78L 158 78L 159 78L 159 78L 160 78L 161 78L 162 79L 163 79L 164 79L 165 79L 166 79L 167 79L 167 77L 168 69L 169 26L 170 -52L 171 -58L 172 -37L 173 9L 174 33L 174 43L 175 52L 176 60L 177 63L 178 64L 179 69L 180 71L 181 72L 182 73L 182 74L 183 75L 184 75L 185 76L 186 76L 187 76L 188 77L 189 76L 190 77L 190 76L 191 75L 192 72L 193 69L 194 71L 195 70L 196 72L 197 73L 198 75L 198 76L 199 77L 200 77L 201 77L 202 77L 203 78L 204 78L 205 78L 205 78L 206 78L 207 77L 208 77L 209 68L 210 45L 211 16L 212 18L 213 34L 213 46L 214 53L 215 57L 216 65L 217 70L 218 72L 219 74L 220 74L 221 75L 221 76L 222 76L 223 76L 224 77L 225 77L 226 77L 227 77L 228 77L 229 78L 229 78L 230 78L 231 76L 232 76L 233 77L 234 77L 235 77L 236 77L 236 78L 237 78L 238 78L 239 78L 240 78L 241 79L 242 79L 243 79L 244 79L 244 79L 245 79L 246 78L 247 79L 248 73L 249 7L 250 -199L 251 -168L 252 -41L 252 -20L 253 15L 254 32L 255 45L 256 50L 257 55L 258 61L 259 65L 260 67L 260 69L 261 71L 262 72L 263 72L 264 73L 265 74L 266 74L 267 75L 267 75L 268 75L 269 75L 270 74L 271 75L 272 74L 273 74L 274 74L 275 75L 275 76L 276 77L 277 77L 278 76L 279 77L 280 76L 281 75L 282 70L 283 60L 283 56L 284 57L 285 62L 286 69L 287 72L 288 73L 289 74L 290 74L 291 74L 291 74L 292 74L 293 75L 294 75L 295 76L 296 74L 297 76L 298 77L 298 77L 299 75L 300 75L 301 75L 302 72L 303 74L 304 76L 305 77L 306 76L 306 76L 307 77L 308 78L 309 78" stroke-width="1px" stroke="#63e72c" fill="transparent"/>
			<text x="3%" y="62.168977085277156" class="text">0.011</text>
			<line x1="0" y1="78.96227832849576" x2="100%" y2="78.96227832849576" stroke="rgba(117, 111, 111, 0.5)" />
		</svg>