<svg width="160" height="50" xmlns="http://www.w3.org/2000/svg" style="outline: 1px solid #ccc" >
			<style>
				.text { font: italic 10px sans-serif; fill: #756f6f; }
			</style>
			<path d="M 0 0 L 0 -1989.9512174761978L 0.5333333333333333 -268.8732065701103L 1.0666666666666667 -203.6565786224813L 1.6 -138.52624788517133L 2.1333333333333333 -110.64007920535596L 2.6666666666666665 -89.78335152129921L 3.2 -74.44816994181862L 3.7333333333333334 -71.5549053451605L 4.266666666666667 -54.63476696109299L 4.8 -45.59282784196546L 5.333333333333333 -36.06178639584597L 5.866666666666666 -29.837250734389613L 6.4 -21.868643458705293L 6.933333333333334 -14.505755196141934L 7.466666666666667 -11.38123169395152L 8 -8.515727329030874L 8.533333333333333 -2.9464025912186145L 9.066666666666666 0.0890310194815811L 9.6 3.512889960710993L 10.133333333333333 6.912407428245835L 10.666666666666666 10.116327899847555L 11.2 11.618002925581926L 11.733333333333333 13.403974801225175L 12.266666666666666 14.813933247264899L 12.8 15.311083113988282L 13.333333333333334 14.085816258628917L 13.866666666666667 16.13456523753574L 14.4 19.467795357212136L 14.933333333333334 20.138056164259343L 15.466666666666667 22.260371823832397L 16 23.27325449234408L 16.53333333333333 23.8105169741931L 17.066666666666666 24.354496879731535L 17.6 24.284422185067463L 18.133333333333333 24.679091465034592L 18.666666666666668 26.630809575600423L 19.2 25.94375235077479L 19.733333333333334 25.244222808416804L 20.266666666666666 25.585883939720365L 20.8 27.344498651774828L 21.333333333333332 28.46959657168186L 21.866666666666667 29.150234870197288L 22.4 28.97004263470759L 22.933333333333334 28.149834452456894L 23.466666666666665 28.896938384031927L 24 28.184509929305683L 24.53333333333333 29.75685482816949L 25.066666666666666 29.549494456920197L 25.6 30.0000902582564L 26.133333333333333 30.863599655679458L 26.666666666666668 28.085346949087416L 27.2 27.221885891469693L 27.733333333333334 17.453322097026437L 28.266666666666666 14.427501886121952L 28.8 19.893640150016886L 29.333333333333332 21.59221163211062L 29.866666666666667 23.652146239316792L 30.4 26.578507017914628L 30.933333333333334 28.947147928559826L 31.466666666666665 30.014723789214194L 32 30.93515090304023L 32.53333333333333 31.67820596437173L 33.06666666666666 31.9021575247805L 33.6 31.873352585381177L 34.13333333333333 32.30177847895138L 34.666666666666664 32.037864962798295L 35.2 32.02259152526807L 35.733333333333334 32.60316930220094L 36.266666666666666 33.04551486421875L 36.8 33.26037438384979L 37.333333333333336 33.38225985178504L 37.86666666666667 30.13519181945886L 38.4 14.192210649979948L 38.93333333333333 13.67727503550551L 39.46666666666667 18.63798768087508L 40 11.736353284275431L 40.53333333333333 22.439807535938172L 41.06666666666666 26.244660362745993L 41.6 28.893141128234838L 42.13333333333333 30.702166202151496L 42.666666666666664 31.715376148453622L 43.2 32.12920897343173L 43.733333333333334 32.51879149947608L 44.266666666666666 33.02314031976603L 44.8 33.28288995389007L 45.333333333333336 33.5744813434837L 45.86666666666667 33.60954805572025L 46.4 33.65490357637334L 46.93333333333333 33.642878950686786L 47.46666666666667 33.74013121183221L 48 33.551110037438036L 48.53333333333333 32.34651707774067L 49.06666666666666 30.347302227696034L 49.6 28.05893955835153L 50.13333333333333 27.858080274822832L 50.666666666666664 29.676376933470948L 51.2 31.895079310288995L 51.733333333333334 32.92318906809186L 52.266666666666666 31.371506718389785L 52.8 33.383739476460526L 53.333333333333336 33.748631972073696L 53.86666666666667 34.172199370862586L 54.4 34.51143708038478L 54.93333333333333 34.556579760351795L 55.46666666666667 34.7540585873536L 56 34.87050420669183L 56.53333333333333 34.9332450658704L 57.06666666666666 35.040791589073265L 57.6 35.0116005700566L 58.13333333333333 35.046654545108034L 58.666666666666664 35.05873546061606L 59.199999999999996 34.99842961014615L 59.733333333333334 34.01413129950083L 60.266666666666666 -10.79574877279272L 60.8 -80.94248009761259L 61.333333333333336 -10.988490696530178L 61.86666666666667 4.903498187361379L 62.4 10.688636172473693L 62.93333333333333 19.387029516991078L 63.46666666666667 21.463330932238122L 64 25.00605355546896L 64.53333333333333 27.236358871680384L 65.06666666666666 28.61168032488014L 65.6 26.949584938071144L 66.13333333333333 29.973920443396523L 66.66666666666667 31.57485412224524L 67.2 32.11567061850815L 67.73333333333333 31.186691481268756L 68.26666666666667 30.45601042442913L 68.8 32.18464303825644L 69.33333333333333 33.19426247397811L 69.86666666666666 33.691871985745216L 70.4 33.96994938069051L 70.93333333333334 34.23492837277142L 71.46666666666667 34.39913294464538L 72 34.48262811841941L 72.53333333333333 34.661418191559626L 73.06666666666666 34.77717632882503L 73.6 34.5824003000684L 74.13333333333333 34.34312533938817L 74.66666666666667 34.171649586137434L 75.2 34.413902553969514L 75.73333333333333 33.01588345850554L 76.26666666666667 32.34024653151622L 76.8 30.546872728462052L 77.33333333333333 25.13005345770965L 77.86666666666666 15.56643846206007L 78.4 19.88705755119793L 78.93333333333334 26.45437280194987L 79.46666666666667 29.926485555513665L 80 32.23533642784719L 80.53333333333333 33.187321162909356L 81.06666666666666 33.79201129098361L 81.6 34.368357007812875L 82.13333333333333 34.65869336242242L 82.66666666666667 34.805971650223206L 83.2 34.96164889608093L 83.73333333333333 35.031918284184265L 84.26666666666667 35.122717738035924L 84.8 35.13466348984873L 85.33333333333333 35.19137655253638L 85.86666666666666 35.18675316437016L 86.4 35.10662171649395L 86.93333333333334 35.098397785088814L 87.46666666666667 34.739758743419124L 88 34.11843616439997L 88.53333333333333 31.503930536455186L 89.06666666666666 16.431158393662322L 89.6 25.539305129357675L 90.13333333333333 29.500300475922096L 90.66666666666667 29.056752343361506L 91.2 30.404016029869158L 91.73333333333333 32.24419865650441L 92.26666666666667 33.86242841142278L 92.8 34.132548825447394L 93.33333333333333 34.591018351172394L 93.86666666666666 34.759297235689495L 94.4 34.9209034465365L 94.93333333333334 35.08403529891471L 95.46666666666667 35.25494373854041L 96 35.27977498253134L 96.53333333333333 35.39245718494149L 97.06666666666666 35.412496619467916L 97.6 35.36834944899062L 98.13333333333333 35.34721320697086L 98.66666666666667 35.22035100232792L 99.2 35.14940900834009L 99.73333333333333 35.073437624801485L 100.26666666666667 35.09538705581317L 100.8 35.05365058570455L 101.33333333333333 35.033319645063315L 101.86666666666666 35.17519961092513L 102.4 35.14796750393354L 102.93333333333334 35.36783392977055L 103.46666666666667 35.53131034761914L 104 35.57437209655387L 104.53333333333333 35.55541569178178L 105.06666666666666 35.631017389314266L 105.6 35.19174300651853L 106.13333333333333 30.322646223925698L 106.66666666666667 -2.8656788659006907L 107.2 -19.610544931828827L 107.73333333333333 -15.086883041536495L 108.26666666666667 19.877460521396323L 108.8 24.369903049907858L 109.33333333333333 26.513806188093056L 109.86666666666666 26.52370776846597L 110.39999999999999 29.99227594948145L 110.93333333333334 31.895541978704713L 111.46666666666667 33.231869025401664L 112 33.08915351159527L 112.53333333333333 33.703939982595855L 113.06666666666666 34.270969851003954L 113.6 34.641636268799495L 114.13333333333333 34.758719178955154L 114.66666666666667 34.966408198297316L 115.2 35.16844222242884L 115.73333333333333 35.27029788153855L 116.26666666666667 35.28613093773903L 116.8 35.332218903418216L 117.33333333333333 35.397470525465586L 117.86666666666666 35.46964833175808L 118.39999999999999 35.48251447005332L 118.93333333333334 35.5080076256054L 119.46666666666667 35.52251205259787L 120 35.57069575180897L 120.53333333333333 35.578658487767534L 121.06666666666666 35.523571453980644L 121.6 35.55483967311321L 122.13333333333333 35.12248103041901L 122.66666666666667 32.70741403415036L 123.2 28.03502888438325L 123.73333333333333 16.915079966855387L 124.26666666666667 4.461836361720039L 124.8 -0.8462558346595941L 125.33333333333333 16.247526760084305L 125.86666666666666 25.21317051786702L 126.39999999999999 29.80274834893637L 126.93333333333334 31.85810830861278L 127.46666666666667 33.27789711056454L 128 33.96118297616324L 128.53333333333333 34.459446452733076L 129.06666666666666 34.78385884758979L 129.6 34.793596968111615L 130.13333333333333 34.78722597339111L 130.66666666666666 34.891415235031474L 131.2 35.02117976620474L 131.73333333333332 34.93102350023892L 132.26666666666665 34.829277588120505L 132.8 35.10963812667983L 133.33333333333334 35.271857106302555L 133.86666666666667 35.409723926075664L 134.4 35.50093795018563L 134.93333333333334 35.43967217882772L 135.46666666666667 35.47403287041753L 136 35.5680726447262L 136.53333333333333 35.559793033149745L 137.06666666666666 35.2063129963755L 137.6 35.273681938680014L 138.13333333333333 35.18957306439375L 138.66666666666666 34.81912119483316L 139.2 34.82881481102011L 139.73333333333332 35.04452054436495L 140.26666666666665 34.32270456576966L 140.8 32.171585942008655L 141.33333333333334 22.734235387942885L 141.86666666666667 0.6500468886544368L 142.4 4.922422594453806L 142.93333333333334 18.596963289350352L 143.46666666666667 21.294579421222448L 144 25.5166425145057L 144.53333333333333 30.582425911986643L 145.06666666666666 32.00882132067055L 145.6 33.238171928462165L 146.13333333333333 34.1281599762097L 146.66666666666666 34.54256803951849L 147.2 34.85419074458565L 147.73333333333332 35.058893113313516L 148.26666666666665 35.2034552258054L 148.8 35.3154785416945L 149.33333333333334 35.40128543290755L 149.86666666666667 35.45969726285795L 150.4 35.52929328228599L 150.93333333333334 35.57668233689738L 151.46666666666667 35.61415551108574L 152 35.63648105387672L 152.53333333333333 35.666782670888L 153.06666666666666 35.65953863785648L 153.6 35.613250063635874L 154.13333333333333 35.41747651371182L 154.66666666666666 35.22085934283588L 155.2 34.82976382726499L 155.73333333333332 29.395607391497297L 156.26666666666665 28.664314165722907L 156.8 27.193750634499708L 157.33333333333334 29.212948460844878L 157.86666666666667 31.26555770808699L 158.4 32.17180923760955L 158.93333333333334 33.065345983311914L 159.46666666666667 33.812405992105084" stroke-width="2px" stroke="#63e72c" fill="transparent"/>
			<text x="80%" y="27.04992479368407" class="text">0.014</text>
		</svg>