<svg width="280" height="120" xmlns="http://www.w3.org/2000/svg" style="outline: 1px solid #ccc" >
			<style>
				.text { font: italic 10px sans-serif; fill: #756f6f; }
			</style>
			<path d="M 0 0 L 0 -1081L 1 -182L 3 -107L 4 -78L 6 -50L 7 -26L 8 -15L 10 -2L 11 5L 13 4L 14 12L 15 11L 17 20L 18 24L 20 28L 21 29L 22 32L 24 33L 25 33L 27 37L 28 39L 29 40L 31 41L 32 42L 34 46L 35 47L 36 47L 38 46L 39 48L 41 48L 42 47L 43 51L 45 54L 46 54L 48 56L 49 57L 50 57L 52 56L 53 58L 55 59L 56 56L 57 46L 59 31L 60 41L 62 46L 63 51L 64 53L 66 53L 67 54L 69 58L 70 59L 71 60L 73 58L 74 54L 76 54L 77 56L 78 60L 80 62L 81 62L 83 63L 84 47L 85 47L 87 51L 88 56L 90 59L 91 61L 92 62L 94 63L 95 62L 97 64L 98 65L 99 62L 101 55L 102 53L 104 57L 105 61L 106 63L 108 65L 109 65L 111 65L 112 65L 113 63L 115 61L 116 61L 118 61L 119 62L 120 62L 122 58L 123 46L 125 36L 126 20L 127 40L 129 46L 130 49L 132 52L 133 55L 134 59L 136 61L 137 63L 139 64L 140 64L 141 65L 143 65L 144 64L 146 62L 147 63L 148 64L 150 66L 151 66L 153 67L 154 66L 155 67L 157 62L 158 40L 160 15L 161 26L 162 29L 164 44L 165 50L 167 52L 168 56L 169 59L 171 61L 172 63L 174 63L 175 64L 176 65L 178 66L 179 66L 181 66L 182 65L 183 66L 185 65L 186 66L 188 59L 189 51L 190 30L 192 39L 193 52L 195 58L 196 60L 197 62L 199 63L 200 65L 202 66L 203 67L 204 67L 206 68L 207 68L 209 68L 210 68L 211 66L 213 62L 214 38L 216 -61L 217 -30L 218 15L 220 36L 221 43L 223 49L 224 53L 225 54L 227 56L 228 60L 230 55L 231 55L 232 59L 234 62L 235 63L 237 63L 238 64L 239 64L 241 64L 242 58L 244 49L 245 49L 246 58L 248 62L 249 61L 251 63L 252 64L 253 66L 255 67L 256 67L 258 68L 259 68L 260 68L 262 67L 263 63L 265 36L 266 -282L 267 -103L 269 -7L 270 18L 272 37L 273 43L 274 47L 276 51L 277 53L 279 55" stroke-width="1px" stroke="#63e72c" fill="transparent"/>
			<text x="3%" y="44.06590065708578" class="text">0.014</text>
			<line x1="0" y1="68.44192725969057" x2="100%" y2="68.44192725969057" stroke="rgba(117, 111, 111, 0.5)" />
		</svg>
