<svg width="310" height="135" xmlns="http://www.w3.org/2000/svg" style="outline: 1px solid #ccc" >
			<style>
				.text { font: italic 10px sans-serif; fill: #756f6f; }
			</style>
			<path d="M 0 0 L 0 58L 0 62L 0 61L 1 62L 1 62L 1 62L 1 63L 1 63L 2 62L 2 62L 2 63L 2 63L 2 63L 3 65L 3 70L 3 90L 3 97L 4 104L 4 107L 4 108L 4 110L 4 112L 5 113L 5 115L 5 116L 5 116L 5 117L 6 118L 6 118L 6 118L 6 119L 6 119L 7 120L 7 120L 7 121L 7 121L 7 122L 8 122L 8 122L 8 122L 8 122L 8 123L 9 123L 9 123L 9 123L 9 124L 10 124L 10 124L 10 125L 10 125L 10 125L 11 124L 11 125L 11 123L 11 123L 11 124L 12 124L 12 125L 12 125L 12 125L 12 126L 13 126L 13 126L 13 126L 13 126L 13 126L 14 126L 14 126L 14 127L 14 126L 14 126L 15 127L 15 127L 15 127L 15 127L 16 127L 16 127L 16 128L 16 128L 16 128L 17 128L 17 126L 17 126L 17 127L 17 128L 18 128L 18 128L 18 128L 18 128L 18 128L 19 128L 19 128L 19 128L 19 128L 19 128L 20 128L 20 128L 20 128L 20 128L 20 128L 21 128L 21 127L 21 128L 21 128L 21 129L 22 129L 22 129L 22 129L 22 129L 23 129L 23 129L 23 129L 23 127L 23 127L 24 127L 24 128L 24 128L 24 129L 24 129L 25 129L 25 129L 25 129L 25 128L 25 128L 26 128L 26 128L 26 127L 26 127L 26 128L 27 128L 27 129L 27 129L 27 129L 27 129L 28 125L 28 126L 28 127L 28 128L 29 128L 29 128L 29 129L 29 129L 29 129L 30 128L 30 128L 30 129L 30 129L 30 128L 31 128L 31 128L 31 129L 31 128L 31 129L 32 129L 32 129L 32 129L 32 129L 32 129L 33 129L 33 129L 33 129L 33 129L 33 127L 34 125L 34 127L 34 128L 34 128L 35 128L 35 129L 35 128L 35 126L 35 127L 36 128L 36 128L 36 128L 36 129L 36 129L 37 129L 37 129L 37 129L 37 129L 37 129L 38 128L 38 128L 38 129L 38 128L 38 128L 39 128L 39 129L 39 128L 39 129L 39 129L 40 130L 40 130L 40 130L 40 130L 41 130L 41 130L 41 129L 41 129L 41 129L 42 129L 42 129L 42 128L 42 128L 42 129L 43 129L 43 128L 43 128L 43 129L 43 129L 44 129L 44 129L 44 129L 44 129L 44 129L 45 128L 45 127L 45 127L 45 126L 45 127L 46 126L 46 124L 46 126L 46 128L 47 128L 47 127L 47 128L 47 128L 47 129L 48 127L 48 129L 48 129L 48 129L 48 129L 49 129L 49 129L 49 130L 49 130L 49 129L 50 128L 50 129L 50 129L 50 129L 50 129L 51 129L 51 128L 51 123L 51 123L 51 121L 52 125L 52 127L 52 102L 52 128L 52 128L 53 128L 53 128L 53 129L 53 129L 54 129L 54 129L 54 129L 54 129L 54 129L 55 130L 55 129L 55 129L 55 129L 55 127L 56 121L 56 107L 56 124L 56 125L 56 126L 57 127L 57 128L 57 128L 57 128L 57 128L 58 128L 58 128L 58 128L 58 128L 58 128L 59 128L 59 126L 59 127L 59 128L 60 128L 60 129L 60 129L 60 129L 60 129L 61 128L 61 129L 61 129L 61 129L 61 129L 62 129L 62 123L 62 101L 62 117L 62 125L 63 126L 63 127L 63 127L 63 128L 63 128L 64 128L 64 128L 64 128L 64 128L 64 129L 65 129L 65 129L 65 129L 65 128L 66 126L 66 129L 66 129L 66 129L 66 129L 67 128L 67 121L 67 110L 67 113L 67 121L 68 125L 68 124L 68 125L 68 127L 68 127L 69 127L 69 128L 69 128L 69 128L 69 128L 70 128L 70 128L 70 128L 70 128L 70 128L 71 127L 71 128L 71 129L 71 128L 72 129L 72 129L 72 129L 72 129L 72 129L 73 129L 73 129L 73 129L 73 129L 73 128L 74 127L 74 128L 74 129L 74 123L 74 111L 75 124L 75 126L 75 125L 75 125L 75 128L 76 128L 76 128L 76 128L 76 129L 76 129L 77 129L 77 129L 77 129L 77 129L 78 129L 78 125L 78 127L 78 128L 78 129L 79 129L 79 129L 79 127L 79 127L 79 124L 80 125L 80 127L 80 127L 80 128L 80 127L 81 128L 81 128L 81 129L 81 128L 81 129L 82 129L 82 129L 82 129L 82 129L 82 129L 83 129L 83 129L 83 129L 83 129L 83 129L 84 129L 84 130L 84 129L 84 129L 85 129L 85 127L 85 128L 85 128L 85 129L 86 127L 86 126L 86 117L 86 55L 86 -96L 87 -215L 87 109L 87 122L 87 120L 87 124L 88 58L 88 128L 88 129L 88 129L 88 130L 89 130L 89 130L 89 129L 89 129L 89 129L 90 130L 90 130L 90 130L 90 127L 91 129L 91 118L 91 128L 91 129L 91 129L 92 129L 92 130L 92 130L 92 130L 92 130L 93 130L 93 129L 93 129L 93 129L 93 129L 94 128L 94 128L 94 126L 94 128L 94 129L 95 130L 95 130L 95 130L 95 130L 95 130L 96 130L 96 130L 96 129L 96 129L 97 130L 97 130L 97 129L 97 129L 97 130L 98 130L 98 130L 98 130L 98 130L 98 130L 99 128L 99 121L 99 120L 99 121L 99 125L 100 127L 100 128L 100 128L 100 128L 100 129L 101 128L 101 128L 101 129L 101 129L 101 130L 102 129L 102 129L 102 129L 102 130L 103 129L 103 128L 103 129L 103 129L 103 129L 104 129L 104 129L 104 130L 104 129L 104 128L 105 129L 105 129L 105 130L 105 130L 105 130L 106 130L 106 130L 106 129L 106 130L 106 130L 107 130L 107 130L 107 130L 107 130L 107 130L 108 130L 108 130L 108 130L 108 130L 109 130L 109 130L 109 130L 109 130L 109 130L 110 130L 110 130L 110 130L 110 130L 110 130L 111 130L 111 130L 111 130L 111 130L 111 130L 112 130L 112 130L 112 130L 112 130L 112 130L 113 130L 113 130L 113 130L 113 130L 113 130L 114 130L 114 130L 114 130L 114 130L 114 131L 115 130L 115 130L 115 130L 115 130L 116 128L 116 127L 116 129L 116 129L 116 124L 117 128L 117 129L 117 129L 117 130L 117 130L 118 127L 118 129L 118 129L 118 129L 118 130L 119 130L 119 130L 119 130L 119 130L 119 130L 120 130L 120 130L 120 130L 120 130L 120 130L 121 130L 121 130L 121 130L 121 130L 122 130L 122 130L 122 130L 122 130L 122 130L 123 130L 123 130L 123 130L 123 130L 123 131L 124 131L 124 131L 124 130L 124 130L 124 130L 125 130L 125 130L 125 130L 125 130L 125 130L 126 130L 126 130L 126 130L 126 131L 126 131L 127 131L 127 131L 127 131L 127 131L 128 130L 128 130L 128 130L 128 130L 128 130L 129 130L 129 130L 129 131L 129 131L 129 131L 130 130L 130 130L 130 130L 130 130L 130 131L 131 131L 131 130L 131 130L 131 130L 131 130L 132 131L 132 131L 132 131L 132 131L 132 131L 133 131L 133 131L 133 131L 133 131L 134 130L 134 130L 134 130L 134 131L 134 131L 135 131L 135 131L 135 131L 135 131L 135 130L 136 130L 136 130L 136 131L 136 125L 136 72L 137 107L 137 124L 137 125L 137 127L 137 128L 138 129L 138 129L 138 129L 138 130L 138 130L 139 130L 139 130L 139 130L 139 129L 140 130L 140 130L 140 130L 140 130L 140 130L 141 130L 141 130L 141 130L 141 130L 141 130L 142 130L 142 130L 142 130L 142 130L 142 130L 143 130L 143 130L 143 130L 143 130L 143 130L 144 130L 144 131L 144 130L 144 130L 144 130L 145 129L 145 130L 145 130L 145 130L 145 131L 146 130L 146 131L 146 130L 146 131L 147 130L 147 131L 147 130L 147 130L 147 129L 148 129L 148 126L 148 130L 148 130L 148 130L 149 116L 149 120L 149 129L 149 127L 149 130L 150 130L 150 131L 150 130L 150 128L 150 130L 151 130L 151 130L 151 130L 151 130L 151 130L 152 130L 152 130L 152 130L 152 130L 153 130L 153 130L 153 130L 153 131L 153 131L 154 131L 154 131L 154 131L 154 131L 154 131L 155 130L 155 130L 155 130L 155 124L 155 130L 156 129L 156 130L 156 130L 156 130L 156 130L 157 130L 157 131L 157 131L 157 131L 157 130L 158 130L 158 130L 158 131L 158 131L 159 131L 159 131L 159 131L 159 131L 159 130L 160 130L 160 130L 160 131L 160 124L 160 130L 161 130L 161 130L 161 129L 161 129L 161 106L 162 130L 162 124L 162 131L 162 -915L 162 128L 163 130L 163 131L 163 131L 163 131L 163 131L 164 130L 164 131L 164 131L 164 131L 165 131L 165 131L 165 131L 165 128L 165 128L 166 128L 166 130L 166 130L 166 131L 166 131L 167 131L 167 130L 167 130L 167 129L 167 130L 168 130L 168 131L 168 131L 168 131L 168 130L 169 130L 169 131L 169 131L 169 131L 169 131L 170 131L 170 131L 170 131L 170 131L 171 131L 171 130L 171 131L 171 131L 171 130L 172 130L 172 131L 172 131L 172 131L 172 131L 173 131L 173 131L 173 130L 173 130L 173 131L 174 131L 174 131L 174 131L 174 131L 174 130L 175 131L 175 130L 175 130L 175 130L 175 131L 176 130L 176 131L 176 131L 176 126L 176 128L 177 129L 177 130L 177 130L 177 130L 178 131L 178 131L 178 131L 178 131L 178 131L 179 131L 179 131L 179 131L 179 131L 179 131L 180 131L 180 131L 180 131L 180 131L 180 131L 181 131L 181 131L 181 131L 181 130L 181 131L 182 131L 182 131L 182 131L 182 131L 182 131L 183 131L 183 130L 183 131L 183 131L 184 130L 184 131L 184 130L 184 131L 184 131L 185 131L 185 131L 185 131L 185 131L 185 131L 186 131L 186 131L 186 131L 186 130L 186 130L 187 130L 187 131L 187 131L 187 131L 187 130L 188 -23764L 188 127L 188 128L 188 126L 188 122L 189 91L 189 91L 189 15L 189 103L 190 120L 190 122L 190 123L 190 126L 190 118L 191 127L 191 104L 191 126L 191 0L 191 99L 192 127L 192 126L 192 127L 192 127L 192 129L 193 129L 193 130L 193 130L 193 130L 193 130L 194 130L 194 130L 194 130L 194 130L 194 130L 195 129L 195 129L 195 129L 195 129L 196 130L 196 130L 196 130L 196 129L 196 86L 197 81L 197 33L 197 75L 197 93L 197 50L 198 68L 198 107L 198 115L 198 123L 198 124L 199 122L 199 123L 199 125L 199 125L 199 127L 200 126L 200 120L 200 -23764L 200 124L 200 126L 201 126L 201 127L 201 128L 201 128L 202 128L 202 127L 202 127L 202 128L 202 124L 203 124L 203 127L 203 127L 203 128L 203 128L 204 128L 204 128L 204 128L 204 128L 204 -23764L 205 -58L 205 58L 205 120L 205 124L 205 119L 206 125L 206 126L 206 127L 206 127L 206 127L 207 116L 207 126L 207 125L 207 126L 207 126L 208 127L 208 127L 208 128L 208 128L 209 128L 209 128L 209 128L 209 127L 209 128L 210 127L 210 127L 210 127L 210 127L 210 127L 211 -23764L 211 125L 211 126L 211 127L 211 128L 212 128L 212 128L 212 128L 212 128L 212 128L 213 128L 213 127L 213 127L 213 127L 213 127L 214 128L 214 128L 214 128L 214 127L 215 128L 215 128L 215 128L 215 128L 215 128L 216 127L 216 69L 216 122L 216 124L 216 124L 217 125L 217 125L 217 127L 217 127L 217 127L 218 127L 218 127L 218 128L 218 128L 218 118L 219 118L 219 122L 219 118L 219 124L 219 125L 220 126L 220 127L 220 127L 220 127L 221 127L 221 128L 221 128L 221 128L 221 128L 222 128L 222 82L 222 128L 222 128L 222 128L 223 128L 223 128L 223 128L 223 128L 223 128L 224 128L 224 128L 224 127L 224 123L 224 124L 225 126L 225 124L 225 123L 225 105L 225 126L 226 127L 226 128L 226 128L 226 128L 227 128L 227 128L 227 128L 227 128L 227 128L 228 128L 228 128L 228 -463L 228 120L 228 128L 229 128L 229 128L 229 128L 229 128L 229 127L 230 127L 230 127L 230 127L 230 128L 230 128L 231 128L 231 129L 231 129L 231 128L 231 128L 232 129L 232 129L 232 128L 232 128L 233 128L 233 129L 233 129L 233 129L 233 129L 234 129L 234 129L 234 129L 234 129L 234 129L 235 130L 235 129L 235 129L 235 129L 235 129L 236 130L 236 129L 236 130L 236 125L 236 127L 237 125L 237 128L 237 128L 237 129L 237 129L 238 129L 238 129L 238 129L 238 129L 238 129L 239 129L 239 129L 239 130L 239 130L 240 130L 240 130L 240 130L 240 130L 240 129L 241 130L 241 130L 241 128L 241 129L 241 129L 242 129L 242 129L 242 129L 242 130L 242 129L 243 129L 243 129L 243 130L 243 130L 243 130L 244 130L 244 130L 244 130L 244 130L 244 130L 245 130L 245 130L 245 130L 245 129L 246 130L 246 130L 246 130L 246 130L 246 130L 247 130L 247 130L 247 130L 247 130L 247 130L 248 130L 248 130L 248 130L 248 130L 248 130L 249 130L 249 130L 249 130L 249 130L 249 130L 250 130L 250 130L 250 130L 250 130L 250 130L 251 130L 251 130L 251 130L 251 130L 252 130L 252 130L 252 130L 252 130L 252 130L 253 130L 253 130L 253 130L 253 130L 253 130L 254 131L 254 130L 254 128L 254 130L 254 129L 255 115L 255 112L 255 101L 255 117L 255 -574L 256 125L 256 126L 256 126L 256 128L 256 128L 257 128L 257 128L 257 127L 257 128L 258 129L 258 129L 258 128L 258 129L 258 129L 259 129L 259 128L 259 129L 259 129L 259 129L 260 129L 260 129L 260 129L 260 130L 260 129L 261 129L 261 130L 261 130L 261 130L 261 129L 262 129L 262 129L 262 129L 262 130L 262 130L 263 130L 263 130L 263 130L 263 129L 264 129L 264 130L 264 130L 264 130L 264 130L 265 130L 265 130L 265 130L 265 130L 265 130L 266 130L 266 130L 266 130L 266 130L 266 130L 267 130L 267 130L 267 130L 267 130L 267 129L 268 130L 268 129L 268 130L 268 129L 268 130L 269 130L 269 129L 269 129L 269 130L 269 130L 270 130L 270 129L 270 129L 270 130L 271 130L 271 129L 271 125L 271 126L 271 127L 272 128L 272 129L 272 129L 272 129L 272 130L 273 130L 273 130L 273 130L 273 130L 273 130L 274 130L 274 127L 274 126L 274 127L 274 128L 275 128L 275 128L 275 128L 275 128L 275 128L 276 129L 276 127L 276 129L 276 129L 277 129L 277 129L 277 129L 277 129L 277 128L 278 128L 278 126L 278 125L 278 126L 278 127L 279 128L 279 128L 279 129L 279 128L 279 129L 280 128L 280 128L 280 129L 280 129L 280 129L 281 129L 281 129L 281 129L 281 129L 281 129L 282 129L 282 129L 282 129L 282 129L 283 129L 283 129L 283 129L 283 129L 283 129L 284 129L 284 130L 284 129L 284 130L 284 130L 285 130L 285 129L 285 130L 285 130L 285 130L 286 130L 286 130L 286 130L 286 130L 286 130L 287 130L 287 130L 287 127L 287 125L 287 125L 288 115L 288 127L 288 128L 288 128L 289 129L 289 129L 289 129L 289 129L 289 130L 290 130L 290 130L 290 129L 290 127L 290 128L 291 128L 291 129L 291 129L 291 128L 291 127L 292 128L 292 125L 292 127L 292 127L 292 128L 293 129L 293 129L 293 129L 293 129L 293 129L 294 129L 294 129L 294 129L 294 129L 295 129L 295 129L 295 130L 295 129L 295 129L 296 129L 296 130L 296 129L 296 130L 296 129L 297 130L 297 130L 297 129L 297 129L 297 129L 298 130L 298 130L 298 129L 298 128L 298 129L 299 129L 299 128L 299 128L 299 127L 299 128L 300 -23764L 300 129L 300 129L 300 127L 300 128L 301 127L 301 128L 301 128L 301 129L 302 129L 302 129L 302 129L 302 129L 302 129L 303 130L 303 130L 303 129L 303 129L 303 130L 304 129L 304 130L 304 130L 304 128L 304 130L 305 130L 305 130L 305 130L 305 130L 305 130L 306 130L 306 130L 306 130L 306 130L 306 130L 307 130L 307 130L 307 130L 307 130L 308 130L 308 130L 308 130L 308 130L 308 130L 309 130L 309 130L 309 130L 309 130L 309 130L 310 130L 310 130" stroke-width="1px" stroke="#63e72c" fill="transparent"/>
			<text x="3%" y="104.07712895320586" class="text">0.016</text>
			<line x1="0" y1="131.04067369947973" x2="100%" y2="131.04067369947973" stroke="rgba(117, 111, 111, 0.5)" />
		</svg>