<svg width="310" height="135" xmlns="http://www.w3.org/2000/svg" style="outline: 1px solid #ccc" >
			<style>
				.text { font: italic 10px sans-serif; fill: #756f6f; }
			</style>
			<path d="M 0 0 L 0 -3494L 1 -219L 2 -129L 3 -87L 4 -55L 5 -28L 6 -16L 7 -5L 8 2L 9 16L 10 28L 11 41L 12 46L 13 55L 14 59L 16 64L 17 66L 18 73L 19 79L 20 82L 21 84L 22 89L 23 92L 24 94L 25 94L 26 98L 27 97L 28 98L 29 101L 30 101L 31 95L 32 99L 33 103L 34 105L 35 107L 36 108L 37 109L 38 110L 39 110L 40 111L 41 112L 42 113L 43 113L 44 113L 45 113L 47 114L 48 114L 49 114L 50 114L 51 112L 52 113L 53 87L 54 98L 55 87L 56 93L 57 101L 58 106L 59 111L 60 113L 61 114L 62 114L 63 115L 64 116L 65 116L 66 116L 67 116L 68 117L 69 117L 70 117L 71 117L 72 117L 73 117L 74 117L 75 117L 76 118L 78 118L 79 118L 80 118L 81 118L 82 118L 83 117L 84 84L 85 70L 86 91L 87 101L 88 109L 89 111L 90 113L 91 114L 92 115L 93 115L 94 115L 95 116L 96 116L 97 117L 98 117L 99 117L 100 118L 101 118L 102 118L 103 118L 104 118L 105 118L 106 118L 107 118L 109 118L 110 118L 111 118L 112 117L 113 115L 114 103L 115 99L 116 105L 117 112L 118 113L 119 114L 120 114L 121 116L 122 117L 123 117L 124 118L 125 118L 126 118L 127 118L 128 118L 129 118L 130 118L 131 118L 132 118L 133 118L 134 118L 135 118L 136 118L 137 118L 138 118L 140 118L 141 118L 142 118L 143 118L 144 112L 145 100L 146 101L 147 107L 148 95L 149 104L 150 112L 151 113L 152 113L 153 116L 154 116L 155 117L 156 118L 157 118L 158 118L 159 118L 160 118L 161 118L 162 118L 163 118L 164 118L 165 118L 166 118L 167 118L 168 118L 169 118L 171 118L 172 118L 173 119L 174 118L 175 118L 176 118L 177 118L 178 111L 179 78L 180 70L 181 103L 182 109L 183 111L 184 114L 185 115L 186 116L 187 117L 188 117L 189 117L 190 118L 191 118L 192 118L 193 118L 194 118L 195 118L 196 118L 197 118L 198 118L 199 118L 200 118L 202 118L 203 118L 204 118L 205 118L 206 118L 207 118L 208 119L 209 119L 210 118L 211 118L 212 118L 213 116L 214 115L 215 112L 216 114L 217 113L 218 114L 219 115L 220 116L 221 116L 222 117L 223 117L 224 118L 225 118L 226 118L 227 118L 228 118L 229 119L 230 119L 231 119L 233 119L 234 119L 235 119L 236 119L 237 119L 238 119L 239 119L 240 119L 241 119L 242 119L 243 119L 244 119L 245 119L 246 119L 247 119L 248 119L 249 119L 250 119L 251 119L 252 119L 253 119L 254 119L 255 118L 256 -14079L 257 -294L 258 -34L 259 67L 260 81L 261 95L 262 101L 264 107L 265 108L 266 111L 267 113L 268 114L 269 115L 270 115L 271 116L 272 116L 273 117L 274 117L 275 117L 276 117L 277 117L 278 118L 279 118L 280 118L 281 118L 282 118L 283 118L 284 118L 285 118L 286 117L 287 115L 288 106L 289 92L 290 94L 291 106L 292 109L 293 112L 295 114L 296 115L 297 116L 298 117L 299 117L 300 118L 301 118L 302 118L 303 118L 304 118L 305 118L 306 118L 307 118L 308 118L 309 118" stroke-width="1px" stroke="#63e72c" fill="transparent"/>
			<text x="3%" y="94.55353682071353" class="text">0.011</text>
			<line x1="0" y1="118.762071088819" x2="100%" y2="118.762071088819" stroke="rgba(117, 111, 111, 0.5)" />
		</svg>