<svg width="310" height="135" xmlns="http://www.w3.org/2000/svg" style="outline: 1px solid #ccc" >
			<style>
				.text { font: italic 10px sans-serif; fill: #756f6f; }
			</style>
			<path d="M 0 0 L 0 -687L 1 -295L 1 -298L 2 -299L 2 -298L 3 -300L 3 -293L 4 -303L 4 -297L 5 -294L 5 -294L 6 -151L 6 -82L 7 -72L 7 -69L 8 -68L 8 -68L 9 -68L 9 -67L 10 -66L 10 -66L 11 -66L 11 -66L 12 -64L 12 -58L 13 -53L 13 -46L 14 -42L 14 -37L 15 -33L 16 -28L 16 -23L 17 -17L 17 -14L 18 -11L 18 -7L 19 -5L 19 -3L 20 0L 20 2L 21 4L 21 5L 22 8L 22 10L 23 12L 23 13L 24 15L 24 16L 25 18L 25 20L 26 20L 26 23L 27 24L 27 25L 28 27L 28 28L 29 29L 29 31L 30 32L 30 33L 31 34L 32 34L 32 36L 33 37L 33 38L 34 39L 34 38L 35 39L 35 40L 36 41L 36 42L 37 42L 37 42L 38 44L 38 44L 39 44L 39 45L 40 46L 40 45L 41 45L 41 46L 42 47L 42 48L 43 47L 43 48L 44 47L 44 48L 45 46L 45 48L 46 49L 47 51L 47 51L 48 50L 48 51L 49 52L 49 52L 50 53L 50 54L 51 54L 51 54L 52 54L 52 54L 53 53L 53 52L 54 52L 54 52L 55 52L 55 53L 56 55L 56 56L 57 56L 57 57L 58 57L 58 57L 59 57L 59 58L 60 58L 60 57L 61 53L 61 55L 62 56L 63 57L 63 58L 64 59L 64 58L 65 59L 65 60L 66 60L 66 60L 67 60L 67 60L 68 60L 68 59L 69 48L 69 47L 70 47L 70 47L 71 52L 71 56L 72 58L 72 59L 73 59L 73 60L 74 59L 74 60L 75 60L 75 61L 76 61L 76 62L 77 62L 78 61L 78 59L 79 58L 79 59L 80 59L 80 58L 81 55L 81 58L 82 60L 82 61L 83 62L 83 62L 84 63L 84 63L 85 63L 85 63L 86 62L 86 62L 87 61L 87 61L 88 55L 88 55L 89 57L 89 59L 90 61L 90 61L 91 60L 91 62L 92 62L 92 63L 93 63L 94 63L 94 63L 95 63L 95 63L 96 63L 96 63L 97 62L 97 62L 98 63L 98 63L 99 42L 99 -33L 100 7L 100 26L 101 39L 101 45L 102 47L 102 51L 103 54L 103 56L 104 57L 104 58L 105 59L 105 60L 106 60L 106 60L 107 60L 107 60L 108 61L 109 62L 109 62L 110 62L 110 63L 111 63L 111 63L 112 62L 112 62L 113 63L 113 63L 114 63L 114 63L 115 63L 115 63L 116 63L 116 63L 117 55L 117 44L 118 51L 118 51L 119 56L 119 59L 120 58L 120 59L 121 61L 121 62L 122 63L 122 63L 123 63L 123 63L 124 64L 125 64L 125 64L 126 64L 126 64L 127 64L 127 64L 128 64L 128 64L 129 64L 129 63L 130 63L 130 63L 131 61L 131 55L 132 38L 132 46L 133 50L 133 56L 134 59L 134 61L 135 61L 135 62L 136 63L 136 64L 137 64L 137 64L 138 64L 138 64L 139 64L 140 64L 140 64L 141 65L 141 64L 142 64L 142 64L 143 65L 143 64L 144 64L 144 64L 145 64L 145 56L 146 41L 146 39L 147 49L 147 55L 148 59L 148 60L 149 62L 149 62L 150 63L 150 64L 151 64L 151 64L 152 64L 152 64L 153 64L 153 64L 154 64L 154 65L 155 65L 156 65L 156 65L 157 65L 157 65L 158 65L 158 65L 159 65L 159 61L 160 38L 160 43L 161 43L 161 52L 162 57L 162 59L 163 61L 163 62L 164 63L 164 63L 165 64L 165 64L 166 64L 166 65L 167 65L 167 65L 168 65L 168 65L 169 65L 169 65L 170 65L 171 65L 171 65L 172 65L 172 64L 173 63L 173 61L 174 56L 174 53L 175 50L 175 52L 176 53L 176 59L 177 61L 177 61L 178 62L 178 63L 179 64L 179 64L 180 64L 180 65L 181 65L 181 65L 182 65L 182 65L 183 65L 183 65L 184 65L 184 65L 185 65L 185 65L 186 65L 187 65L 187 65L 188 65L 188 65L 189 62L 189 42L 190 32L 190 37L 191 44L 191 50L 192 55L 192 57L 193 59L 193 61L 194 62L 194 63L 195 63L 195 64L 196 64L 196 64L 197 64L 197 65L 198 65L 198 65L 199 65L 199 65L 200 65L 200 65L 201 65L 202 65L 202 65L 203 63L 203 61L 204 56L 204 57L 205 57L 205 59L 206 59L 206 61L 207 62L 207 63L 208 64L 208 64L 209 64L 209 65L 210 65L 210 65L 211 65L 211 65L 212 65L 212 65L 213 65L 213 65L 214 63L 214 62L 215 60L 215 59L 216 57L 216 48L 217 54L 218 58L 218 58L 219 60L 219 63L 220 48L 220 60L 221 62L 221 63L 222 64L 222 64L 223 65L 223 65L 224 65L 224 65L 225 65L 225 65L 226 65L 226 65L 227 65L 227 65L 228 65L 228 65L 229 65L 229 65L 230 65L 230 65L 231 65L 231 65L 232 65L 233 65L 233 65L 234 65L 234 65L 235 65L 235 65L 236 65L 236 65L 237 65L 237 43L 238 -5L 238 27L 239 36L 239 39L 240 49L 240 56L 241 58L 241 60L 242 61L 242 62L 243 63L 243 64L 244 64L 244 64L 245 65L 245 65L 246 65L 246 65L 247 65L 247 64L 248 65L 249 65L 249 65L 250 65L 250 65L 251 65L 251 65L 252 65L 252 65L 253 65L 253 65L 254 65L 254 65L 255 65L 255 64L 256 62L 256 60L 257 59L 257 59L 258 51L 258 53L 259 58L 259 59L 260 62L 260 63L 261 64L 261 64L 262 65L 262 65L 263 65L 264 65L 264 65L 265 65L 265 65L 266 65L 266 65L 267 65L 267 65L 268 65L 268 65L 269 65L 269 65L 270 66L 270 65L 271 65L 271 66L 272 65L 272 66L 273 66L 273 66L 274 65L 274 65L 275 65L 275 40L 276 22L 276 28L 277 38L 277 51L 278 54L 278 56L 279 59L 280 61L 280 62L 281 63L 281 64L 282 64L 282 64L 283 65L 283 65L 284 65L 284 65L 285 65L 285 65L 286 65L 286 65L 287 65L 287 65L 288 64L 288 64L 289 64L 289 65L 290 64L 290 64L 291 64L 291 64L 292 65L 292 65L 293 65L 293 65L 294 65L 295 65L 295 65L 296 65L 296 65L 297 65L 297 65L 298 66L 298 65L 299 65L 299 65L 300 17L 300 -13L 301 8L 301 29L 302 43L 302 49L 303 52L 303 54L 304 56L 304 58L 305 60L 305 61L 306 62L 306 62L 307 63L 307 62L 308 62L 308 63L 309 47L 309 52" stroke-width="1px" stroke="#63e72c" fill="transparent"/>
			<text x="3%" y="41.21254168387574" class="text">0.011</text>
			<line x1="0" y1="65.55254153585861" x2="100%" y2="65.55254153585861" stroke="rgba(117, 111, 111, 0.5)" />
		</svg>