<svg width="310" height="135" xmlns="http://www.w3.org/2000/svg" style="outline: 1px solid #ccc" >
			<style>
				.text { font: italic 10px sans-serif; fill: #756f6f; }
			</style>
			<path d="M 0 0 L 0 -10070L 1 -475L 2 -349L 2 -272L 3 -231L 4 -168L 5 -141L 6 -101L 7 -81L 7 -68L 8 -49L 9 -37L 10 -20L 11 -10L 11 -4L 12 -1L 13 8L 14 15L 15 20L 16 27L 16 32L 17 20L 18 24L 19 30L 20 37L 21 43L 21 46L 22 49L 23 53L 24 59L 25 63L 25 66L 26 67L 27 65L 28 66L 29 70L 30 72L 30 72L 31 73L 32 74L 33 75L 34 72L 34 77L 35 78L 36 80L 37 81L 38 80L 39 80L 39 81L 40 83L 41 82L 42 84L 43 85L 43 76L 44 58L 45 57L 46 67L 47 66L 48 74L 48 80L 49 84L 50 81L 51 84L 52 87L 52 89L 53 89L 54 90L 55 91L 56 91L 57 91L 57 92L 58 91L 59 80L 60 63L 61 62L 62 67L 62 56L 63 72L 64 79L 65 83L 66 87L 66 88L 67 89L 68 90L 69 91L 70 91L 71 92L 71 93L 72 93L 73 93L 74 93L 75 91L 75 86L 76 87L 77 89L 78 90L 79 91L 80 92L 80 94L 81 94L 82 94L 83 95L 84 94L 84 95L 85 95L 86 95L 87 95L 88 95L 89 94L 89 83L 90 -38L 91 -3L 92 32L 93 49L 93 63L 94 73L 95 80L 96 85L 97 88L 98 89L 98 89L 99 90L 100 91L 101 92L 102 93L 103 93L 103 94L 104 94L 105 92L 106 92L 107 92L 107 93L 108 93L 109 93L 110 94L 111 94L 112 95L 112 95L 113 95L 114 96L 115 96L 116 96L 116 96L 117 95L 118 94L 119 94L 120 94L 121 70L 121 -80L 122 -29L 123 0L 124 31L 125 50L 125 65L 126 74L 127 78L 128 83L 129 86L 130 88L 130 90L 131 91L 132 92L 133 92L 134 93L 134 93L 135 94L 136 94L 137 94L 138 94L 139 94L 139 94L 140 93L 141 88L 142 76L 143 66L 144 76L 144 80L 145 83L 146 88L 147 89L 148 90L 148 92L 149 93L 150 94L 151 94L 152 95L 153 95L 153 95L 154 95L 155 95L 156 95L 157 96L 157 96L 158 96L 159 96L 160 96L 161 96L 162 95L 162 88L 163 13L 164 -93L 165 -78L 166 -4L 166 51L 167 61L 168 73L 169 79L 170 82L 171 82L 171 86L 172 89L 173 90L 174 92L 175 93L 176 93L 176 93L 177 94L 178 94L 179 94L 180 95L 180 95L 181 95L 182 95L 183 95L 184 95L 185 95L 185 95L 186 95L 187 95L 188 93L 189 80L 189 56L 190 60L 191 54L 192 66L 193 70L 194 80L 194 86L 195 89L 196 91L 197 93L 198 93L 198 94L 199 95L 200 95L 201 95L 202 95L 203 96L 203 95L 204 95L 205 96L 206 96L 207 96L 207 96L 208 96L 209 96L 210 96L 211 96L 212 96L 212 96L 213 96L 214 -5L 215 -136L 216 -18L 217 33L 217 53L 218 66L 219 75L 220 80L 221 83L 221 85L 222 88L 223 90L 224 91L 225 93L 226 93L 226 94L 227 94L 228 94L 229 95L 230 95L 230 95L 231 95L 232 96L 233 96L 234 96L 235 96L 235 95L 236 95L 237 93L 238 88L 239 71L 239 64L 240 69L 241 73L 242 78L 243 85L 244 87L 244 91L 245 92L 246 93L 247 94L 248 94L 248 95L 249 95L 250 95L 251 95L 252 96L 253 96L 253 96L 254 96L 255 96L 256 96L 257 96L 258 95L 258 93L 259 92L 260 86L 261 82L 262 71L 262 58L 263 55L 264 68L 265 75L 266 80L 267 84L 267 87L 268 91L 269 92L 270 93L 271 94L 271 94L 272 95L 273 95L 274 95L 275 96L 276 96L 276 96L 277 96L 278 96L 279 96L 280 96L 280 95L 281 95L 282 93L 283 91L 284 88L 285 82L 285 69L 286 70L 287 70L 288 53L 289 65L 289 72L 290 78L 291 87L 292 90L 293 92L 294 93L 294 94L 295 94L 296 95L 297 95L 298 95L 299 96L 299 96L 300 96L 301 96L 302 96L 303 96L 303 96L 304 96L 305 96L 306 96L 307 96L 308 96L 308 96L 309 97" stroke-width="1px" stroke="#63e72c" fill="transparent"/>
			<text x="3%" y="77.23933307791033" class="text">0.011</text>
			<line x1="0" y1="96.54916634738791" x2="100%" y2="96.54916634738791" stroke="rgba(117, 111, 111, 0.5)" />
		</svg>