<svg width="310" height="135" xmlns="http://www.w3.org/2000/svg" style="outline: 1px solid #ccc" >
			<style>
				.text { font: italic 10px sans-serif; fill: #756f6f; }
			</style>
			<path d="M 0 0 L 0 -4988L 1 -494L 2 -341L 2 -283L 3 -227L 4 -189L 5 -166L 6 -151L 6 -144L 7 -141L 8 -118L 9 -103L 10 -90L 10 -79L 11 -70L 12 -60L 13 -50L 14 -44L 14 -37L 15 -30L 16 -26L 17 -19L 17 -14L 18 -8L 19 -5L 20 -5L 21 -1L 21 5L 22 10L 23 11L 24 17L 25 22L 25 23L 26 26L 27 29L 28 30L 29 32L 29 30L 30 32L 31 36L 32 40L 33 39L 33 39L 34 43L 35 47L 36 50L 37 52L 37 55L 38 54L 39 52L 40 50L 41 53L 41 57L 42 59L 43 60L 44 60L 45 58L 45 62L 46 63L 47 62L 48 61L 48 63L 49 61L 50 65L 51 68L 52 67L 52 65L 53 68L 54 69L 55 67L 56 68L 56 70L 57 73L 58 74L 59 73L 60 74L 60 75L 61 72L 62 70L 63 71L 64 71L 64 73L 65 75L 66 74L 67 70L 68 70L 68 68L 69 72L 70 73L 71 76L 72 78L 72 79L 73 77L 74 79L 75 78L 76 77L 76 75L 77 80L 78 78L 79 78L 79 76L 80 77L 81 79L 82 76L 83 65L 83 71L 84 79L 85 83L 86 82L 87 79L 87 74L 88 78L 89 80L 90 81L 91 81L 91 82L 92 84L 93 85L 94 85L 95 86L 95 87L 96 88L 97 87L 98 84L 99 68L 99 51L 100 69L 101 75L 102 80L 103 83L 103 82L 104 84L 105 83L 106 84L 107 87L 107 86L 108 88L 109 88L 110 88L 110 85L 111 85L 112 86L 113 86L 114 87L 114 86L 115 88L 116 87L 117 82L 118 81L 118 70L 119 70L 120 80L 121 80L 122 81L 122 84L 123 86L 124 88L 125 89L 126 90L 126 91L 127 92L 128 92L 129 91L 130 88L 130 89L 131 85L 132 82L 133 79L 134 77L 134 78L 135 80L 136 80L 137 82L 138 88L 138 85L 139 88L 140 91L 141 92L 141 93L 142 92L 143 88L 144 80L 145 83L 145 82L 146 70L 147 37L 148 77L 149 78L 149 85L 150 88L 151 89L 152 90L 153 91L 153 92L 154 92L 155 93L 156 92L 157 93L 157 93L 158 94L 159 92L 160 90L 161 88L 161 80L 162 83L 163 81L 164 82L 165 88L 165 91L 166 91L 167 93L 168 94L 169 93L 169 93L 170 89L 171 87L 172 88L 172 92L 173 91L 174 93L 175 92L 176 93L 176 91L 177 91L 178 90L 179 89L 180 78L 180 80L 181 74L 182 82L 183 78L 184 85L 184 89L 185 91L 186 93L 187 93L 188 94L 188 94L 189 93L 190 95L 191 96L 192 96L 192 96L 193 96L 194 95L 195 92L 196 92L 196 87L 197 59L 198 -55L 199 -54L 200 -1L 200 19L 201 54L 202 61L 203 64L 203 71L 204 78L 205 83L 206 83L 207 86L 207 89L 208 90L 209 92L 210 94L 211 94L 211 94L 212 94L 213 94L 214 95L 215 94L 215 93L 216 88L 217 85L 218 82L 219 82L 219 87L 220 87L 221 88L 222 91L 223 92L 223 92L 224 91L 225 93L 226 93L 227 92L 227 93L 228 93L 229 94L 230 95L 231 94L 231 86L 232 71L 233 -17L 234 -141L 234 -275L 235 -1844L 236 -3L 237 22L 238 39L 238 55L 239 54L 240 67L 241 70L 242 78L 242 82L 243 84L 244 87L 245 88L 246 88L 246 89L 247 91L 248 90L 249 91L 250 92L 250 92L 251 91L 252 81L 253 79L 254 82L 254 85L 255 74L 256 44L 257 58L 258 70L 258 77L 259 83L 260 85L 261 87L 262 88L 262 90L 263 91L 264 92L 265 91L 265 93L 266 94L 267 94L 268 94L 269 92L 269 91L 270 90L 271 89L 272 88L 273 87L 273 90L 274 91L 275 92L 276 92L 277 90L 277 83L 278 84L 279 72L 280 54L 281 14L 281 25L 282 56L 283 67L 284 71L 285 80L 285 86L 286 88L 287 90L 288 92L 289 93L 289 94L 290 94L 291 91L 292 89L 293 91L 293 92L 294 91L 295 88L 296 85L 296 85L 297 83L 298 86L 299 91L 300 94L 300 94L 301 95L 302 95L 303 96L 304 96L 304 97L 305 96L 306 96L 307 95L 308 88L 308 36L 309 -21" stroke-width="1px" stroke="#63e72c" fill="transparent"/>
			<text x="3%" y="-16.93317088909339" class="text">0.0128</text>
			<line x1="0" y1="96.55151068456351" x2="100%" y2="96.55151068456351" stroke="rgba(117, 111, 111, 0.5)" />
		</svg>