<svg width="310" height="135" xmlns="http://www.w3.org/2000/svg" style="outline: 1px solid #ccc" >
			<style>
				.text { font: italic 10px sans-serif; fill: #756f6f; }
			</style>
			<path d="M 0 0 L 0 -4164L 1 -468L 2 -385L 3 -334L 4 -283L 4 -254L 5 -232L 6 -212L 7 -194L 8 -188L 9 -168L 10 -167L 11 -140L 12 -127L 12 -121L 13 -109L 14 -97L 15 -91L 16 -84L 17 -75L 18 -72L 19 -64L 19 -62L 20 -56L 21 -49L 22 -43L 23 -37L 24 -31L 25 -24L 26 -20L 27 -16L 27 -10L 28 -4L 29 -2L 30 -1L 31 1L 32 8L 33 12L 34 14L 35 18L 35 22L 36 24L 37 26L 38 28L 39 31L 40 36L 41 38L 42 43L 43 42L 43 44L 44 46L 45 49L 46 50L 47 48L 48 52L 49 53L 50 53L 50 55L 51 58L 52 59L 53 62L 54 61L 55 63L 56 65L 57 65L 58 65L 58 69L 59 68L 60 71L 61 72L 62 72L 63 72L 64 75L 65 72L 66 73L 66 66L 67 43L 68 36L 69 44L 70 54L 71 64L 72 68L 73 74L 74 78L 74 79L 75 81L 76 82L 77 82L 78 83L 79 85L 80 86L 81 86L 81 85L 82 86L 83 82L 84 83L 85 84L 86 86L 87 86L 88 86L 89 85L 89 86L 90 88L 91 88L 92 89L 93 89L 94 90L 95 90L 96 91L 97 92L 97 87L 98 40L 99 -11L 100 -26L 101 -19L 102 8L 103 35L 104 50L 105 58L 105 67L 106 73L 107 76L 108 80L 109 82L 110 81L 111 84L 112 86L 112 86L 113 89L 114 90L 115 91L 116 92L 117 92L 118 93L 119 92L 120 92L 120 91L 121 89L 122 89L 123 89L 124 88L 125 81L 126 78L 127 80L 128 72L 128 79L 129 82L 130 83L 131 87L 132 90L 133 92L 134 94L 135 95L 136 96L 136 96L 137 97L 138 97L 139 98L 140 98L 141 99L 142 99L 143 100L 143 100L 144 99L 145 98L 146 84L 147 -6L 148 -139L 149 -76L 150 -16L 151 16L 151 20L 152 42L 153 57L 154 64L 155 70L 156 77L 157 81L 158 83L 159 85L 159 88L 160 90L 161 91L 162 92L 163 92L 164 93L 165 93L 166 93L 167 94L 167 95L 168 96L 169 97L 170 96L 171 96L 172 97L 173 96L 174 92L 174 82L 175 62L 176 44L 177 48L 178 59L 179 68L 180 69L 181 74L 182 79L 182 83L 183 87L 184 90L 185 93L 186 94L 187 95L 188 97L 189 97L 190 98L 190 98L 191 98L 192 99L 193 99L 194 99L 195 99L 196 98L 197 98L 198 99L 198 99L 199 100L 200 89L 201 64L 202 58L 203 62L 204 57L 205 60L 205 63L 206 71L 207 77L 208 78L 209 80L 210 85L 211 89L 212 91L 213 92L 213 94L 214 96L 215 97L 216 98L 217 99L 218 100L 219 100L 220 100L 221 100L 221 101L 222 101L 223 101L 224 101L 225 101L 226 101L 227 101L 228 101L 229 101L 229 101L 230 100L 231 89L 232 -22L 233 -38L 234 -8L 235 14L 236 44L 236 56L 237 62L 238 69L 239 76L 240 81L 241 86L 242 88L 243 90L 244 92L 244 94L 245 96L 246 96L 247 97L 248 98L 249 99L 250 99L 251 100L 252 100L 252 99L 253 99L 254 99L 255 100L 256 100L 257 101L 258 101L 259 97L 260 88L 260 79L 261 69L 262 71L 263 73L 264 76L 265 77L 266 81L 267 86L 267 88L 268 91L 269 94L 270 96L 271 98L 272 98L 273 99L 274 100L 275 101L 275 101L 276 101L 277 102L 278 102L 279 102L 280 102L 281 102L 282 101L 283 97L 283 87L 284 27L 285 18L 286 32L 287 53L 288 59L 289 74L 290 78L 291 79L 291 86L 292 87L 293 92L 294 93L 295 95L 296 97L 297 98L 298 99L 298 99L 299 100L 300 100L 301 101L 302 101L 303 101L 304 101L 305 101L 306 101L 306 101L 307 102L 308 102L 309 102" stroke-width="1px" stroke="#63e72c" fill="transparent"/>
			<text x="3%" y="81.52127877032022" class="text">0.011</text>
			<line x1="0" y1="102.02527814593314" x2="100%" y2="102.02527814593314" stroke="rgba(117, 111, 111, 0.5)" />
		</svg>