<svg width="160" height="50" xmlns="http://www.w3.org/2000/svg" style="outline: 1px solid #ccc" >
			<style>
				.text { font: italic 10px sans-serif; fill: #756f6f; }
			</style>
			<path d="M 0 0 L 0 -1780L 1 -23L 2 -8L 3 0L 4 5L 5 8L 6 12L 7 14L 9 15L 10 18L 11 20L 12 21L 13 21L 14 22L 15 23L 16 25L 17 25L 18 25L 19 25L 20 26L 21 26L 22 27L 23 28L 25 29L 26 29L 27 29L 28 28L 29 28L 30 29L 31 29L 32 29L 33 28L 34 28L 35 27L 36 28L 37 28L 38 29L 39 29L 41 30L 42 30L 43 30L 44 31L 45 32L 46 31L 47 31L 48 29L 49 29L 50 30L 51 29L 52 27L 53 27L 54 27L 55 29L 57 30L 58 31L 59 30L 60 30L 61 31L 62 32L 63 32L 64 32L 65 32L 66 32L 67 31L 68 32L 69 32L 70 32L 71 33L 73 33L 74 33L 75 32L 76 32L 77 29L 78 28L 79 29L 80 30L 81 31L 82 32L 83 33L 84 32L 85 30L 86 27L 87 29L 89 31L 90 32L 91 32L 92 32L 93 32L 94 31L 95 32L 96 32L 97 33L 98 33L 99 34L 100 34L 101 33L 102 31L 103 27L 105 27L 106 27L 107 29L 108 30L 109 29L 110 28L 111 30L 112 32L 113 32L 114 33L 115 32L 116 33L 117 33L 118 33L 119 33L 121 33L 122 33L 123 33L 124 33L 125 33L 126 34L 127 34L 128 34L 129 33L 130 32L 131 30L 132 30L 133 32L 134 33L 135 33L 137 33L 138 31L 139 29L 140 30L 141 31L 142 32L 143 31L 144 33L 145 33L 146 34L 147 34L 148 34L 149 34L 150 31L 151 27L 153 26L 154 29L 155 30L 156 31L 157 32L 158 32L 159 33" stroke-width="2px" stroke="#63e72c" fill="transparent"/>
			<text x="80%" y="26.352428188365494" class="text">0.019</text>
			<line x1="0" y1="34.39964734881178" x2="100%" y2="34.39964734881178" stroke="#756f6f" />
		</svg>