<svg  xmlns="http://www.w3.org/2000/svg" xmlns:xlink="http://www.w3.org/1999/xlink" version="1.1" width="400" height="250"><rect x="58.66666666666667" y="17" width="16" height="16" stroke="black" stroke-width="1" fill="rgba(0, 128, 0, 0.5)" /><line x1="33.333333333333336" y1="25" x2="58.66666666666667" y2="25" style="stroke:black;stroke-width:0.5" /><rect x="58.66666666666667" y="67" width="16" height="16" stroke="black" stroke-width="1" fill="rgba(0, 128, 0, 0.5)" /><line x1="33.333333333333336" y1="75" x2="58.66666666666667" y2="75" style="stroke:black;stroke-width:0.5" /><rect x="58.66666666666667" y="117" width="16" height="16" stroke="black" stroke-width="1" fill="rgba(0, 128, 0, 0.5)" /><line x1="33.333333333333336" y1="125" x2="58.66666666666667" y2="125" style="stroke:black;stroke-width:0.5" /><rect x="58.66666666666667" y="167" width="16" height="16" stroke="black" stroke-width="1" fill="rgba(0, 128, 0, 0.5)" /><line x1="33.333333333333336" y1="175" x2="58.66666666666667" y2="175" style="stroke:black;stroke-width:0.5" /><rect x="58.66666666666667" y="217" width="16" height="16" stroke="black" stroke-width="1" fill="rgba(0, 128, 0, 0.5)" /><line x1="33.333333333333336" y1="225" x2="58.66666666666667" y2="225" style="stroke:black;stroke-width:0.5" /><circle cx="200" cy="25" r="8" stroke="black" stroke-width="1" fill="rgba(255, 127, 80, 0.5)" /><line x1="66.666666666666678" y1="25" x2="192" y2="25" style="stroke:black;stroke-width:0.5" /><line x1="66.666666666666678" y1="75" x2="192" y2="25" style="stroke:black;stroke-width:0.5" /><line x1="66.666666666666678" y1="125" x2="192" y2="25" style="stroke:black;stroke-width:0.5" /><line x1="66.666666666666678" y1="175" x2="192" y2="25" style="stroke:black;stroke-width:0.5" /><line x1="66.666666666666678" y1="225" x2="192" y2="25" style="stroke:black;stroke-width:0.5" /><circle cx="200" cy="75" r="8" stroke="black" stroke-width="1" fill="rgba(255, 127, 80, 0.5)" /><line x1="66.666666666666678" y1="25" x2="192" y2="75" style="stroke:black;stroke-width:0.5" /><line x1="66.666666666666678" y1="75" x2="192" y2="75" style="stroke:black;stroke-width:0.5" /><line x1="66.666666666666678" y1="125" x2="192" y2="75" style="stroke:black;stroke-width:0.5" /><line x1="66.666666666666678" y1="175" x2="192" y2="75" style="stroke:black;stroke-width:0.5" /><line x1="66.666666666666678" y1="225" x2="192" y2="75" style="stroke:black;stroke-width:0.5" /><circle cx="200" cy="125" r="8" stroke="black" stroke-width="1" fill="rgba(255, 127, 80, 0.5)" /><line x1="66.666666666666678" y1="25" x2="192" y2="125" style="stroke:black;stroke-width:0.5" /><line x1="66.666666666666678" y1="75" x2="192" y2="125" style="stroke:black;stroke-width:0.5" /><line x1="66.666666666666678" y1="125" x2="192" y2="125" style="stroke:black;stroke-width:0.5" /><line x1="66.666666666666678" y1="175" x2="192" y2="125" style="stroke:black;stroke-width:0.5" /><line x1="66.666666666666678" y1="225" x2="192" y2="125" style="stroke:black;stroke-width:0.5" /><circle cx="200" cy="175" r="8" stroke="black" stroke-width="1" fill="rgba(255, 127, 80, 0.5)" /><line x1="66.666666666666678" y1="25" x2="192" y2="175" style="stroke:black;stroke-width:0.5" /><line x1="66.666666666666678" y1="75" x2="192" y2="175" style="stroke:black;stroke-width:0.5" /><line x1="66.666666666666678" y1="125" x2="192" y2="175" style="stroke:black;stroke-width:0.5" /><line x1="66.666666666666678" y1="175" x2="192" y2="175" style="stroke:black;stroke-width:0.5" /><line x1="66.666666666666678" y1="225" x2="192" y2="175" style="stroke:black;stroke-width:0.5" /><circle cx="200" cy="225" r="8" stroke="black" stroke-width="1" fill="rgba(255, 127, 80, 0.5)" /><line x1="66.666666666666678" y1="25" x2="192" y2="225" style="stroke:black;stroke-width:0.5" /><line x1="66.666666666666678" y1="75" x2="192" y2="225" style="stroke:black;stroke-width:0.5" /><line x1="66.666666666666678" y1="125" x2="192" y2="225" style="stroke:black;stroke-width:0.5" /><line x1="66.666666666666678" y1="175" x2="192" y2="225" style="stroke:black;stroke-width:0.5" /><line x1="66.666666666666678" y1="225" x2="192" y2="225" style="stroke:black;stroke-width:0.5" /><circle cx="333.33333333333337" cy="25" r="8" stroke="black" stroke-width="1" fill="rgba(100, 149, 237, 0.5)" /><line x1="333.333333333333378" y1="25" x2="366.6666666666667" y2="25" style="stroke:black;stroke-width:0.5" /><line x1="2008" y1="25" x2="325.33333333333337" y2="25" style="stroke:black;stroke-width:0.5" /><line x1="2008" y1="75" x2="325.33333333333337" y2="25" style="stroke:black;stroke-width:0.5" /><line x1="2008" y1="125" x2="325.33333333333337" y2="25" style="stroke:black;stroke-width:0.5" /><line x1="2008" y1="175" x2="325.33333333333337" y2="25" style="stroke:black;stroke-width:0.5" /><line x1="2008" y1="225" x2="325.33333333333337" y2="25" style="stroke:black;stroke-width:0.5" /><circle cx="333.33333333333337" cy="75" r="8" stroke="black" stroke-width="1" fill="rgba(100, 149, 237, 0.5)" /><line x1="333.333333333333378" y1="75" x2="366.6666666666667" y2="75" style="stroke:black;stroke-width:0.5" /><line x1="2008" y1="25" x2="325.33333333333337" y2="75" style="stroke:black;stroke-width:0.5" /><line x1="2008" y1="75" x2="325.33333333333337" y2="75" style="stroke:black;stroke-width:0.5" /><line x1="2008" y1="125" x2="325.33333333333337" y2="75" style="stroke:black;stroke-width:0.5" /><line x1="2008" y1="175" x2="325.33333333333337" y2="75" style="stroke:black;stroke-width:0.5" /><line x1="2008" y1="225" x2="325.33333333333337" y2="75" style="stroke:black;stroke-width:0.5" /><circle cx="333.33333333333337" cy="125" r="8" stroke="black" stroke-width="1" fill="rgba(100, 149, 237, 0.5)" /><line x1="333.333333333333378" y1="125" x2="366.6666666666667" y2="125" style="stroke:black;stroke-width:0.5" /><line x1="2008" y1="25" x2="325.33333333333337" y2="125" style="stroke:black;stroke-width:0.5" /><line x1="2008" y1="75" x2="325.33333333333337" y2="125" style="stroke:black;stroke-width:0.5" /><line x1="2008" y1="125" x2="325.33333333333337" y2="125" style="stroke:black;stroke-width:0.5" /><line x1="2008" y1="175" x2="325.33333333333337" y2="125" style="stroke:black;stroke-width:0.5" /><line x1="2008" y1="225" x2="325.33333333333337" y2="125" style="stroke:black;stroke-width:0.5" /><circle cx="333.33333333333337" cy="175" r="8" stroke="black" stroke-width="1" fill="rgba(100, 149, 237, 0.5)" /><line x1="333.333333333333378" y1="175" x2="366.6666666666667" y2="175" style="stroke:black;stroke-width:0.5" /><line x1="2008" y1="25" x2="325.33333333333337" y2="175" style="stroke:black;stroke-width:0.5" /><line x1="2008" y1="75" x2="325.33333333333337" y2="175" style="stroke:black;stroke-width:0.5" /><line x1="2008" y1="125" x2="325.33333333333337" y2="175" style="stroke:black;stroke-width:0.5" /><line x1="2008" y1="175" x2="325.33333333333337" y2="175" style="stroke:black;stroke-width:0.5" /><line x1="2008" y1="225" x2="325.33333333333337" y2="175" style="stroke:black;stroke-width:0.5" /><circle cx="333.33333333333337" cy="225" r="8" stroke="black" stroke-width="1" fill="rgba(100, 149, 237, 0.5)" /><line x1="333.333333333333378" y1="225" x2="366.6666666666667" y2="225" style="stroke:black;stroke-width:0.5" /><line x1="2008" y1="25" x2="325.33333333333337" y2="225" style="stroke:black;stroke-width:0.5" /><line x1="2008" y1="75" x2="325.33333333333337" y2="225" style="stroke:black;stroke-width:0.5" /><line x1="2008" y1="125" x2="325.33333333333337" y2="225" style="stroke:black;stroke-width:0.5" /><line x1="2008" y1="175" x2="325.33333333333337" y2="225" style="stroke:black;stroke-width:0.5" /><line x1="2008" y1="225" x2="325.33333333333337" y2="225" style="stroke:black;stroke-width:0.5" /></svg>