<svg width="310" height="135" xmlns="http://www.w3.org/2000/svg" style="outline: 1px solid #ccc" >
			<style>
				.text { font: italic 10px sans-serif; fill: #756f6f; }
			</style>
			<path d="M 0 0 L 0 -3368L 2 -235L 3 -159L 5 -116L 6 -86L 8 -73L 9 -57L 11 -39L 12 -26L 14 -16L 16 -8L 17 -7L 19 4L 20 13L 22 18L 23 21L 25 24L 26 27L 28 29L 29 34L 31 38L 33 43L 34 44L 36 45L 37 44L 39 45L 40 45L 42 48L 43 50L 45 50L 47 52L 48 55L 50 58L 51 58L 53 51L 54 54L 56 58L 57 62L 59 64L 60 65L 62 65L 64 65L 65 68L 67 68L 68 69L 70 70L 71 67L 73 69L 74 68L 76 68L 78 61L 79 60L 81 62L 82 67L 84 72L 85 72L 87 75L 88 75L 90 76L 91 76L 93 77L 95 73L 96 67L 98 68L 99 66L 101 70L 102 73L 104 75L 105 75L 107 75L 109 75L 110 77L 112 78L 113 79L 115 79L 116 78L 118 80L 119 56L 121 48L 122 59L 124 65L 126 72L 127 73L 129 74L 130 77L 132 78L 133 80L 135 80L 136 80L 138 81L 140 81L 141 82L 143 81L 144 81L 146 82L 147 81L 149 79L 150 77L 152 78L 153 76L 155 64L 157 62L 158 70L 160 76L 161 79L 163 78L 164 79L 166 82L 167 83L 169 83L 171 83L 172 83L 174 81L 175 82L 177 82L 178 83L 180 82L 181 83L 183 82L 184 67L 186 6L 188 39L 189 52L 191 65L 192 71L 194 76L 195 78L 197 78L 198 78L 200 78L 202 79L 203 82L 205 81L 206 81L 208 82L 209 83L 211 83L 212 82L 214 83L 215 84L 217 81L 219 75L 220 51L 222 48L 223 63L 225 70L 226 76L 228 78L 229 78L 231 81L 233 81L 234 82L 236 83L 237 84L 239 85L 240 85L 242 85L 243 85L 245 86L 246 86L 248 84L 250 76L 251 35L 253 42L 254 54L 256 65L 257 72L 259 77L 260 80L 262 82L 264 83L 265 84L 267 83L 268 84L 270 84L 271 82L 273 82L 274 82L 276 83L 277 83L 279 84L 281 85L 282 85L 284 83L 285 85L 287 80L 288 79L 290 80L 291 69L 293 54L 295 63L 296 75L 298 76L 299 79L 301 82L 302 84L 304 85L 305 85L 307 85L 308 86" stroke-width="1px" stroke="#63e72c" fill="transparent"/>
			<text x="3%" y="68.95141426223329" class="text">0.013</text>
			<line x1="0" y1="86.18926782779161" x2="100%" y2="86.18926782779161" stroke="rgba(117, 111, 111, 0.5)" />
		</svg>
