<svg width="160" height="50" xmlns="http://www.w3.org/2000/svg" style="outline: 1px solid #ccc" >
			<style>
				.text { font: italic 10px sans-serif; fill: #756f6f; }
			</style>
			<path d="M 0 0 L 0 -2014L 0 -68L 1 -45L 1 -36L 2 -27L 2 -21L 3 -16L 3 -13L 4 -9L 4 -6L 5 -4L 5 -3L 5 -1L 6 1L 6 2L 7 1L 7 5L 8 6L 8 8L 9 9L 9 10L 10 12L 10 11L 11 12L 11 13L 11 13L 12 14L 12 15L 13 15L 13 17L 14 17L 14 17L 15 18L 15 19L 16 19L 16 20L 16 20L 17 21L 17 22L 18 22L 18 22L 19 22L 19 20L 20 22L 20 22L 21 21L 21 17L 21 18L 22 20L 22 21L 23 22L 23 21L 24 21L 24 21L 25 23L 25 24L 26 24L 26 25L 27 25L 27 26L 27 25L 28 25L 28 25L 29 26L 29 25L 30 23L 30 22L 31 24L 31 25L 32 26L 32 26L 32 26L 33 20L 33 19L 34 22L 34 24L 35 25L 35 26L 36 27L 36 27L 37 27L 37 27L 37 27L 38 27L 38 27L 39 27L 39 28L 40 28L 40 27L 41 28L 41 28L 42 28L 42 28L 43 28L 43 29L 43 29L 44 29L 44 26L 45 11L 45 2L 46 18L 46 23L 47 25L 47 22L 48 22L 48 25L 48 27L 49 27L 49 25L 50 27L 50 27L 51 23L 51 25L 52 26L 52 28L 53 28L 53 28L 53 29L 54 29L 54 29L 55 29L 55 29L 56 29L 56 29L 57 30L 57 29L 58 25L 58 21L 59 16L 59 22L 59 -15L 60 2L 60 9L 61 17L 61 21L 62 23L 62 24L 63 25L 63 25L 64 25L 64 24L 64 25L 65 26L 65 25L 66 26L 66 27L 67 28L 67 28L 68 28L 68 27L 69 28L 69 28L 69 28L 70 29L 70 21L 71 3L 71 12L 72 18L 72 20L 73 21L 73 23L 74 23L 74 24L 75 25L 75 26L 75 27L 76 27L 76 27L 77 28L 77 28L 78 28L 78 28L 79 26L 79 26L 80 27L 80 21L 80 25L 81 23L 81 22L 82 22L 82 19L 83 18L 83 23L 84 25L 84 26L 85 27L 85 26L 85 27L 86 27L 86 27L 87 28L 87 29L 88 29L 88 29L 89 29L 89 29L 90 24L 90 25L 91 26L 91 27L 91 26L 92 28L 92 29L 93 27L 93 29L 94 29L 94 28L 95 28L 95 29L 96 28L 96 22L 96 22L 97 21L 97 25L 98 28L 98 28L 99 29L 99 29L 100 30L 100 30L 101 27L 101 21L 101 22L 102 25L 102 27L 103 28L 103 29L 104 29L 104 29L 105 30L 105 30L 106 30L 106 30L 107 31L 107 31L 107 30L 108 30L 108 30L 109 30L 109 31L 110 31L 110 31L 111 30L 111 25L 112 12L 112 2L 112 14L 113 19L 113 20L 114 22L 114 24L 115 26L 115 26L 116 27L 116 27L 117 28L 117 29L 117 29L 118 29L 118 29L 119 29L 119 29L 120 29L 120 29L 121 29L 121 29L 122 29L 122 30L 123 29L 123 30L 123 31L 124 30L 124 30L 125 30L 125 31L 126 31L 126 31L 127 31L 127 29L 128 28L 128 7L 128 1L 129 7L 129 7L 130 17L 130 12L 131 -13L 131 8L 132 11L 132 13L 133 19L 133 20L 133 15L 134 22L 134 22L 135 22L 135 22L 136 23L 136 23L 137 25L 137 26L 138 26L 138 27L 139 26L 139 27L 139 27L 140 28L 140 28L 141 22L 141 21L 142 25L 142 27L 143 28L 143 28L 144 27L 144 28L 144 28L 145 28L 145 26L 146 27L 146 28L 147 28L 147 28L 148 29L 148 29L 149 29L 149 28L 149 28L 150 28L 150 27L 151 28L 151 29L 152 30L 152 30L 153 30L 153 30L 154 30L 154 30L 155 29L 155 27L 155 29L 156 29L 156 29L 157 27L 157 29L 158 30L 158 30L 159 30L 159 31L 160 31" stroke-width="2px" stroke="#63e72c" fill="transparent"/>
			<text x="3%" y="24.570430099281815" class="text">0.020</text>
			<line x1="0" y1="31.32640168861058" x2="100%" y2="31.32640168861058" stroke="rgba(117, 111, 111, 0.5)" />
		</svg>