<svg width="310" height="135" xmlns="http://www.w3.org/2000/svg" style="outline: 1px solid #ccc" >
			<style>
				.text { font: italic 10px sans-serif; fill: #756f6f; }
			</style>
			<path d="M 0 0 L 0 -1384L 1 -450L 2 -411L 3 -364L 4 -315L 4 -284L 5 -259L 6 -227L 7 -201L 8 -172L 9 -169L 10 -150L 11 -133L 12 -142L 12 -136L 13 -116L 14 -101L 15 -91L 16 -79L 17 -77L 18 -58L 19 -56L 19 -46L 20 -32L 21 -28L 22 -31L 23 -26L 24 -19L 25 -9L 26 -12L 27 -12L 27 -10L 28 -2L 29 -3L 30 1L 31 4L 32 14L 33 19L 34 26L 35 30L 35 31L 36 27L 37 32L 38 32L 39 37L 40 38L 41 43L 42 47L 43 51L 43 51L 44 51L 45 50L 46 52L 47 50L 48 39L 49 43L 50 50L 50 51L 51 46L 52 45L 53 39L 54 33L 55 37L 56 39L 57 52L 58 54L 58 60L 59 58L 60 64L 61 67L 62 69L 63 64L 64 55L 65 61L 66 65L 66 70L 67 64L 68 64L 69 64L 70 68L 71 58L 72 70L 73 69L 74 69L 74 74L 75 73L 76 75L 77 73L 78 75L 79 77L 80 78L 81 80L 81 83L 82 80L 83 71L 84 82L 85 84L 86 85L 87 84L 88 87L 89 88L 89 88L 90 84L 91 54L 92 60L 93 50L 94 -8L 95 25L 96 51L 97 53L 97 65L 98 70L 99 71L 100 80L 101 81L 102 83L 103 85L 104 89L 105 90L 105 90L 106 91L 107 86L 108 85L 109 78L 110 67L 111 70L 112 81L 112 82L 113 86L 114 89L 115 92L 116 94L 117 95L 118 95L 119 95L 120 93L 120 93L 121 90L 122 82L 123 74L 124 -36L 125 31L 126 51L 127 59L 128 71L 128 75L 129 75L 130 72L 131 70L 132 78L 133 78L 134 86L 135 88L 136 90L 136 91L 137 77L 138 84L 139 88L 140 91L 141 93L 142 95L 143 96L 143 95L 144 91L 145 91L 146 95L 147 92L 148 94L 149 94L 150 98L 151 90L 151 89L 152 88L 153 95L 154 97L 155 97L 156 99L 157 99L 158 101L 159 101L 159 101L 160 100L 161 100L 162 101L 163 102L 164 103L 165 102L 166 -286L 167 -851L 167 -161L 168 -79L 169 -39L 170 -21L 171 -2L 172 19L 173 37L 174 44L 174 53L 175 60L 176 57L 177 63L 178 69L 179 71L 180 75L 181 79L 182 75L 182 80L 183 85L 184 85L 185 88L 186 89L 187 91L 188 91L 189 92L 190 93L 190 91L 191 90L 192 88L 193 92L 194 94L 195 93L 196 95L 197 93L 198 94L 198 91L 199 92L 200 90L 201 88L 202 74L 203 73L 204 45L 205 61L 205 68L 206 82L 207 85L 208 90L 209 92L 210 93L 211 94L 212 94L 213 88L 213 91L 214 96L 215 98L 216 99L 217 100L 218 100L 219 100L 220 97L 221 86L 221 86L 222 90L 223 90L 224 92L 225 93L 226 92L 227 89L 228 83L 229 92L 229 96L 230 99L 231 100L 232 101L 233 101L 234 102L 235 102L 236 102L 236 103L 237 104L 238 104L 239 104L 240 100L 241 98L 242 94L 243 89L 244 76L 244 71L 245 78L 246 78L 247 81L 248 91L 249 78L 250 74L 251 69L 252 81L 252 56L 253 87L 254 90L 255 88L 256 90L 257 96L 258 101L 259 102L 260 103L 260 103L 261 104L 262 105L 263 105L 264 106L 265 106L 266 107L 267 107L 267 107L 268 103L 269 44L 270 29L 271 28L 272 -50L 273 23L 274 22L 275 -157L 275 51L 276 56L 277 66L 278 59L 279 61L 280 92L 281 94L 282 82L 283 94L 283 98L 284 100L 285 101L 286 98L 287 101L 288 102L 289 105L 290 105L 291 106L 291 106L 292 106L 293 106L 294 107L 295 107L 296 107L 297 107L 298 106L 298 77L 299 8L 300 30L 301 51L 302 50L 303 -531L 304 -106L 305 58L 306 56L 306 85L 307 95L 308 99L 309 102" stroke-width="1px" stroke="#63e72c" fill="transparent"/>
			<text x="3%" y="81.21440293621207" class="text">0.012</text>
			<line x1="0" y1="106.90631015313777" x2="100%" y2="106.90631015313777" stroke="rgba(117, 111, 111, 0.5)" />
		</svg>