<svg width="310" height="135" xmlns="http://www.w3.org/2000/svg" style="outline: 1px solid #ccc" >
			<style>
				.text { font: italic 10px sans-serif; fill: #756f6f; }
			</style>
			<path d="M 0 0 L 0 -3286L 1 -990L 2 -688L 4 -521L 5 -402L 6 -307L 7 -267L 9 -207L 10 -174L 11 -130L 12 -108L 14 -83L 15 -57L 16 -33L 17 -16L 19 -9L 20 2L 21 4L 22 12L 24 23L 25 33L 26 39L 27 44L 29 47L 30 50L 31 40L 32 38L 33 48L 35 56L 36 61L 37 63L 38 65L 40 68L 41 68L 42 68L 43 69L 45 71L 46 73L 47 74L 48 74L 50 75L 51 76L 52 77L 53 77L 55 77L 56 69L 57 36L 58 54L 60 12L 61 20L 62 45L 63 13L 64 64L 66 70L 67 73L 68 74L 69 75L 71 76L 72 76L 73 77L 74 78L 76 78L 77 78L 78 79L 79 79L 81 79L 82 77L 83 79L 84 80L 86 80L 87 80L 88 81L 89 81L 91 81L 92 81L 93 81L 94 81L 95 81L 97 82L 98 82L 99 83L 100 83L 102 83L 103 83L 104 83L 105 83L 107 84L 108 84L 109 83L 110 81L 112 83L 113 84L 114 84L 115 84L 117 84L 118 84L 119 83L 120 84L 122 84L 123 85L 124 85L 125 85L 126 85L 128 85L 129 86L 130 86L 131 86L 133 86L 134 85L 135 85L 136 86L 138 86L 139 85L 140 84L 141 85L 143 86L 144 86L 145 86L 146 86L 148 86L 149 87L 150 86L 151 85L 153 86L 154 84L 155 85L 156 86L 157 87L 159 86L 160 87L 161 86L 162 84L 164 77L 165 65L 166 66L 167 66L 169 78L 170 83L 171 85L 172 85L 174 86L 175 86L 176 86L 177 86L 179 87L 180 87L 181 87L 182 87L 184 87L 185 87L 186 87L 187 87L 188 87L 190 87L 191 87L 192 88L 193 88L 195 88L 196 88L 197 88L 198 86L 200 75L 201 80L 202 80L 203 80L 205 77L 206 83L 207 85L 208 86L 210 87L 211 87L 212 87L 213 87L 215 87L 216 88L 217 88L 218 88L 219 88L 221 88L 222 88L 223 88L 224 88L 226 88L 227 87L 228 88L 229 88L 231 88L 232 88L 233 88L 234 87L 236 86L 237 87L 238 85L 239 87L 241 88L 242 88L 243 88L 244 88L 246 88L 247 88L 248 88L 249 88L 250 88L 252 88L 253 88L 254 89L 255 89L 257 89L 258 89L 259 89L 260 89L 262 89L 263 89L 264 89L 265 89L 267 89L 268 89L 269 89L 270 89L 272 89L 273 89L 274 89L 275 89L 277 89L 278 89L 279 89L 280 89L 281 89L 283 89L 284 89L 285 89L 286 89L 288 87L 289 83L 290 79L 291 49L 293 62L 294 81L 295 85L 296 86L 298 87L 299 87L 300 87L 301 87L 303 88L 304 88L 305 88L 306 88L 308 88L 309 88" stroke-width="1px" stroke="#63e72c" fill="transparent"/>
			<text x="3%" y="70.42110523212294" class="text">0.011</text>
			<line x1="0" y1="89.13366649375922" x2="100%" y2="89.13366649375922" stroke="rgba(117, 111, 111, 0.5)" />
		</svg>