<svg width="310" height="135" xmlns="http://www.w3.org/2000/svg" style="outline: 1px solid #ccc" >
			<style>
				.text { font: italic 10px sans-serif; fill: #756f6f; }
			</style>
			<path d="M 0 0 L 0 -5624L 1 -663L 1 -464L 2 -399L 2 -330L 3 -256L 3 -198L 4 -172L 4 -144L 5 -119L 5 -106L 6 -85L 6 -82L 7 -67L 7 -62L 8 -48L 8 -40L 9 -30L 9 -32L 10 -19L 10 -19L 11 -9L 11 -32L 12 -3L 12 -1L 13 9L 13 6L 14 13L 14 16L 15 21L 16 29L 16 27L 17 31L 17 34L 18 35L 18 43L 19 48L 19 51L 20 52L 20 53L 21 54L 21 56L 22 59L 22 59L 23 58L 23 61L 24 61L 24 63L 25 62L 25 59L 26 58L 26 63L 27 66L 27 65L 28 70L 28 70L 29 69L 29 70L 30 69L 30 70L 31 70L 32 71L 32 75L 33 76L 33 77L 34 72L 34 75L 35 78L 35 79L 36 81L 36 83L 37 80L 37 78L 38 69L 38 73L 39 72L 39 79L 40 79L 40 81L 41 79L 41 80L 42 82L 42 84L 43 85L 43 86L 44 87L 44 88L 45 87L 45 80L 46 40L 47 -5L 47 20L 48 37L 48 59L 49 59L 49 73L 50 78L 50 79L 51 81L 51 84L 52 84L 52 85L 53 86L 53 86L 54 85L 54 87L 55 86L 55 87L 56 89L 56 88L 57 86L 57 88L 58 88L 58 89L 59 89L 59 89L 60 89L 60 89L 61 87L 61 85L 62 89L 63 90L 63 88L 64 86L 64 89L 65 88L 65 84L 66 59L 66 16L 67 -7L 67 15L 68 29L 68 49L 69 56L 69 67L 70 72L 70 79L 71 81L 71 83L 72 86L 72 87L 73 88L 73 89L 74 89L 74 91L 75 92L 75 91L 76 91L 76 88L 77 88L 78 77L 78 82L 79 87L 79 89L 80 89L 80 86L 81 86L 81 88L 82 87L 82 83L 83 86L 83 79L 84 81L 84 76L 85 70L 85 77L 86 80L 86 80L 87 84L 87 88L 88 88L 88 91L 89 91L 89 91L 90 93L 90 94L 91 95L 91 94L 92 94L 92 94L 93 90L 94 80L 94 48L 95 17L 95 50L 96 70L 96 78L 97 81L 97 82L 98 85L 98 89L 99 90L 99 92L 100 94L 100 94L 101 95L 101 95L 102 95L 102 96L 103 95L 103 95L 104 95L 104 95L 105 94L 105 91L 106 70L 106 46L 107 52L 107 52L 108 69L 109 77L 109 82L 110 86L 110 88L 111 88L 111 89L 112 88L 112 91L 113 91L 113 93L 114 93L 114 95L 115 94L 115 96L 116 96L 116 96L 117 96L 117 95L 118 91L 118 90L 119 80L 119 81L 120 83L 120 77L 121 76L 121 32L 122 -602L 122 -484L 123 -79L 123 -78L 124 -18L 125 -3L 125 46L 126 50L 126 58L 127 73L 127 76L 128 71L 128 81L 129 83L 129 84L 130 86L 130 88L 131 87L 131 89L 132 89L 132 91L 133 90L 133 90L 134 90L 134 90L 135 87L 135 84L 136 81L 136 71L 137 71L 137 71L 138 71L 138 83L 139 87L 140 89L 140 91L 141 91L 141 93L 142 93L 142 95L 143 94L 143 94L 144 95L 144 95L 145 96L 145 96L 146 94L 146 94L 147 91L 147 84L 148 70L 148 57L 149 2L 149 63L 150 -290L 150 66L 151 73L 151 75L 152 80L 152 81L 153 87L 153 89L 154 89L 154 92L 155 94L 156 95L 156 96L 157 96L 157 97L 158 97L 158 98L 159 97L 159 95L 160 93L 160 81L 161 43L 161 12L 162 12L 162 27L 163 34L 163 55L 164 70L 164 71L 165 79L 165 86L 166 90L 166 91L 167 92L 167 94L 168 95L 168 96L 169 96L 169 94L 170 93L 171 94L 171 94L 172 94L 172 95L 173 95L 173 95L 174 91L 174 89L 175 84L 175 68L 176 43L 176 45L 177 59L 177 73L 178 79L 178 85L 179 87L 179 89L 180 91L 180 93L 181 94L 181 95L 182 95L 182 96L 183 97L 183 97L 184 96L 184 96L 185 97L 185 97L 186 97L 187 96L 187 90L 188 72L 188 70L 189 81L 189 77L 190 80L 190 83L 191 92L 191 94L 192 94L 192 94L 193 94L 193 95L 194 96L 194 96L 195 95L 195 96L 196 97L 196 97L 197 98L 197 98L 198 97L 198 96L 199 95L 199 93L 200 91L 200 84L 201 24L 202 -2L 202 -53L 203 21L 203 -318L 204 62L 204 72L 205 76L 205 85L 206 89L 206 92L 207 94L 207 94L 208 94L 208 95L 209 96L 209 97L 210 97L 210 98L 211 98L 211 98L 212 97L 212 91L 213 73L 213 79L 214 74L 214 74L 215 68L 215 78L 216 84L 216 87L 217 85L 218 93L 218 95L 219 97L 219 97L 220 98L 220 99L 221 98L 221 99L 222 99L 222 98L 223 92L 223 76L 224 69L 224 69L 225 65L 225 80L 226 86L 226 90L 227 91L 227 95L 228 95L 228 97L 229 97L 229 97L 230 98L 230 98L 231 99L 231 99L 232 100L 233 100L 233 100L 234 100L 234 100L 235 100L 235 99L 236 97L 236 61L 237 -145L 237 -1438L 238 -4923L 238 -150L 239 30L 239 14L 240 46L 240 57L 241 73L 241 61L 242 82L 242 86L 243 88L 243 89L 244 90L 244 92L 245 93L 245 93L 246 94L 246 94L 247 95L 247 96L 248 96L 249 96L 249 97L 250 98L 250 98L 251 98L 251 98L 252 97L 252 93L 253 41L 253 -1L 254 -31L 254 21L 255 42L 255 54L 256 57L 256 68L 257 70L 257 74L 258 80L 258 81L 259 86L 259 87L 260 91L 260 91L 261 92L 261 93L 262 95L 262 95L 263 96L 264 96L 264 95L 265 95L 265 96L 266 96L 266 96L 267 95L 267 88L 268 83L 268 77L 269 76L 269 70L 270 75L 270 79L 271 77L 271 85L 272 91L 272 91L 273 88L 273 87L 274 91L 274 93L 275 94L 275 95L 276 96L 276 96L 277 96L 277 97L 278 98L 278 98L 279 97L 280 96L 280 97L 281 97L 281 98L 282 98L 282 96L 283 74L 283 -45L 284 -80L 284 0L 285 13L 285 34L 286 55L 286 67L 287 67L 287 72L 288 83L 288 83L 289 89L 289 91L 290 91L 290 92L 291 93L 291 93L 292 95L 292 96L 293 96L 293 96L 294 95L 295 94L 295 96L 296 96L 296 95L 297 90L 297 76L 298 69L 298 67L 299 1L 299 45L 300 21L 300 29L 301 42L 301 72L 302 84L 302 84L 303 85L 303 86L 304 90L 304 91L 305 94L 305 94L 306 94L 306 95L 307 96L 307 95L 308 96L 308 96L 309 95L 309 95" stroke-width="1px" stroke="#63e72c" fill="transparent"/>
			<text x="3%" y="75.82117569289143" class="text">0.0121</text>
			<line x1="0" y1="100.00467534307973" x2="100%" y2="100.00467534307973" stroke="rgba(117, 111, 111, 0.5)" />
		</svg>