<svg width="310" height="135" xmlns="http://www.w3.org/2000/svg" style="outline: 1px solid #ccc" >
			<style>
				.text { font: italic 10px sans-serif; fill: #756f6f; }
			</style>
			<path d="M 0 0 L 0 -9346L 0 -628L 1 -546L 1 -361L 2 -310L 2 -272L 2 -249L 3 -206L 3 -195L 3 -198L 4 -161L 4 -134L 5 -118L 5 -105L 5 -94L 6 -84L 6 -74L 7 -65L 7 -60L 7 -52L 8 -47L 8 -46L 9 -42L 9 -34L 9 -27L 10 -26L 10 -20L 10 -19L 11 -17L 11 -12L 12 -7L 12 -1L 12 0L 13 -7L 13 0L 14 3L 14 -1L 14 -3L 15 -1L 15 7L 16 9L 16 15L 16 20L 17 23L 17 24L 17 26L 18 27L 18 24L 19 31L 19 32L 19 35L 20 34L 20 33L 21 27L 21 26L 21 33L 22 36L 22 39L 22 43L 23 41L 23 40L 24 37L 24 35L 24 46L 25 50L 25 52L 26 52L 26 54L 26 55L 27 57L 27 60L 28 57L 28 53L 28 44L 29 45L 29 50L 29 46L 30 55L 30 56L 31 58L 31 60L 31 66L 32 66L 32 63L 33 62L 33 60L 33 61L 34 61L 34 64L 34 68L 35 65L 35 60L 36 54L 36 60L 36 64L 37 63L 37 66L 38 70L 38 67L 38 70L 39 71L 39 68L 40 72L 40 74L 40 66L 41 66L 41 65L 41 68L 42 73L 42 75L 43 79L 43 80L 43 80L 44 80L 44 81L 45 81L 45 82L 45 76L 46 67L 46 63L 47 55L 47 57L 47 59L 48 68L 48 69L 48 77L 49 77L 49 80L 50 82L 50 84L 50 85L 51 84L 51 84L 52 82L 52 83L 52 83L 53 81L 53 81L 53 82L 54 80L 54 73L 55 74L 55 60L 55 58L 56 63L 56 73L 57 62L 57 65L 57 65L 58 71L 58 -5164L 59 -186L 59 -83L 59 56L 60 80L 60 80L 60 84L 61 85L 61 87L 62 87L 62 86L 62 86L 63 88L 63 88L 64 87L 64 83L 64 86L 65 84L 65 77L 65 61L 66 69L 66 70L 67 73L 67 79L 67 79L 68 82L 68 85L 69 85L 69 85L 69 86L 70 86L 70 87L 71 89L 71 91L 71 88L 72 84L 72 78L 72 80L 73 80L 73 82L 74 76L 74 66L 74 74L 75 79L 75 78L 76 80L 76 83L 76 86L 77 88L 77 87L 78 87L 78 90L 78 90L 79 91L 79 92L 79 92L 80 90L 80 91L 81 92L 81 93L 81 91L 82 87L 82 81L 83 88L 83 78L 83 75L 84 46L 84 52L 84 66L 85 57L 85 78L 86 77L 86 83L 86 88L 87 89L 87 91L 88 93L 88 93L 88 92L 89 94L 89 91L 90 91L 90 91L 90 90L 91 88L 91 86L 91 84L 92 86L 92 86L 93 87L 93 89L 93 91L 94 92L 94 93L 95 92L 95 92L 95 91L 96 88L 96 60L 96 35L 97 35L 97 55L 98 62L 98 -193L 98 80L 99 84L 99 87L 100 87L 100 87L 100 88L 101 91L 101 92L 102 93L 102 93L 102 94L 103 95L 103 95L 103 95L 104 96L 104 95L 105 93L 105 82L 105 27L 106 -26L 106 35L 107 41L 107 58L 107 69L 108 74L 108 78L 109 80L 109 83L 109 87L 110 88L 110 90L 110 91L 111 93L 111 94L 112 94L 112 94L 112 94L 113 90L 113 90L 114 93L 114 93L 114 94L 115 93L 115 89L 115 90L 116 89L 116 87L 117 86L 117 73L 117 61L 118 69L 118 66L 119 73L 119 79L 119 83L 120 85L 120 88L 121 89L 121 92L 121 91L 122 89L 122 89L 122 87L 123 89L 123 91L 124 94L 124 93L 124 94L 125 95L 125 90L 126 79L 126 80L 126 80L 127 78L 127 74L 127 76L 128 81L 128 84L 129 90L 129 93L 129 92L 130 94L 130 94L 131 95L 131 91L 131 86L 132 87L 132 86L 133 91L 133 88L 133 89L 134 95L 134 96L 134 97L 135 96L 135 96L 136 93L 136 96L 136 96L 137 81L 137 -16L 138 -33L 138 31L 138 25L 139 -158L 139 -27L 140 -88L 140 70L 140 80L 141 85L 141 89L 141 91L 142 91L 142 94L 143 95L 143 96L 143 96L 144 96L 144 96L 145 97L 145 95L 145 95L 146 94L 146 89L 146 77L 147 69L 147 65L 148 24L 148 9L 148 44L 149 60L 149 67L 150 71L 150 72L 150 76L 151 79L 151 85L 152 87L 152 90L 152 91L 153 92L 153 92L 153 94L 154 95L 154 95L 155 95L 155 95L 155 96L 156 95L 156 95L 157 95L 157 92L 157 91L 158 87L 158 68L 158 65L 159 58L 159 58L 160 -130L 160 49L 160 11L 161 44L 161 60L 162 63L 162 70L 162 77L 163 84L 163 87L 164 89L 164 90L 164 92L 165 93L 165 95L 165 95L 166 96L 166 96L 167 97L 167 97L 167 97L 168 97L 168 97L 169 97L 169 95L 169 82L 170 59L 170 70L 171 75L 171 68L 171 76L 172 73L 172 73L 172 74L 173 80L 173 85L 174 86L 174 76L 174 56L 175 80L 175 82L 176 79L 176 87L 176 90L 177 88L 177 90L 177 88L 178 85L 178 83L 179 79L 179 87L 179 87L 180 87L 180 92L 181 94L 181 94L 181 96L 182 97L 182 98L 183 98L 183 98L 183 99L 184 99L 184 98L 184 97L 185 92L 185 56L 186 -22L 186 -75L 186 12L 187 25L 187 45L 188 54L 188 45L 188 57L 189 68L 189 73L 189 76L 190 61L 190 78L 191 82L 191 84L 191 85L 192 89L 192 90L 193 92L 193 92L 193 90L 194 90L 194 93L 195 92L 195 90L 195 89L 196 86L 196 76L 196 64L 197 68L 197 68L 198 66L 198 74L 198 74L 199 79L 199 82L 200 86L 200 86L 200 89L 201 91L 201 92L 202 92L 202 89L 202 87L 203 90L 203 91L 203 93L 204 93L 204 94L 205 95L 205 95L 205 95L 206 94L 206 94L 207 92L 207 89L 207 85L 208 81L 208 83L 208 73L 209 51L 209 59L 210 68L 210 54L 210 36L 211 45L 211 45L 212 50L 212 62L 212 69L 213 67L 213 70L 214 75L 214 79L 214 79L 215 84L 215 88L 215 90L 216 89L 216 91L 217 91L 217 93L 217 94L 218 94L 218 96L 219 96L 219 95L 219 95L 220 94L 220 93L 220 88L 221 79L 221 80L 222 71L 222 67L 222 69L 223 66L 223 72L 224 72L 224 70L 224 78L 225 78L 225 71L 226 82L 226 86L 226 87L 227 89L 227 90L 227 91L 228 93L 228 93L 229 94L 229 95L 229 95L 230 95L 230 94L 231 96L 231 96L 231 96L 232 97L 232 96L 233 77L 233 -82L 233 -99L 234 -741L 234 -118L 234 -94L 235 -177L 235 -1009L 236 18L 236 52L 236 59L 237 61L 237 68L 238 76L 238 79L 238 82L 239 82L 239 81L 239 85L 240 87L 240 89L 241 90L 241 90L 241 91L 242 88L 242 91L 243 91L 243 91L 243 90L 244 90L 244 90L 245 84L 245 78L 245 84L 246 83L 246 80L 246 87L 247 80L 247 81L 248 85L 248 83L 248 87L 249 84L 249 87L 250 60L 250 90L 250 90L 251 90L 251 89L 251 91L 252 86L 252 86L 253 78L 253 81L 253 61L 254 57L 254 52L 255 68L 255 62L 255 71L 256 73L 256 80L 257 83L 257 84L 257 82L 258 82L 258 82L 258 83L 259 86L 259 89L 260 90L 260 92L 260 93L 261 95L 261 94L 262 95L 262 96L 262 97L 263 95L 263 93L 264 92L 264 93L 264 90L 265 88L 265 84L 265 85L 266 82L 266 70L 267 20L 267 44L 267 39L 268 55L 268 58L 269 7L 269 63L 269 72L 270 71L 270 70L 270 74L 271 83L 271 86L 272 87L 272 90L 272 92L 273 93L 273 95L 274 96L 274 96L 274 96L 275 96L 275 95L 276 94L 276 93L 276 89L 277 88L 277 78L 277 73L 278 59L 278 65L 279 79L 279 84L 279 84L 280 81L 280 75L 281 78L 281 82L 281 83L 282 81L 282 82L 282 80L 283 79L 283 79L 284 80L 284 86L 284 83L 285 91L 285 90L 286 91L 286 92L 286 92L 287 93L 287 92L 288 94L 288 96L 288 95L 289 95L 289 95L 289 93L 290 89L 290 91L 291 91L 291 91L 291 87L 292 85L 292 89L 293 75L 293 90L 293 91L 294 88L 294 78L 295 77L 295 74L 295 66L 296 52L 296 -42L 296 30L 297 52L 297 11L 298 62L 298 67L 298 75L 299 80L 299 81L 300 85L 300 86L 300 86L 301 88L 301 91L 301 92L 302 93L 302 94L 303 96L 303 96L 303 96L 304 96L 304 96L 305 96L 305 94L 305 92L 306 92L 306 90L 307 91L 307 88L 307 78L 308 76L 308 80L 308 80L 309 80L 309 80L 310 82" stroke-width="1px" stroke="#63e72c" fill="transparent"/>
			<text x="3%" y="65.57295634709969" class="text">0.0131</text>
			<line x1="0" y1="98.64039535078552" x2="100%" y2="98.64039535078552" stroke="rgba(117, 111, 111, 0.5)" />
		</svg>