<svg width="150" height="40" xmlns="http://www.w3.org/2000/svg" style="outline: 1px solid #ccc" >
			<path d="M 0 0 L 0 28.438638623745724L 3.75 38.98254809967922L 7.5 39.40057558556272L 11.25 39.561409971009674L 15 39.65767609169559L 18.75 39.680100918964875L 22.5 39.714313384291735L 26.25 39.65355950771217L 30 39.72914496794492L 33.75 39.74022873042702L 37.5 39.456453456899155L 41.25 39.72579711910424L 45 39.740138561224434L 48.75 39.74280331820388L 52.5 39.6788367493872L 56.25 39.739572867978204L 60 39.74738259657988L 63.75 39.69143134873487L 67.5 39.723441135141535L 71.25 39.747115354595046L 75 39.75176403586712L 78.75 39.72511614822286L 82.5 39.7454809267081L 86.25 39.75039227666269L 90 39.739229310907824L 93.75 39.75545956377358L 97.5 39.740684865829934L 101.25 39.714516540106594L 105 39.75015842456876L 108.75 39.75363684672663L 112.5 39.756253041760836L 116.25 39.62231051333623L 120 39.74822507743068L 123.75 39.75318749988104L 127.5 39.65517689938493L 131.25 39.75174879145863L 135 39.7520550939999L 138.75 39.747673269660595L 142.5 39.6975227182879L 146.25 39.75324727882578" stroke-width="2px" stroke="#63e72c" fill="transparent"/>
		</svg>