<svg width="310" height="135" xmlns="http://www.w3.org/2000/svg" style="outline: 1px solid #ccc" >
			<style>
				.text { font: italic 10px sans-serif; fill: #756f6f; }
			</style>
			<path d="M 0 0 L 0 -16306L 1 -385L 1 -318L 2 -268L 2 -243L 3 -234L 4 -221L 4 -202L 5 -182L 6 -175L 6 -172L 7 -146L 7 -134L 8 -119L 9 -110L 9 -102L 10 -93L 11 -81L 11 -76L 12 -69L 12 -70L 13 -63L 14 -57L 14 -65L 15 -58L 16 -53L 16 -54L 17 -50L 17 -45L 18 -36L 19 -26L 19 -27L 20 -20L 20 -19L 21 -10L 22 -7L 22 -1L 23 2L 24 6L 24 11L 25 12L 25 14L 26 16L 27 14L 27 7L 28 17L 29 17L 29 21L 30 27L 30 27L 31 32L 32 36L 32 40L 33 40L 33 35L 34 42L 35 46L 35 47L 36 51L 37 53L 37 52L 38 56L 38 48L 39 35L 40 40L 40 50L 41 52L 42 59L 42 55L 43 59L 43 65L 44 58L 45 65L 45 67L 46 60L 47 45L 47 57L 48 58L 48 61L 49 62L 50 67L 50 68L 51 44L 51 53L 52 69L 53 76L 53 78L 54 81L 55 83L 55 83L 56 83L 56 83L 57 85L 58 85L 58 88L 59 91L 60 93L 60 94L 61 93L 61 94L 62 93L 63 87L 63 -153L 64 -53L 64 -34L 65 -2L 66 39L 66 45L 67 52L 68 53L 68 73L 69 78L 69 78L 70 75L 71 71L 71 62L 72 59L 73 75L 73 82L 74 83L 74 87L 75 82L 76 90L 76 92L 77 95L 78 96L 78 97L 79 98L 79 99L 80 96L 81 88L 81 85L 82 94L 82 99L 83 101L 84 102L 84 103L 85 104L 86 104L 86 105L 87 106L 87 106L 88 105L 89 104L 89 86L 90 80L 91 -31L 91 51L 92 75L 92 88L 93 95L 94 99L 94 96L 95 100L 95 102L 96 104L 97 106L 97 106L 98 107L 99 107L 99 108L 100 106L 100 107L 101 108L 102 104L 102 105L 103 91L 104 43L 104 87L 105 94L 105 101L 106 103L 107 88L 107 85L 108 95L 109 104L 109 107L 110 108L 110 109L 111 110L 112 111L 112 111L 113 111L 113 112L 114 112L 115 112L 115 108L 116 102L 117 106L 117 109L 118 108L 118 106L 119 99L 120 97L 120 76L 121 15L 122 -86L 122 -181L 123 -32L 123 29L 124 55L 125 75L 125 86L 126 93L 126 96L 127 98L 128 100L 128 103L 129 105L 130 106L 130 107L 131 108L 131 109L 132 109L 133 109L 133 109L 134 110L 135 111L 135 111L 136 111L 136 111L 137 110L 138 106L 138 108L 139 111L 140 112L 140 112L 141 112L 141 112L 142 112L 143 113L 143 113L 144 113L 144 113L 145 114L 146 113L 146 113L 147 113L 148 108L 148 54L 149 79L 149 59L 150 80L 151 93L 151 99L 152 105L 153 108L 153 110L 154 111L 154 112L 155 113L 156 113L 156 113L 157 113L 157 113L 158 113L 159 113L 159 113L 160 112L 161 111L 161 65L 162 87L 162 102L 163 103L 164 107L 164 109L 165 109L 166 110L 166 112L 167 113L 167 114L 168 114L 169 114L 169 114L 170 114L 171 114L 171 114L 172 114L 172 112L 173 107L 174 87L 174 61L 175 63L 175 86L 176 38L 177 98L 177 105L 178 108L 179 110L 179 111L 180 112L 180 112L 181 113L 182 114L 182 114L 183 114L 184 114L 184 114L 185 114L 185 114L 186 114L 187 114L 187 114L 188 114L 188 114L 189 114L 190 114L 190 113L 191 108L 192 90L 192 53L 193 51L 193 42L 194 76L 195 88L 195 100L 196 105L 197 109L 197 110L 198 111L 198 112L 199 113L 200 113L 200 113L 201 114L 202 114L 202 114L 203 114L 203 114L 204 114L 205 114L 205 114L 206 113L 206 113L 207 113L 208 113L 208 112L 209 109L 210 86L 210 55L 211 81L 211 85L 212 93L 213 99L 213 104L 214 107L 215 108L 215 110L 216 111L 216 113L 217 113L 218 113L 218 114L 219 114L 219 114L 220 114L 221 114L 221 114L 222 114L 223 114L 223 114L 224 114L 224 113L 225 113L 226 112L 226 111L 227 109L 228 106L 228 83L 229 -9L 229 -3L 230 69L 231 85L 231 97L 232 104L 233 107L 233 109L 234 111L 234 112L 235 112L 236 113L 236 113L 237 113L 237 113L 238 114L 239 114L 239 114L 240 114L 241 114L 241 114L 242 114L 242 114L 243 114L 244 113L 244 112L 245 110L 246 110L 246 108L 247 109L 247 110L 248 110L 249 110L 249 111L 250 111L 250 111L 251 112L 252 111L 252 110L 253 112L 254 113L 254 113L 255 114L 255 114L 256 114L 257 114L 257 112L 258 113L 259 114L 259 112L 260 104L 260 93L 261 75L 262 65L 262 91L 263 100L 264 106L 264 109L 265 110L 265 111L 266 110L 267 113L 267 113L 268 114L 268 114L 269 114L 270 114L 270 114L 271 114L 272 114L 272 114L 273 115L 273 115L 274 115L 275 115L 275 115L 276 115L 277 115L 277 115L 278 114L 278 108L 279 52L 280 25L 280 54L 281 65L 281 74L 282 89L 283 100L 283 104L 284 106L 285 109L 285 110L 286 112L 286 113L 287 113L 288 113L 288 114L 289 114L 290 114L 290 114L 291 114L 291 114L 292 114L 293 114L 293 114L 294 114L 295 114L 295 114L 296 113L 296 112L 297 111L 298 111L 298 112L 299 112L 299 113L 300 113L 301 114L 301 114L 302 114L 303 115L 303 115L 304 115L 304 115L 305 115L 306 115L 306 115L 307 115L 308 115L 308 115L 309 115L 309 114" stroke-width="1px" stroke="#63e72c" fill="transparent"/>
			<text x="3%" y="91.54337083380824" class="text">0.012</text>
			<line x1="0" y1="114.96950322129555" x2="100%" y2="114.96950322129555" stroke="rgba(117, 111, 111, 0.5)" />
		</svg>