<svg width="310" height="135" xmlns="http://www.w3.org/2000/svg" style="outline: 1px solid #ccc" >
			<style>
				.text { font: italic 10px sans-serif; fill: #756f6f; }
			</style>
			<path d="M 0 0 L 0 -9957L 1 -418L 2 -237L 4 -151L 5 -113L 6 -100L 7 -71L 9 -60L 10 -50L 11 -45L 12 -45L 14 -34L 15 -24L 16 -17L 17 -6L 19 -7L 20 4L 21 11L 22 15L 24 18L 25 18L 26 24L 27 25L 29 25L 30 32L 31 33L 32 40L 33 48L 35 44L 36 47L 37 53L 38 57L 40 59L 41 59L 42 58L 43 67L 45 62L 46 73L 47 78L 48 79L 50 74L 51 77L 52 68L 53 70L 55 66L 56 73L 57 73L 58 81L 60 79L 61 62L 62 76L 63 86L 64 78L 66 83L 67 89L 68 82L 69 90L 71 91L 72 85L 73 91L 74 94L 76 92L 77 95L 78 96L 79 93L 81 90L 82 95L 83 95L 84 96L 86 98L 87 98L 88 99L 89 95L 91 99L 92 93L 93 94L 94 96L 95 98L 97 96L 98 102L 99 95L 100 100L 102 101L 103 104L 104 87L 105 94L 107 104L 108 101L 109 101L 110 93L 112 99L 113 105L 114 100L 115 99L 117 101L 118 102L 119 101L 120 102L 122 96L 123 88L 124 85L 125 98L 126 102L 128 104L 129 103L 130 105L 131 104L 133 106L 134 106L 135 104L 136 105L 138 106L 139 105L 140 104L 141 102L 143 105L 144 106L 145 106L 146 108L 148 105L 149 107L 150 109L 151 109L 153 108L 154 106L 155 105L 156 108L 157 105L 159 106L 160 108L 161 108L 162 105L 164 105L 165 106L 166 109L 167 109L 169 110L 170 106L 171 111L 172 110L 174 110L 175 108L 176 108L 177 111L 179 109L 180 110L 181 109L 182 108L 184 108L 185 107L 186 104L 187 103L 188 108L 190 109L 191 109L 192 105L 193 101L 195 106L 196 108L 197 110L 198 108L 200 108L 201 108L 202 108L 203 111L 205 111L 206 110L 207 110L 208 109L 210 109L 211 110L 212 106L 213 104L 215 107L 216 108L 217 104L 218 111L 219 111L 221 111L 222 111L 223 112L 224 111L 226 111L 227 112L 228 112L 229 112L 231 110L 232 111L 233 111L 234 110L 236 110L 237 110L 238 111L 239 111L 241 109L 242 107L 243 104L 244 102L 246 91L 247 97L 248 104L 249 96L 250 107L 252 106L 253 104L 254 99L 255 102L 257 104L 258 106L 259 109L 260 110L 262 110L 263 106L 264 110L 265 110L 267 110L 268 112L 269 112L 270 111L 272 109L 273 108L 274 112L 275 112L 277 111L 278 110L 279 111L 280 109L 281 104L 283 105L 284 110L 285 111L 286 104L 288 94L 289 104L 290 105L 291 109L 293 108L 294 104L 295 109L 296 110L 298 107L 299 102L 300 107L 301 111L 303 112L 304 111L 305 113L 306 112L 308 114L 309 112" stroke-width="1px" stroke="#63e72c" fill="transparent"/>
			<text x="3%" y="89.96051542412444" class="text">0.013</text>
			<line x1="0" y1="113.5487790379346" x2="100%" y2="113.5487790379346" stroke="rgba(117, 111, 111, 0.5)" />
		</svg>