<svg width="310" height="135" xmlns="http://www.w3.org/2000/svg" style="outline: 1px solid #ccc" >
			<style>
				.text { font: italic 10px sans-serif; fill: #756f6f; }
			</style>
			<path d="M 0 0 L 0 -4465L 0 -460L 1 -301L 1 -198L 2 -140L 2 -103L 2 -75L 3 -56L 3 -37L 3 -27L 4 -22L 4 -15L 5 0L 5 4L 5 17L 6 20L 6 31L 7 37L 7 41L 7 49L 8 51L 8 57L 9 61L 9 62L 9 65L 10 64L 10 69L 10 70L 11 74L 11 77L 12 81L 12 83L 12 85L 13 77L 13 48L 14 52L 14 54L 14 64L 15 72L 15 81L 16 84L 16 88L 16 89L 17 93L 17 94L 17 95L 18 96L 18 96L 19 97L 19 98L 19 96L 20 73L 20 -154L 21 -40L 21 2L 21 31L 22 49L 22 59L 22 71L 23 75L 23 79L 24 81L 24 87L 24 90L 25 93L 25 94L 26 94L 26 95L 26 95L 27 97L 27 98L 28 98L 28 98L 28 98L 29 97L 29 93L 29 66L 30 -8L 30 -50L 31 -21L 31 31L 31 60L 32 69L 32 79L 33 84L 33 88L 33 91L 34 95L 34 96L 34 98L 35 99L 35 100L 36 100L 36 100L 36 101L 37 97L 37 85L 38 50L 38 47L 38 58L 39 73L 39 68L 40 83L 40 92L 40 96L 41 98L 41 100L 41 99L 42 102L 42 102L 43 103L 43 103L 43 104L 44 104L 44 104L 45 103L 45 98L 45 -32L 46 -156L 46 6L 47 18L 47 42L 47 64L 48 73L 48 80L 48 85L 49 89L 49 91L 50 92L 50 95L 50 96L 51 98L 51 100L 52 100L 52 100L 52 101L 53 102L 53 103L 53 103L 54 102L 54 103L 55 102L 55 97L 55 53L 56 -57L 56 21L 57 46L 57 54L 57 68L 58 81L 58 87L 59 93L 59 95L 59 97L 60 99L 60 100L 60 101L 61 102L 61 102L 62 103L 62 103L 62 103L 63 103L 63 102L 64 94L 64 68L 64 58L 65 -93L 65 -124L 65 1L 66 42L 66 60L 67 75L 67 80L 67 89L 68 92L 68 92L 69 95L 69 97L 69 98L 70 100L 70 100L 71 101L 71 102L 71 103L 72 103L 72 103L 72 103L 73 104L 73 104L 74 104L 74 104L 74 102L 75 45L 75 -119L 76 -8L 76 19L 76 45L 77 67L 77 77L 78 82L 78 88L 78 91L 79 94L 79 96L 79 98L 80 99L 80 101L 81 102L 81 102L 81 103L 82 103L 82 104L 83 104L 83 104L 83 104L 84 103L 84 104L 84 103L 85 101L 85 89L 86 21L 86 -262L 86 -27L 87 42L 87 61L 88 67L 88 75L 88 84L 89 90L 89 92L 90 93L 90 97L 90 99L 91 100L 91 101L 91 102L 92 102L 92 102L 93 103L 93 103L 93 103L 94 104L 94 104L 95 104L 95 103L 95 102L 96 96L 96 73L 96 60L 97 58L 97 63L 98 65L 98 68L 98 81L 99 85L 99 92L 100 96L 100 99L 100 101L 101 102L 101 103L 102 104L 102 104L 102 105L 103 105L 103 105L 103 105L 104 105L 104 105L 105 105L 105 105L 105 100L 106 77L 106 -15L 107 -37L 107 28L 107 58L 108 70L 108 79L 109 84L 109 90L 109 93L 110 94L 110 97L 110 99L 111 100L 111 100L 112 101L 112 99L 112 101L 113 102L 113 102L 114 103L 114 103L 114 103L 115 103L 115 103L 115 103L 116 104L 116 104L 117 104L 117 104L 117 104L 118 103L 118 101L 119 92L 119 68L 119 60L 120 65L 120 67L 121 44L 121 57L 121 65L 122 72L 122 64L 122 79L 123 87L 123 93L 124 94L 124 97L 124 99L 125 101L 125 102L 126 102L 126 102L 126 103L 127 104L 127 103L 127 103L 128 104L 128 104L 129 105L 129 105L 129 105L 130 106L 130 105L 131 105L 131 105L 131 103L 132 91L 132 41L 133 -53L 133 15L 133 48L 134 67L 134 78L 134 76L 135 82L 135 89L 136 92L 136 95L 136 97L 137 99L 137 100L 138 101L 138 102L 138 103L 139 104L 139 104L 140 104L 140 105L 140 105L 141 104L 141 104L 141 102L 142 100L 142 99L 143 98L 143 95L 143 97L 144 96L 144 99L 145 99L 145 95L 145 96L 146 97L 146 98L 146 99L 147 102L 147 102L 148 101L 148 102L 148 104L 149 105L 149 105L 150 105L 150 106L 150 106L 151 106L 151 106L 152 106L 152 106L 152 106L 153 106L 153 106L 153 107L 154 107L 154 107L 155 106L 155 31L 155 -186L 156 -147L 156 -16L 157 11L 157 46L 157 62L 158 76L 158 84L 158 87L 159 90L 159 93L 160 95L 160 97L 160 99L 161 100L 161 101L 162 102L 162 103L 162 104L 163 104L 163 105L 164 105L 164 105L 164 105L 165 105L 165 104L 165 95L 166 84L 166 83L 167 87L 167 94L 167 96L 168 99L 168 101L 169 102L 169 103L 169 104L 170 105L 170 105L 171 105L 171 105L 171 106L 172 106L 172 106L 172 106L 173 105L 173 105L 174 101L 174 75L 174 32L 175 41L 175 60L 176 63L 176 72L 176 80L 177 89L 177 91L 177 96L 178 99L 178 101L 179 102L 179 103L 179 104L 180 104L 180 105L 181 104L 181 104L 181 104L 182 104L 182 103L 183 103L 183 103L 183 104L 184 104L 184 105L 184 105L 185 105L 185 105L 186 106L 186 106L 186 106L 187 106L 187 106L 188 106L 188 102L 188 56L 189 -17L 189 7L 189 35L 190 51L 190 66L 191 72L 191 82L 191 87L 192 93L 192 97L 193 99L 193 100L 193 101L 194 102L 194 103L 195 103L 195 103L 195 103L 196 104L 196 104L 196 105L 197 105L 197 105L 198 104L 198 104L 198 102L 199 98L 199 87L 200 88L 200 88L 200 89L 201 93L 201 97L 202 99L 202 101L 202 103L 203 104L 203 104L 203 105L 204 105L 204 106L 205 106L 205 106L 205 106L 206 106L 206 106L 207 106L 207 106L 207 106L 208 105L 208 105L 208 93L 209 62L 209 -136L 210 -70L 210 7L 210 50L 211 64L 211 72L 212 80L 212 83L 212 89L 213 94L 213 97L 214 98L 214 100L 214 102L 215 102L 215 103L 215 103L 216 103L 216 104L 217 104L 217 104L 217 105L 218 105L 218 105L 219 106L 219 106L 219 106L 220 106L 220 106L 220 104L 221 100L 221 85L 222 63L 222 63L 222 79L 223 85L 223 80L 224 90L 224 90L 224 95L 225 98L 225 98L 226 101L 226 103L 226 103L 227 104L 227 104L 227 104L 228 103L 228 104L 229 105L 229 105L 229 105L 230 105L 230 105L 231 105L 231 105L 231 105L 232 106L 232 106L 233 106L 233 105L 233 99L 234 64L 234 39L 234 60L 235 74L 235 76L 236 83L 236 87L 236 91L 237 94L 237 99L 238 101L 238 102L 238 103L 239 104L 239 104L 239 105L 240 105L 240 105L 241 106L 241 106L 241 106L 242 106L 242 106L 243 106L 243 106L 243 104L 244 102L 244 97L 245 90L 245 89L 245 91L 246 92L 246 91L 246 97L 247 98L 247 100L 248 100L 248 22L 248 70L 249 73L 249 68L 250 78L 250 86L 250 90L 251 93L 251 98L 251 100L 252 101L 252 100L 253 102L 253 103L 253 104L 254 104L 254 104L 255 105L 255 105L 255 105L 256 105L 256 105L 257 106L 257 106L 257 106L 258 106L 258 106L 258 106L 259 106L 259 105L 260 103L 260 97L 260 95L 261 95L 261 90L 262 90L 262 95L 262 98L 263 95L 263 91L 264 99L 264 97L 264 95L 265 99L 265 102L 265 104L 266 104L 266 105L 267 106L 267 106L 267 106L 268 106L 268 106L 269 106L 269 106L 269 106L 270 106L 270 106L 270 106L 271 106L 271 105L 272 98L 272 -17L 272 -168L 273 -521L 273 -23570L 274 -433L 274 -87L 274 15L 275 -663L 275 25L 276 69L 276 79L 276 83L 277 91L 277 93L 277 96L 278 97L 278 98L 279 100L 279 101L 279 102L 280 102L 280 102L 281 102L 281 103L 281 102L 282 103L 282 103L 282 103L 283 104L 283 103L 284 104L 284 104L 284 104L 285 104L 285 101L 286 102L 286 99L 286 81L 287 48L 287 19L 288 64L 288 67L 288 80L 289 92L 289 93L 289 97L 290 97L 290 97L 291 100L 291 101L 291 103L 292 103L 292 103L 293 104L 293 105L 293 105L 294 105L 294 105L 295 106L 295 106L 295 106L 296 106L 296 106L 296 106L 297 106L 297 105L 298 89L 298 61L 298 56L 299 73L 299 86L 300 87L 300 92L 300 96L 301 99L 301 101L 301 102L 302 103L 302 104L 303 104L 303 105L 303 105L 304 105L 304 105L 305 105L 305 105L 305 106L 306 106L 306 106L 307 106L 307 106L 307 105L 308 104L 308 103L 308 94L 309 95L 309 77L 310 73" stroke-width="1px" stroke="#63e72c" fill="transparent"/>
			<text x="3%" y="58.275197208062856" class="text">0.012</text>
			<line x1="0" y1="106.53761111200708" x2="100%" y2="106.53761111200708" stroke="rgba(117, 111, 111, 0.5)" />
		</svg>