<svg width="310" height="135" xmlns="http://www.w3.org/2000/svg" style="outline: 1px solid #ccc" >
			<style>
				.text { font: italic 10px sans-serif; fill: #756f6f; }
			</style>
			<path d="M 0 0 L 0 -11376L 1 -314L 2 -257L 3 -183L 4 -135L 4 -109L 5 -87L 6 -65L 7 -54L 8 -66L 9 -42L 10 -18L 11 -7L 12 3L 12 13L 13 20L 14 26L 15 28L 16 37L 17 40L 18 37L 19 40L 19 46L 20 44L 21 48L 22 54L 23 57L 24 60L 25 65L 26 62L 27 63L 27 65L 28 66L 29 74L 30 75L 31 75L 32 74L 33 78L 34 81L 35 84L 35 84L 36 85L 37 86L 38 85L 39 81L 40 83L 41 77L 42 75L 43 79L 43 85L 44 86L 45 88L 46 91L 47 93L 48 93L 49 93L 50 94L 50 94L 51 96L 52 96L 53 95L 54 95L 55 94L 56 95L 57 94L 58 93L 58 86L 59 89L 60 73L 61 91L 62 89L 63 94L 64 97L 65 99L 66 101L 66 101L 67 102L 68 101L 69 101L 70 101L 71 101L 72 99L 73 19L 74 -108L 74 7L 75 55L 76 74L 77 84L 78 91L 79 93L 80 97L 81 99L 81 101L 82 102L 83 102L 84 100L 85 101L 86 103L 87 102L 88 102L 89 102L 89 102L 90 100L 91 93L 92 73L 93 66L 94 63L 95 68L 96 80L 97 84L 97 90L 98 95L 99 96L 100 98L 101 99L 102 101L 103 103L 104 104L 105 105L 105 105L 106 104L 107 104L 108 104L 109 104L 110 105L 111 98L 112 88L 112 82L 113 80L 114 47L 115 61L 116 84L 117 90L 118 95L 119 98L 120 100L 120 101L 121 103L 122 104L 123 105L 124 105L 125 106L 126 106L 127 106L 128 107L 128 107L 129 105L 130 100L 131 88L 132 80L 133 70L 134 44L 135 53L 136 69L 136 84L 137 90L 138 96L 139 97L 140 100L 141 101L 142 102L 143 104L 143 105L 144 105L 145 106L 146 106L 147 106L 148 106L 149 107L 150 106L 151 105L 151 102L 152 100L 153 96L 154 77L 155 76L 156 76L 157 88L 158 96L 159 100L 159 103L 160 104L 161 105L 162 106L 163 107L 164 107L 165 107L 166 107L 167 107L 167 107L 168 107L 169 107L 170 107L 171 107L 172 104L 173 96L 174 76L 174 79L 175 56L 176 60L 177 86L 178 89L 179 90L 180 92L 181 94L 182 96L 182 99L 183 103L 184 103L 185 103L 186 105L 187 105L 188 106L 189 107L 190 107L 190 107L 191 107L 192 108L 193 107L 194 106L 195 98L 196 70L 197 57L 198 68L 198 76L 199 75L 200 82L 201 86L 202 87L 203 93L 204 97L 205 101L 205 103L 206 104L 207 105L 208 105L 209 106L 210 106L 211 107L 212 107L 213 107L 213 107L 214 107L 215 108L 216 108L 217 108L 218 108L 219 107L 220 102L 221 32L 221 30L 222 57L 223 73L 224 85L 225 94L 226 96L 227 100L 228 100L 229 102L 229 102L 230 103L 231 104L 232 105L 233 106L 234 106L 235 106L 236 107L 236 107L 237 107L 238 107L 239 108L 240 108L 241 108L 242 107L 243 106L 244 95L 244 72L 245 -88L 246 -49L 247 21L 248 52L 249 65L 250 77L 251 87L 252 92L 252 93L 253 95L 254 98L 255 100L 256 102L 257 103L 258 104L 259 105L 260 105L 260 106L 261 106L 262 106L 263 106L 264 107L 265 106L 266 103L 267 94L 267 81L 268 66L 269 -1042L 270 -327L 271 45L 272 54L 273 67L 274 80L 275 92L 275 95L 276 97L 277 99L 278 101L 279 102L 280 103L 281 104L 282 104L 283 105L 283 105L 284 105L 285 105L 286 105L 287 105L 288 106L 289 106L 290 98L 291 85L 291 83L 292 90L 293 84L 294 89L 295 94L 296 97L 297 101L 298 102L 298 102L 299 103L 300 103L 301 94L 302 95L 303 97L 304 102L 305 103L 306 105L 306 106L 307 106L 308 107L 309 107" stroke-width="1px" stroke="#63e72c" fill="transparent"/>
			<text x="3%" y="85.53305673515804" class="text">0.012</text>
			<line x1="0" y1="107.89013980955548" x2="100%" y2="107.89013980955548" stroke="rgba(117, 111, 111, 0.5)" />
		</svg>