<svg width="310" height="135" xmlns="http://www.w3.org/2000/svg" style="outline: 1px solid #ccc" >
			<style>
				.text { font: italic 10px sans-serif; fill: #756f6f; }
			</style>
			<path d="M 0 0 L 0 -3838L 1 -282L 2 -212L 3 -151L 4 -107L 4 -64L 5 -41L 6 -20L 7 -1L 8 12L 9 17L 10 24L 11 33L 12 43L 12 50L 13 56L 14 56L 15 60L 16 68L 17 73L 18 75L 19 77L 19 79L 20 82L 21 83L 22 82L 23 85L 24 85L 25 89L 26 91L 27 93L 27 93L 28 93L 29 94L 30 93L 31 93L 32 96L 33 97L 34 99L 35 99L 35 100L 36 101L 37 99L 38 97L 39 95L 40 96L 41 99L 42 100L 43 101L 43 102L 44 103L 45 103L 46 103L 47 103L 48 104L 49 103L 50 97L 50 101L 51 101L 52 101L 53 103L 54 100L 55 103L 56 105L 57 106L 58 106L 58 107L 59 107L 60 107L 61 107L 62 107L 63 107L 64 108L 65 108L 66 107L 66 104L 67 90L 68 0L 69 -145L 70 17L 71 55L 72 71L 73 80L 74 86L 74 89L 75 93L 76 96L 77 98L 78 99L 79 101L 80 102L 81 103L 81 103L 82 103L 83 105L 84 104L 85 103L 86 104L 87 104L 88 104L 89 106L 89 106L 90 107L 91 107L 92 106L 93 105L 94 102L 95 99L 96 71L 97 80L 97 76L 98 83L 99 91L 100 97L 101 100L 102 103L 103 104L 104 105L 105 106L 105 105L 106 105L 107 106L 108 107L 109 107L 110 108L 111 108L 112 109L 112 109L 113 109L 114 109L 115 109L 116 110L 117 109L 118 109L 119 107L 120 99L 120 65L 121 60L 122 70L 123 83L 124 88L 125 96L 126 99L 127 102L 128 91L 128 96L 129 99L 130 102L 131 104L 132 105L 133 106L 134 107L 135 107L 136 107L 136 108L 137 108L 138 109L 139 109L 140 109L 141 110L 142 110L 143 110L 143 110L 144 110L 145 107L 146 100L 147 92L 148 85L 149 93L 150 96L 151 99L 151 98L 152 102L 153 104L 154 106L 155 107L 156 108L 157 109L 158 109L 159 110L 159 110L 160 110L 161 110L 162 110L 163 110L 164 111L 165 111L 166 111L 167 111L 167 110L 168 110L 169 110L 170 109L 171 109L 172 101L 173 65L 174 59L 174 65L 175 79L 176 86L 177 94L 178 99L 179 103L 180 103L 181 105L 182 106L 182 107L 183 108L 184 109L 185 109L 186 110L 187 110L 188 110L 189 110L 190 110L 190 109L 191 109L 192 109L 193 109L 194 109L 195 110L 196 110L 197 110L 198 111L 198 111L 199 111L 200 111L 201 111L 202 108L 203 98L 204 73L 205 45L 205 64L 206 60L 207 62L 208 82L 209 88L 210 95L 211 99L 212 102L 213 104L 213 105L 214 106L 215 107L 216 108L 217 108L 218 109L 219 109L 220 110L 221 110L 221 110L 222 110L 223 110L 224 108L 225 105L 226 100L 227 102L 228 104L 229 105L 229 107L 230 109L 231 109L 232 109L 233 110L 234 110L 235 111L 236 111L 236 111L 237 111L 238 111L 239 111L 240 111L 241 111L 242 111L 243 111L 244 111L 244 -448L 245 -9633L 246 -535L 247 -201L 248 -99L 249 -41L 250 -16L 251 -1L 252 17L 252 27L 253 37L 254 44L 255 51L 256 55L 257 60L 258 65L 259 67L 260 68L 260 71L 261 74L 262 77L 263 79L 264 78L 265 78L 266 80L 267 79L 267 82L 268 86L 269 86L 270 85L 271 88L 272 89L 273 89L 274 89L 275 90L 275 90L 276 93L 277 94L 278 93L 279 94L 280 94L 281 95L 282 93L 283 94L 283 93L 284 88L 285 84L 286 91L 287 83L 288 84L 289 89L 290 92L 291 95L 291 97L 292 99L 293 100L 294 101L 295 102L 296 102L 297 102L 298 103L 298 103L 299 103L 300 104L 301 104L 302 104L 303 104L 304 104L 305 102L 306 86L 306 90L 307 93L 308 97L 309 98" stroke-width="1px" stroke="#63e72c" fill="transparent"/>
			<text x="3%" y="78.60882828170651" class="text">0.012</text>
			<line x1="0" y1="111.21164687720642" x2="100%" y2="111.21164687720642" stroke="rgba(117, 111, 111, 0.5)" />
		</svg>