<svg width="310" height="135" xmlns="http://www.w3.org/2000/svg" style="outline: 1px solid #ccc" >
			<style>
				.text { font: italic 10px sans-serif; fill: #756f6f; }
			</style>
			<path d="M 0 0 L 0 -997L 1 -187L 1 -228L 2 -178L 2 -144L 3 -146L 3 -117L 4 -89L 4 -123L 5 -75L 5 -87L 6 -49L 6 -42L 7 -34L 7 -16L 8 -9L 8 -2L 9 6L 9 11L 10 18L 10 27L 11 33L 11 37L 12 39L 12 42L 13 48L 13 52L 14 55L 14 58L 15 40L 16 -39L 16 -72L 17 -8L 17 39L 18 50L 18 59L 19 64L 19 68L 20 73L 20 74L 21 74L 21 67L 22 78L 22 79L 23 83L 23 74L 24 81L 24 85L 25 82L 25 87L 26 88L 26 87L 27 87L 27 89L 28 90L 28 92L 29 92L 29 94L 30 92L 30 96L 31 98L 32 83L 32 97L 33 99L 33 100L 34 99L 34 100L 35 98L 35 99L 36 98L 36 94L 37 97L 37 98L 38 97L 38 102L 39 104L 39 104L 40 104L 40 105L 41 106L 41 103L 42 106L 42 101L 43 104L 43 106L 44 106L 44 106L 45 107L 45 107L 46 107L 47 108L 47 111L 48 111L 48 111L 49 111L 49 110L 50 101L 50 104L 51 -5026L 51 98L 52 108L 52 110L 53 112L 53 112L 54 112L 54 113L 55 113L 55 113L 56 114L 56 113L 57 112L 57 110L 58 106L 58 110L 59 109L 59 108L 60 107L 60 112L 61 113L 61 114L 62 113L 63 98L 63 106L 64 108L 64 113L 65 114L 65 115L 66 116L 66 116L 67 117L 67 116L 68 117L 68 116L 69 116L 69 117L 70 117L 70 116L 71 106L 71 111L 72 113L 72 113L 73 114L 73 116L 74 116L 74 113L 75 111L 75 110L 76 114L 76 116L 77 117L 78 118L 78 119L 79 119L 79 119L 80 120L 80 120L 81 119L 81 116L 82 88L 82 46L 83 95L 83 106L 84 111L 84 114L 85 115L 85 114L 86 114L 86 117L 87 118L 87 119L 88 119L 88 119L 89 120L 89 120L 90 120L 90 120L 91 119L 91 120L 92 120L 92 118L 93 105L 94 69L 94 -9897L 95 49L 95 100L 96 104L 96 112L 97 115L 97 117L 98 117L 98 118L 99 117L 99 118L 100 119L 100 119L 101 119L 101 119L 102 119L 102 119L 103 120L 103 120L 104 121L 104 121L 105 121L 105 121L 106 120L 106 112L 107 49L 107 18L 108 -737L 109 10L 109 97L 110 109L 110 111L 111 112L 111 115L 112 117L 112 117L 113 118L 113 119L 114 118L 114 119L 115 118L 115 118L 116 118L 116 119L 117 117L 117 116L 118 115L 118 117L 119 118L 119 119L 120 118L 120 119L 121 120L 121 121L 122 121L 122 121L 123 122L 123 122L 124 122L 125 122L 125 122L 126 117L 126 -310L 127 24L 127 92L 128 104L 128 108L 129 113L 129 116L 130 117L 130 117L 131 118L 131 119L 132 119L 132 120L 133 120L 133 120L 134 120L 134 121L 135 121L 135 121L 136 120L 136 115L 137 111L 137 107L 138 108L 138 107L 139 112L 140 115L 140 116L 141 118L 141 119L 142 120L 142 120L 143 121L 143 121L 144 121L 144 121L 145 121L 145 122L 146 122L 146 122L 147 122L 147 122L 148 121L 148 115L 149 83L 149 50L 150 47L 150 78L 151 106L 151 111L 152 114L 152 116L 153 117L 153 118L 154 119L 154 120L 155 120L 156 121L 156 121L 157 121L 157 120L 158 121L 158 121L 159 121L 159 121L 160 122L 160 122L 161 122L 161 121L 162 117L 162 39L 163 91L 163 70L 164 100L 164 110L 165 115L 165 116L 166 117L 166 119L 167 119L 167 120L 168 121L 168 121L 169 121L 169 122L 170 122L 171 122L 171 122L 172 122L 172 122L 173 121L 173 112L 174 100L 174 87L 175 56L 175 107L 176 112L 176 116L 177 116L 177 119L 178 120L 178 121L 179 121L 179 121L 180 121L 180 122L 181 122L 181 122L 182 122L 182 122L 183 122L 183 122L 184 122L 184 120L 185 98L 185 -54L 186 46L 187 95L 187 106L 188 103L 188 115L 189 116L 189 117L 190 118L 190 119L 191 120L 191 120L 192 120L 192 121L 193 121L 193 121L 194 121L 194 121L 195 121L 195 122L 196 121L 196 120L 197 108L 197 -1499L 198 -14633L 198 -39L 199 69L 199 105L 200 111L 200 95L 201 116L 202 118L 202 113L 203 119L 203 120L 204 120L 204 121L 205 121L 205 121L 206 121L 206 121L 207 121L 207 121L 208 121L 208 121L 209 121L 209 120L 210 119L 210 117L 211 105L 211 -67L 212 107L 212 67L 213 91L 213 112L 214 116L 214 118L 215 120L 215 120L 216 121L 216 121L 217 122L 218 122L 218 122L 219 122L 219 122L 220 122L 220 122L 221 122L 221 122L 222 122L 222 122L 223 120L 223 102L 224 95L 224 60L 225 68L 225 102L 226 111L 226 115L 227 118L 227 120L 228 120L 228 121L 229 121L 229 121L 230 122L 230 122L 231 122L 231 122L 232 122L 233 122L 233 122L 234 122L 234 122L 235 122L 235 121L 236 118L 236 108L 237 100L 237 47L 238 101L 238 107L 239 112L 239 117L 240 118L 240 119L 241 120L 241 121L 242 121L 242 121L 243 122L 243 122L 244 122L 244 122L 245 122L 245 122L 246 122L 246 122L 247 122L 247 122L 248 121L 249 120L 249 114L 250 101L 250 84L 251 103L 251 101L 252 35L 252 109L 253 111L 253 116L 254 118L 254 119L 255 120L 255 121L 256 121L 256 121L 257 122L 257 122L 258 122L 258 122L 259 122L 259 122L 260 122L 260 122L 261 117L 261 112L 262 115L 262 117L 263 117L 264 117L 264 119L 265 121L 265 121L 266 122L 266 121L 267 122L 267 122L 268 122L 268 122L 269 122L 269 122L 270 122L 270 122L 271 122L 271 120L 272 37L 272 -16L 273 80L 273 -444L 274 85L 274 112L 275 116L 275 117L 276 119L 276 120L 277 121L 277 121L 278 121L 278 122L 279 122L 280 122L 280 121L 281 122L 281 121L 282 122L 282 122L 283 122L 283 122L 284 120L 284 116L 285 115L 285 114L 286 113L 286 113L 287 115L 287 118L 288 119L 288 120L 289 121L 289 121L 290 121L 290 122L 291 122L 291 122L 292 122L 292 122L 293 122L 293 122L 294 122L 295 122L 295 122L 296 122L 296 122L 297 121L 297 120L 298 117L 298 110L 299 78L 299 109L 300 113L 300 117L 301 119L 301 120L 302 120L 302 121L 303 121L 303 122L 304 122L 304 122L 305 122L 305 122L 306 122L 306 122L 307 122L 307 122L 308 122L 308 122L 309 122L 309 122" stroke-width="1px" stroke="#63e72c" fill="transparent"/>
			<text x="3%" y="97.9831005392112" class="text">0.0115</text>
			<line x1="0" y1="122.48673018220099" x2="100%" y2="122.48673018220099" stroke="rgba(117, 111, 111, 0.5)" />
		</svg>