<svg width="160" height="50" xmlns="http://www.w3.org/2000/svg" style="outline: 1px solid #ccc" >
			<path d="M 0 0 L 0 -499.76046798361915L 5.333333333333333 13.05016217185387L 10.666666666666666 24.619907143242468L 16 31.08129336528946L 21.333333333333332 32.87275780128037L 26.666666666666664 34.308423887980254L 32 34.135219253586754L 37.33333333333333 35.800103307103555L 42.666666666666664 35.78033314567067L 48 34.60171208610783L 53.33333333333333 36.10348166638049L 58.666666666666664 36.31582816668504L 64 33.367350799010154L 69.33333333333333 35.76469123634245L 74.66666666666666 37.5672214916813L 80 29.06917790296689L 85.33333333333333 37.10323433542987L 90.66666666666666 37.92926435491337L 96 36.999439207436026L 101.33333333333333 37.46705768695799L 106.66666666666666 38.472494895546824L 112 28.633650345062488L 117.33333333333333 35.30935288420159L 122.66666666666666 37.94717703835171L 128 37.609600396098344L 133.33333333333331 38.049225077979344L 138.66666666666666 38.64919729316161L 144 34.94551316912835L 149.33333333333331 37.83277829249635L 154.66666666666666 38.37481958167403" stroke-width="2px" stroke="#63e72c" fill="transparent"/>
		</svg>