<svg width="310" height="135" xmlns="http://www.w3.org/2000/svg" style="outline: 1px solid #ccc" >
			<style>
				.text { font: italic 10px sans-serif; fill: #756f6f; }
			</style>
			<path d="M 0 0 L 0 -35841L 1 46L 1 63L 2 72L 3 80L 3 90L 4 95L 5 98L 6 99L 6 100L 7 104L 8 105L 8 107L 9 108L 10 110L 10 112L 11 113L 12 115L 12 115L 13 116L 14 117L 14 118L 15 118L 16 118L 17 119L 17 118L 18 119L 19 120L 19 121L 20 121L 21 122L 21 122L 22 123L 23 123L 23 124L 24 124L 25 124L 25 122L 26 123L 27 124L 28 125L 28 125L 29 126L 30 126L 30 126L 31 126L 32 126L 32 126L 33 126L 34 126L 34 124L 35 123L 36 122L 37 124L 37 125L 38 126L 39 126L 39 126L 40 127L 41 127L 41 127L 42 127L 43 127L 43 128L 44 128L 45 128L 45 128L 46 128L 47 128L 48 128L 48 128L 49 128L 50 128L 50 128L 51 128L 52 128L 52 122L 53 94L 54 99L 54 114L 55 116L 56 118L 56 120L 57 122L 58 123L 59 125L 59 125L 60 126L 61 126L 61 127L 62 127L 63 127L 63 127L 64 128L 65 128L 65 128L 66 128L 67 128L 68 127L 68 127L 69 127L 70 127L 70 126L 71 126L 72 126L 72 126L 73 126L 74 127L 74 128L 75 128L 76 128L 76 128L 77 128L 78 128L 79 128L 79 128L 80 128L 81 129L 81 129L 82 129L 83 129L 83 128L 84 128L 85 128L 85 127L 86 114L 87 96L 87 109L 88 115L 89 120L 90 122L 90 124L 91 125L 92 126L 92 126L 93 127L 94 127L 94 127L 95 128L 96 128L 96 128L 97 128L 98 128L 99 128L 99 128L 100 128L 101 128L 101 128L 102 128L 103 128L 103 128L 104 128L 105 128L 105 128L 106 128L 107 128L 107 128L 108 126L 109 124L 110 122L 110 122L 111 124L 112 124L 112 125L 113 126L 114 127L 114 127L 115 128L 116 128L 116 128L 117 128L 118 128L 118 129L 119 129L 120 129L 121 129L 121 129L 122 129L 123 129L 123 129L 124 129L 125 129L 125 129L 126 128L 127 128L 127 126L 128 117L 129 115L 130 119L 130 121L 131 123L 132 123L 132 125L 133 126L 134 127L 134 127L 135 128L 136 128L 136 128L 137 128L 138 128L 138 128L 139 128L 140 128L 141 129L 141 129L 142 129L 143 129L 143 129L 144 129L 145 129L 145 129L 146 129L 147 129L 147 129L 148 129L 149 129L 149 129L 150 129L 151 129L 152 129L 152 129L 153 129L 154 128L 154 121L 155 112L 156 113L 156 118L 157 123L 158 125L 158 126L 159 127L 160 127L 161 127L 161 126L 162 127L 163 128L 163 128L 164 128L 165 129L 165 129L 166 129L 167 129L 167 129L 168 129L 169 129L 169 129L 170 129L 171 129L 172 129L 172 129L 173 129L 174 129L 174 128L 175 127L 176 126L 176 125L 177 124L 178 121L 178 124L 179 126L 180 126L 180 127L 181 128L 182 128L 183 128L 183 129L 184 129L 185 129L 185 129L 186 129L 187 129L 187 129L 188 129L 189 129L 189 129L 190 129L 191 129L 192 129L 192 129L 193 128L 194 128L 194 127L 195 127L 196 128L 196 128L 197 128L 198 129L 198 129L 199 129L 200 129L 200 129L 201 129L 202 129L 203 129L 203 129L 204 129L 205 129L 205 129L 206 129L 207 129L 207 129L 208 129L 209 129L 209 119L 210 94L 211 101L 211 114L 212 116L 213 118L 214 122L 214 124L 215 125L 216 125L 216 126L 217 127L 218 127L 218 128L 219 128L 220 128L 220 128L 221 128L 222 128L 223 129L 223 128L 224 128L 225 129L 225 129L 226 129L 227 129L 227 129L 228 129L 229 129L 229 129L 230 129L 231 128L 231 126L 232 125L 233 119L 234 117L 234 122L 235 124L 236 125L 236 126L 237 127L 238 127L 238 128L 239 128L 240 128L 240 128L 241 129L 242 129L 242 129L 243 129L 244 129L 245 129L 245 129L 246 129L 247 129L 247 129L 248 129L 249 129L 249 129L 250 129L 251 129L 251 129L 252 129L 253 128L 254 126L 254 124L 255 124L 256 124L 256 125L 257 126L 258 127L 258 127L 259 127L 260 128L 260 128L 261 129L 262 129L 262 129L 263 129L 264 129L 265 129L 265 129L 266 129L 267 129L 267 129L 268 129L 269 129L 269 129L 270 129L 271 128L 271 127L 272 126L 273 126L 273 127L 274 128L 275 128L 276 128L 276 129L 277 129L 278 129L 278 129L 279 129L 280 129L 280 129L 281 129L 282 129L 282 129L 283 129L 284 129L 285 129L 285 129L 286 129L 287 129L 287 124L 288 109L 289 100L 289 113L 290 117L 291 121L 291 122L 292 124L 293 125L 293 126L 294 126L 295 127L 296 128L 296 128L 297 128L 298 128L 298 128L 299 128L 300 129L 300 129L 301 129L 302 129L 302 129L 303 129L 304 129L 304 129L 305 129L 306 129L 307 129L 307 129L 308 129L 309 129L 309 128" stroke-width="1px" stroke="#63e72c" fill="transparent"/>
			<text x="3%" y="102.53457678317166" class="text">0.011</text>
			<line x1="0" y1="129.27322825814568" x2="100%" y2="129.27322825814568" stroke="rgba(117, 111, 111, 0.5)" />
		</svg>