<svg width="160" height="50" xmlns="http://www.w3.org/2000/svg" style="outline: 1px solid #ccc" >
			<style>
				.text { font: italic 10px sans-serif; fill: #756f6f; }
			</style>
			<path d="M 0 0 L 0 -377.6901411998515L 0.5211726384364821 -97.55160760403808L 1.0423452768729642 -94.64979455460085L 1.5635179153094463 -90.81893046743119L 2.0846905537459284 -88.60779930927814L 2.6058631921824107 -88.16070747731106L 3.1270358306188926 -86.76084437853899L 3.6482084690553744 -85.57483728889531L 4.169381107491857 -84.48786209169634L 4.690553745928339 -83.39557501312177L 5.211726384364821 -82.33216261000243L 5.732899022801303 -81.63259806668151L 6.254071661237785 -80.76023665526094L 6.7752442996742674 -79.88018990092655L 7.296416938110749 -79.27388916077751L 7.817589576547231 -79.15458586764458L 8.338762214983714 -78.2456002324219L 8.859934853420196 -77.79518735369382L 9.381107491856678 -76.75512935896946L 9.90228013029316 -77.33843943463957L 10.423452768729643 -76.69332327454218L 10.944625407166123 -78.03223815391638L 11.465798045602606 -75.76896690354212L 11.986970684039088 -75.14556081251311L 12.50814332247557 -74.44974053129975L 13.029315960912053 -72.49995032769479L 13.550488599348535 -72.6912675317734L 14.071661237785017 -72.56463801686854L 14.592833876221498 -72.47442969693255L 15.11400651465798 -73.14105896583268L 15.635179153094462 -72.45030263168174L 16.156351791530945 -73.56761136235542L 16.677524429967427 -71.83168348624297L 17.19869706840391 -71.17687412281616L 17.71986970684039 -71.17316932747863L 18.241042345276874 -70.78965209158095L 18.762214983713356 -70.37307097709048L 19.28338762214984 -71.07568928786098L 19.80456026058632 -69.07956205969865L 20.325732899022803 -68.88537348040231L 20.846905537459286 -68.57372176528595L 21.368078175895764 -68.2219262659907L 21.889250814332247 -70.43207631681844L 22.41042345276873 -69.12179327048688L 22.93159609120521 -69.38324892763659L 23.452768729641694 -67.91566643355374L 23.973941368078176 -66.76176263367479L 24.495114006514658 -66.62959285307875L 25.01628664495114 -66.63397182152208L 25.537459283387623 -66.16717867358277L 26.058631921824105 -65.93813444413462L 26.579804560260587 -65.39059409819909L 27.10097719869707 -64.88901076366338L 27.622149837133552 -68.34327010163076L 28.143322475570034 -64.46507290917815L 28.664495114006517 -59.8940652903312L 29.185667752442995 -48.50205766450719L 29.706840390879478 -22.0743765794401L 30.22801302931596 -12.368600335029711L 30.749185667752442 -7.037003216391248L 31.270358306188925 -2.9739149850208264L 31.791530944625407 -2.218007440518832L 32.31270358306189 5.431559321750065L 32.83387622149837 9.335850333370836L 33.355048859934854 12.421471781897466L 33.876221498371336 14.618809804528851L 34.39739413680782 16.624326795697492L 34.9185667752443 17.6691122218959L 35.43973941368078 18.525643873389033L 35.960912052117266 20.23694272188382L 36.48208469055375 21.962396219524187L 37.00325732899023 23.310581327458557L 37.52442996742671 25.07314206201809L 38.045602605863195 26.772500326854406L 38.56677524429968 27.919253215689377L 39.08794788273616 28.436197325847118L 39.60912052117264 29.642053592159627L 40.130293159609124 29.572952260435496L 40.65146579804561 30.74724436693154L 41.17263843648209 31.78278845781527L 41.69381107491857 31.995613578766335L 42.214983713355046 32.31184463313894L 42.73615635179153 33.271023633463344L 43.25732899022801 31.162041908647304L 43.77850162866449 33.16790196937514L 44.299674267100976 34.002761020983755L 44.82084690553746 34.20953167446347L 45.34201954397394 34.49193084634825L 45.86319218241042 35.27865915080551L 46.384364820846905 35.88919204299036L 46.90553745928339 36.27101369020966L 47.42671009771987 36.88567773564495L 47.94788273615635 37.356807391025306L 48.469055374592834 37.40856267646131L 48.990228013029316 37.519687568130706L 49.5114006514658 38.08713575482106L 50.03257328990228 38.34757445022177L 50.55374592833876 38.79174379731155L 51.074918566775246 39.06215449827456L 51.59609120521173 38.45323002619107L 52.11726384364821 38.392860840778L 52.63843648208469 38.93854453995603L 53.159609120521175 38.51065842060724L 53.68078175895766 38.97496972214907L 54.20195439739414 39.646010756339024L 54.72312703583062 39.78477791886551L 55.244299674267104 40.237250814957086L 55.76547231270359 39.96648824969793L 56.28664495114007 40.19537089689859L 56.80781758957655 40.51212835284859L 57.32899022801303 40.24809213801976L 57.850162866449516 39.84328890183958L 58.37133550488599 40.79601641135159L 58.89250814332247 37.84115693192671L 59.413680781758956 37.52770131666302L 59.93485342019544 36.261420665177745L 60.45602605863192 36.6256879206919L 60.9771986970684 37.04630967076181L 61.498371335504885 39.62788907710093L 62.01954397394137 39.86421386889283L 62.54071661237785 40.561323327191964L 63.06188925081433 40.80255293650974L 63.583061889250814 40.96321090064243L 64.1042345276873 41.410036822733964L 64.62540716612378 41.3871518971567L 65.14657980456026 41.59109423958556L 65.66775244299674 41.8197407320679L 66.18892508143323 42.06847174928263L 66.71009771986971 42.021100294753175L 67.23127035830619 42.17832741807237L 67.75244299674267 41.85625681659367L 68.27361563517915 41.44875839332632L 68.79478827361564 40.48497554918181L 69.31596091205212 40.17679517079775L 69.8371335504886 40.83333693562903L 70.35830618892508 41.40790821683055L 70.87947882736157 41.87006610026571L 71.40065146579805 42.104070801474705L 71.92182410423453 42.39667617006123L 72.44299674267101 42.39729885226589L 72.9641693811075 42.22208200522902L 73.48534201954398 42.25836598262998L 74.00651465798046 42.44238336757515L 74.52768729641694 42.43777835612996L 75.04885993485343 42.38990826316002L 75.57003257328991 41.59145833235333L 76.09120521172639 40.70878286712725L 76.61237785016287 40.447308007309964L 77.13355048859935 41.063964560445726L 77.65472312703584 41.91363407997946L 78.17589576547232 41.72912935120803L 78.6970684039088 42.35301789815062L 79.21824104234528 42.09788359357207L 79.73941368078177 42.088594599494726L 80.26058631921825 41.14776332807514L 80.78175895765473 40.4954566060172L 81.30293159609121 39.74881696642151L 81.8241042345277 38.14948641666183L 82.34527687296418 41.31861930598354L 82.86644951140066 41.67993855814049L 83.38762214983714 41.8560653975742L 83.90879478827361 42.52540653353856L 84.42996742671009 42.20391272294927L 84.95114006514657 41.620760187457776L 85.47231270358306 41.52353215077163L 85.99348534201954 41.695822065368134L 86.51465798045602 41.31964600882284L 87.0358306188925 42.33050000064904L 87.55700325732899 42.73462197423233L 88.07817589576547 43.03938504886403L 88.59934853420195 43.24520600463845L 89.12052117263843 43.28730298942892L 89.64169381107492 43.262236000057335L 90.1628664495114 43.11310410053939L 90.68403908794788 43.32268199454707L 91.20521172638436 43.45131994105231L 91.72638436482085 43.3758803439239L 92.24755700325733 43.417772801577506L 92.76872964169381 43.49942989472174L 93.28990228013029 43.50548993528252L 93.81107491856677 43.479112299747925L 94.33224755700326 43.411800702837326L 94.85342019543974 43.50920280407564L 95.37459283387622 43.55870092798485L 95.8957654723127 43.47710668765072L 96.41693811074919 43.34749130797112L 96.93811074918567 42.966065945808324L 97.45928338762215 41.20445625971396L 97.98045602605863 34.704486751773445L 98.50162866449512 33.12568096101653L 99.0228013029316 35.55428767065L 99.54397394136808 34.35121772772718L 100.06514657980456 39.4983307206623L 100.58631921824104 39.67339542269841L 101.10749185667753 41.188885746517876L 101.62866449511401 41.65261959408861L 102.14983713355049 41.451225671931056L 102.67100977198697 41.572812405156L 103.19218241042346 41.84708387757054L 103.71335504885994 42.632389017080435L 104.23452768729642 42.084646995118554L 104.7557003257329 43.10422323731693L 105.27687296416939 43.29593366205104L 105.79804560260587 43.45525401905468L 106.31921824104235 43.57867744705142L 106.84039087947883 43.637685688071045L 107.36156351791531 43.68073432728818L 107.8827361563518 43.701738251451104L 108.40390879478828 43.73106453044471L 108.92508143322476 43.75819833538252L 109.44625407166124 43.76934892745876L 109.96742671009773 43.769848167514624L 110.48859934853421 43.6417375043011L 111.00977198697069 43.201144135563084L 111.53094462540717 43.36043543429505L 112.05211726384366 40.63963340600887L 112.57328990228014 31.413384116875346L 113.09446254071662 16.900215690927958L 113.6156351791531 32.2506521019995L 114.13680781758958 35.47696899905171L 114.65798045602607 39.51033208934995L 115.17915309446255 40.743421357189206L 115.70032573289903 41.16602349664517L 116.22149837133551 42.002240151500615L 116.74267100977198 42.29092028953849L 117.26384364820846 42.96509368601082L 117.78501628664495 43.07935874662528L 118.30618892508143 43.29196738416164L 118.82736156351791 43.36515105443083L 119.3485342019544 43.46023194510188L 119.86970684039088 43.54672009120579L 120.39087947882736 43.59812919410303L 120.91205211726384 43.645031021095285L 121.43322475570032 43.64856260482891L 121.9543973941368 43.55712820475811L 122.47557003257329 43.71074930798324L 122.99674267100977 43.747817788060516L 123.51791530944625 43.787262711527205L 124.03908794788273 43.835354108569035L 124.56026058631922 43.84758155174746L 125.0814332247557 43.83617026767994L 125.60260586319218 43.706404541074335L 126.12377850162866 43.5590017868945L 126.64495114006515 43.53918753539158L 127.16612377850163 43.7469064729938L 127.68729641693811 43.8155449460005L 128.2084690553746 43.69723819761881L 128.7296416938111 43.886389614248635L 129.25081433224756 43.927835584339306L 129.77198697068405 43.85357055098472L 130.29315960912052 43.80088855617797L 130.81433224755702 43.700225667541375L 131.3355048859935 43.15813505636961L 131.85667752442998 41.68590877973484L 132.37785016286645 38.32565478691088L 132.89902280130295 26.225517832490915L 133.42019543973942 24.928477831513288L 133.94136807817588 28.787658273149056L 134.46254071661238 34.53549071172145L 134.98371335504885 38.36808192833597L 135.50488599348535 37.7079046958077L 136.0260586319218 40.49077062303769L 136.5472312703583 41.10679911067755L 137.06840390879478 41.76540903524547L 137.58957654723127 42.48060662662519L 138.11074918566774 42.712904296429514L 138.63192182410424 42.98738255315528L 139.1530944625407 43.18510139478432L 139.6742671009772 43.29863873348468L 140.19543973941367 43.447964043063536L 140.71661237785017 43.51859234918895L 141.23778501628664 43.60972057812691L 141.75895765472313 43.61383022459461L 142.2801302931596 43.69298183258567L 142.8013029315961 43.73090514106659L 143.32247557003257 43.78005526712294L 143.84364820846906 43.79907379208883L 144.36482084690553 43.78279972131016L 144.88599348534203 43.774570730994476L 145.4071661237785 43.69208863915287L 145.928338762215 43.65181553695635L 146.44951140065146 43.189500619740414L 146.97068403908796 42.44870247680033L 147.49185667752442 41.447892093296836L 148.01302931596092 41.48842623866251L 148.5342019543974 40.953401576176105L 149.05537459283389 41.41483577538178L 149.57654723127035 42.903773085894755L 150.09771986970685 43.424011856445794L 150.61889250814332 43.60162743721412L 151.14006514657981 43.73833425768633L 151.66123778501628 43.81477575515596L 152.18241042345278 43.82473406476468L 152.70358306188925 43.86665247820703L 153.22475570032574 43.81451517791179L 153.7459283387622 43.85530178966303L 154.2671009771987 43.89325134172697L 154.78827361563518 43.9172278403109L 155.30944625407167 43.95553575755681L 155.83061889250814 43.952255173930205L 156.35179153094464 43.90690863529607L 156.8729641693811 43.99980121049933L 157.3941368078176 44.038385204044204L 157.91530944625407 44.04599368603118L 158.43648208469057 44.04521225576799L 158.95765472312704 44.06127808590357L 159.47882736156353 44.07714920115163" stroke-width="2px" stroke="#63e72c" fill="transparent"/>
			<text x="80%" y="35.261719360921305" class="text">0.012</text>
		</svg>