<svg width="310" height="135" xmlns="http://www.w3.org/2000/svg" style="outline: 1px solid #ccc" >
			<style>
				.text { font: italic 10px sans-serif; fill: #756f6f; }
			</style>
			<path d="M 0 0 L 0 -4218L 1 -626L 2 -466L 3 -364L 4 -264L 4 -202L 5 -163L 6 -138L 7 -125L 8 -95L 9 -76L 10 -61L 11 -46L 12 -35L 12 -29L 13 -25L 14 -11L 15 -2L 16 5L 17 10L 18 17L 19 14L 19 23L 20 29L 21 33L 22 37L 23 39L 24 40L 25 37L 26 35L 27 39L 27 46L 28 41L 29 50L 30 54L 31 57L 32 59L 33 60L 34 61L 35 63L 35 64L 36 61L 37 62L 38 61L 39 63L 40 63L 41 66L 42 69L 43 71L 43 72L 44 73L 45 69L 46 55L 47 52L 48 60L 49 68L 50 68L 50 72L 51 74L 52 75L 53 76L 54 76L 55 77L 56 78L 57 78L 58 79L 58 79L 59 79L 60 80L 61 80L 62 80L 63 78L 64 57L 65 -24L 66 -18L 66 7L 67 29L 68 48L 69 58L 70 65L 71 69L 72 73L 73 74L 74 75L 74 76L 75 77L 76 77L 77 78L 78 78L 79 79L 80 79L 81 79L 81 80L 82 80L 83 81L 84 81L 85 81L 86 81L 87 81L 88 81L 89 80L 89 74L 90 61L 91 19L 92 34L 93 44L 94 61L 95 69L 96 71L 97 74L 97 76L 98 77L 99 78L 100 79L 101 79L 102 80L 103 81L 104 81L 105 81L 105 82L 106 82L 107 82L 108 82L 109 82L 110 82L 111 82L 112 83L 112 83L 113 83L 114 82L 115 81L 116 81L 117 77L 118 76L 119 76L 120 76L 120 79L 121 80L 122 80L 123 81L 124 82L 125 83L 126 83L 127 83L 128 83L 128 83L 129 83L 130 83L 131 83L 132 83L 133 83L 134 83L 135 84L 136 84L 136 84L 137 84L 138 81L 139 -9L 140 -322L 141 -99L 142 10L 143 9L 143 45L 144 59L 145 66L 146 69L 147 72L 148 74L 149 75L 150 78L 151 78L 151 79L 152 80L 153 80L 154 81L 155 81L 156 81L 157 81L 158 81L 159 82L 159 82L 160 82L 161 82L 162 82L 163 83L 164 83L 165 83L 166 83L 167 83L 167 68L 168 51L 169 44L 170 57L 171 60L 172 72L 173 75L 174 76L 174 79L 175 80L 176 81L 177 82L 178 82L 179 82L 180 82L 181 83L 182 83L 182 83L 183 83L 184 83L 185 83L 186 83L 187 83L 188 83L 189 83L 190 83L 190 83L 191 83L 192 81L 193 74L 194 36L 195 1L 196 0L 197 26L 198 47L 198 58L 199 63L 200 67L 201 73L 202 75L 203 78L 204 79L 205 80L 205 81L 206 81L 207 82L 208 82L 209 82L 210 82L 211 82L 212 82L 213 82L 213 83L 214 83L 215 82L 216 83L 217 83L 218 83L 219 83L 220 83L 221 83L 221 83L 222 83L 223 83L 224 83L 225 83L 226 83L 227 83L 228 83L 229 83L 229 83L 230 83L 231 83L 232 83L 233 83L 234 83L 235 84L 236 83L 236 83L 237 70L 238 -15L 239 -14L 240 -1L 241 20L 242 34L 243 47L 244 57L 244 63L 245 68L 246 72L 247 75L 248 78L 249 79L 250 80L 251 80L 252 81L 252 81L 253 81L 254 82L 255 82L 256 82L 257 82L 258 83L 259 83L 260 83L 260 82L 261 82L 262 82L 263 82L 264 82L 265 83L 266 83L 267 83L 267 83L 268 83L 269 83L 270 83L 271 84L 272 84L 273 84L 274 84L 275 84L 275 84L 276 84L 277 84L 278 84L 279 84L 280 73L 281 15L 282 -25L 283 8L 283 17L 284 36L 285 58L 286 62L 287 54L 288 72L 289 75L 290 74L 291 78L 291 79L 292 80L 293 78L 294 80L 295 80L 296 81L 297 82L 298 82L 298 82L 299 82L 300 83L 301 83L 302 83L 303 83L 304 83L 305 83L 306 83L 306 83L 307 83L 308 83L 309 83" stroke-width="1px" stroke="#63e72c" fill="transparent"/>
			<text x="3%" y="66.4008996265736" class="text">0.011</text>
			<line x1="0" y1="83.84178764898387" x2="100%" y2="83.84178764898387" stroke="rgba(117, 111, 111, 0.5)" />
		</svg>