<svg width="310" height="135" xmlns="http://www.w3.org/2000/svg" style="outline: 1px solid #ccc" >
			<style>
				.text { font: italic 10px sans-serif; fill: #756f6f; }
			</style>
			<path d="M 0 0 L 0 -19066L 1 -81L 2 -27L 3 -1L 4 17L 5 29L 6 36L 7 47L 8 57L 9 61L 10 65L 11 72L 12 75L 13 79L 14 83L 16 87L 17 88L 18 89L 19 91L 20 92L 21 93L 22 95L 23 95L 24 97L 25 99L 26 99L 27 100L 28 101L 29 103L 30 103L 31 103L 32 104L 33 104L 34 104L 35 105L 36 104L 37 103L 38 105L 39 104L 40 107L 41 107L 42 106L 43 108L 44 109L 45 110L 47 110L 48 111L 49 112L 50 112L 51 112L 52 113L 53 113L 54 113L 55 112L 56 113L 57 114L 58 114L 59 114L 60 113L 61 111L 62 111L 63 111L 64 111L 65 112L 66 113L 67 114L 68 115L 69 115L 70 116L 71 116L 72 114L 73 116L 74 115L 75 116L 76 116L 78 117L 79 116L 80 112L 81 87L 82 88L 83 102L 84 108L 85 111L 86 113L 87 114L 88 114L 89 116L 90 116L 91 117L 92 117L 93 117L 94 118L 95 117L 96 117L 97 116L 98 117L 99 117L 100 114L 101 115L 102 115L 103 115L 104 116L 105 117L 106 116L 107 117L 109 116L 110 116L 111 116L 112 117L 113 118L 114 118L 115 119L 116 117L 117 116L 118 113L 119 112L 120 114L 121 114L 122 114L 123 115L 124 115L 125 112L 126 114L 127 116L 128 117L 129 116L 130 116L 131 116L 132 117L 133 117L 134 118L 135 118L 136 119L 137 119L 138 119L 140 119L 141 118L 142 118L 143 113L 144 113L 145 114L 146 115L 147 115L 148 116L 149 117L 150 118L 151 119L 152 119L 153 119L 154 119L 155 120L 156 120L 157 120L 158 120L 159 120L 160 120L 161 118L 162 114L 163 51L 164 31L 165 57L 166 79L 167 99L 168 104L 169 108L 171 110L 172 114L 173 115L 174 116L 175 116L 176 117L 177 117L 178 118L 179 118L 180 118L 181 118L 182 119L 183 119L 184 119L 185 119L 186 118L 187 117L 188 113L 189 115L 190 115L 191 110L 192 113L 193 115L 194 115L 195 116L 196 117L 197 118L 198 119L 199 119L 200 118L 202 118L 203 117L 204 118L 205 117L 206 118L 207 117L 208 116L 209 112L 210 105L 211 110L 212 112L 213 113L 214 116L 215 118L 216 118L 217 119L 218 119L 219 120L 220 120L 221 116L 222 113L 223 115L 224 117L 225 119L 226 119L 227 120L 228 120L 229 120L 230 120L 231 120L 233 120L 234 120L 235 118L 236 116L 237 107L 238 54L 239 89L 240 98L 241 103L 242 110L 243 113L 244 115L 245 116L 246 117L 247 117L 248 118L 249 118L 250 118L 251 119L 252 119L 253 120L 254 119L 255 119L 256 119L 257 120L 258 120L 259 120L 260 120L 261 120L 262 120L 264 120L 265 120L 266 120L 267 120L 268 119L 269 97L 270 87L 271 94L 272 108L 273 110L 274 110L 275 113L 276 114L 277 116L 278 117L 279 117L 280 118L 281 118L 282 118L 283 119L 284 120L 285 120L 286 120L 287 120L 288 121L 289 121L 290 121L 291 121L 292 121L 293 120L 295 117L 296 107L 297 101L 298 96L 299 99L 300 108L 301 112L 302 114L 303 115L 304 117L 305 117L 306 118L 307 118L 308 118L 309 119" stroke-width="1px" stroke="#63e72c" fill="transparent"/>
			<text x="3%" y="95.34178382893083" class="text">0.0125</text>
			<line x1="0" y1="120.78923998016262" x2="100%" y2="120.78923998016262" stroke="rgba(117, 111, 111, 0.5)" />
		</svg>