<svg width="310" height="135" xmlns="http://www.w3.org/2000/svg" style="outline: 1px solid #ccc" >
			<style>
				.text { font: italic 10px sans-serif; fill: #756f6f; }
			</style>
			<path d="M 0 0 L 0 -3676L 1 -565L 2 -388L 4 -276L 5 -198L 6 -155L 7 -136L 9 -95L 10 -58L 11 -34L 12 -9L 14 4L 15 9L 16 20L 17 29L 19 44L 20 54L 21 60L 22 65L 24 67L 25 68L 26 69L 27 61L 29 18L 30 25L 31 56L 32 65L 33 71L 35 76L 36 80L 37 82L 38 85L 40 86L 41 88L 42 88L 43 89L 45 89L 46 89L 47 90L 48 91L 50 92L 51 91L 52 92L 53 93L 55 92L 56 93L 57 93L 58 94L 60 94L 61 94L 62 92L 63 65L 64 -673L 66 -290L 67 -66L 68 -17L 69 31L 71 47L 72 56L 73 66L 74 71L 76 75L 77 80L 78 83L 79 85L 81 86L 82 87L 83 89L 84 90L 86 91L 87 91L 88 91L 89 92L 91 93L 92 94L 93 94L 94 95L 95 95L 97 95L 98 95L 99 95L 100 95L 102 92L 103 -160L 104 -213L 105 -69L 107 15L 108 47L 109 58L 110 71L 112 77L 113 81L 114 85L 115 87L 117 88L 118 90L 119 91L 120 92L 122 93L 123 93L 124 94L 125 95L 126 95L 128 95L 129 96L 130 95L 131 94L 133 93L 134 91L 135 89L 136 80L 138 73L 139 73L 140 79L 141 86L 143 90L 144 92L 145 94L 146 95L 148 95L 149 95L 150 96L 151 96L 153 96L 154 97L 155 97L 156 97L 157 97L 159 97L 160 97L 161 96L 162 96L 164 95L 165 95L 166 95L 167 95L 169 94L 170 94L 171 -93L 172 -127L 174 -34L 175 18L 176 47L 177 64L 179 73L 180 77L 181 83L 182 86L 184 89L 185 89L 186 91L 187 93L 188 94L 190 94L 191 95L 192 95L 193 95L 195 95L 196 96L 197 96L 198 96L 200 96L 201 96L 202 96L 203 95L 205 95L 206 95L 207 96L 208 96L 210 96L 211 96L 212 96L 213 96L 215 97L 216 97L 217 98L 218 98L 219 98L 221 98L 222 98L 223 98L 224 98L 226 98L 227 98L 228 97L 229 89L 231 9L 232 -233L 233 -26L 234 32L 236 53L 237 66L 238 77L 239 82L 241 87L 242 88L 243 91L 244 92L 246 93L 247 94L 248 94L 249 95L 250 95L 252 96L 253 96L 254 96L 255 96L 257 96L 258 96L 259 97L 260 97L 262 97L 263 97L 264 97L 265 97L 267 98L 268 97L 269 98L 270 96L 272 91L 273 77L 274 -199L 275 -41L 277 35L 278 58L 279 66L 280 77L 281 80L 283 83L 284 87L 285 90L 286 93L 288 94L 289 94L 290 95L 291 95L 293 95L 294 96L 295 96L 296 96L 298 95L 299 96L 300 96L 301 96L 303 97L 304 97L 305 97L 306 97L 308 97L 309 98" stroke-width="1px" stroke="#63e72c" fill="transparent"/>
			<text x="3%" y="78.09545160700243" class="text">0.012</text>
			<line x1="0" y1="98.08641476363238" x2="100%" y2="98.08641476363238" stroke="rgba(117, 111, 111, 0.5)" />
		</svg>