<svg width="310" height="135" xmlns="http://www.w3.org/2000/svg" style="outline: 1px solid #ccc" >
			<style>
				.text { font: italic 10px sans-serif; fill: #756f6f; }
			</style>
			<path d="M 0 0 L 0 -2768L 1 -488L 2 -429L 3 -405L 4 -343L 5 -306L 6 -296L 7 -245L 8 -208L 9 -186L 10 -186L 11 -165L 12 -139L 13 -137L 14 -132L 16 -128L 17 -109L 18 -98L 19 -87L 20 -73L 21 -64L 22 -56L 23 -52L 24 -47L 25 -43L 26 -36L 27 -29L 28 -26L 29 -23L 30 -48L 31 -38L 32 -23L 33 -24L 34 -10L 35 -3L 36 0L 37 -4L 38 -4L 39 10L 40 9L 41 15L 42 20L 43 23L 44 23L 45 31L 47 33L 48 31L 49 25L 50 -4L 51 -70L 52 -41L 53 -4L 54 7L 55 16L 56 24L 57 25L 58 29L 59 36L 60 41L 61 41L 62 46L 63 48L 64 49L 65 47L 66 48L 67 48L 68 54L 69 57L 70 56L 71 56L 72 54L 73 53L 74 60L 75 63L 76 65L 78 62L 79 63L 80 65L 81 70L 82 66L 83 66L 84 33L 85 27L 86 52L 87 57L 88 59L 89 66L 90 71L 91 72L 92 74L 93 75L 94 76L 95 76L 96 72L 97 68L 98 71L 99 75L 100 79L 101 82L 102 84L 103 79L 104 77L 105 81L 106 76L 107 78L 109 78L 110 71L 111 74L 112 82L 113 72L 114 57L 115 78L 116 86L 117 88L 118 88L 119 86L 120 87L 121 87L 122 89L 123 90L 124 64L 125 19L 126 23L 127 56L 128 73L 129 81L 130 87L 131 89L 132 90L 133 92L 134 93L 135 86L 136 85L 137 89L 138 92L 140 93L 141 95L 142 96L 143 90L 144 94L 145 91L 146 92L 147 89L 148 86L 149 63L 150 85L 151 93L 152 95L 153 97L 154 99L 155 87L 156 94L 157 97L 158 97L 159 96L 160 98L 161 98L 162 96L 163 95L 164 86L 165 93L 166 97L 167 98L 168 96L 169 89L 171 74L 172 63L 173 79L 174 92L 175 95L 176 97L 177 99L 178 99L 179 99L 180 99L 181 97L 182 91L 183 98L 184 101L 185 103L 186 103L 187 99L 188 98L 189 98L 190 80L 191 87L 192 84L 193 74L 194 75L 195 75L 196 90L 197 91L 198 98L 199 99L 200 99L 202 100L 203 101L 204 102L 205 101L 206 100L 207 100L 208 102L 209 101L 210 102L 211 104L 212 103L 213 98L 214 73L 215 66L 216 69L 217 70L 218 79L 219 89L 220 95L 221 95L 222 96L 223 100L 224 101L 225 102L 226 103L 227 104L 228 105L 229 105L 230 105L 231 104L 233 104L 234 102L 235 101L 236 102L 237 103L 238 102L 239 102L 240 103L 241 98L 242 53L 243 50L 244 54L 245 80L 246 74L 247 86L 248 91L 249 97L 250 99L 251 99L 252 101L 253 103L 254 103L 255 102L 256 101L 257 101L 258 101L 259 102L 260 102L 261 102L 262 102L 264 104L 265 102L 266 96L 267 80L 268 78L 269 87L 270 89L 271 81L 272 89L 273 94L 274 96L 275 99L 276 103L 277 104L 278 105L 279 105L 280 106L 281 106L 282 106L 283 105L 284 106L 285 106L 286 107L 287 107L 288 108L 289 108L 290 96L 291 19L 292 9L 293 51L 295 74L 296 83L 297 94L 298 98L 299 95L 300 99L 301 102L 302 103L 303 105L 304 106L 305 105L 306 107L 307 107L 308 108L 309 106" stroke-width="1px" stroke="#63e72c" fill="transparent"/>
			<text x="3%" y="85.10498651467503" class="text">0.014</text>
			<line x1="0" y1="108.00574061206473" x2="100%" y2="108.00574061206473" stroke="rgba(117, 111, 111, 0.5)" />
		</svg>