<svg width="310" height="135" xmlns="http://www.w3.org/2000/svg" style="outline: 1px solid #ccc" >
			<style>
				.text { font: italic 10px sans-serif; fill: #756f6f; }
			</style>
			<path d="M 0 0 L 0 -48300L 1 115L 1 119L 2 123L 2 126L 3 126L 3 127L 4 128L 5 129L 5 129L 6 130L 6 130L 7 130L 7 131L 8 131L 8 131L 9 131L 10 132L 10 132L 11 132L 11 132L 12 132L 12 132L 13 132L 14 132L 14 132L 15 133L 15 133L 16 133L 16 133L 17 133L 17 133L 18 133L 19 133L 19 133L 20 133L 20 133L 21 133L 21 133L 22 133L 23 133L 23 133L 24 133L 24 133L 25 133L 25 133L 26 133L 26 134L 27 134L 28 134L 28 134L 29 133L 29 134L 30 134L 30 133L 31 134L 32 134L 32 134L 33 134L 33 134L 34 134L 34 134L 35 134L 36 134L 36 134L 37 134L 37 134L 38 134L 38 134L 39 134L 39 134L 40 134L 41 134L 41 134L 42 134L 42 134L 43 134L 43 134L 44 134L 45 134L 45 134L 46 134L 46 134L 47 134L 47 134L 48 134L 48 134L 49 134L 50 134L 50 134L 51 134L 51 134L 52 134L 52 134L 53 134L 54 134L 54 134L 55 134L 55 134L 56 134L 56 134L 57 134L 57 134L 58 134L 59 134L 59 134L 60 133L 60 111L 61 132L 61 132L 62 134L 63 134L 63 134L 64 134L 64 134L 65 134L 65 134L 66 134L 67 134L 67 134L 68 134L 68 134L 69 134L 69 134L 70 134L 70 134L 71 134L 72 133L 72 133L 73 133L 73 134L 74 134L 74 134L 75 134L 76 134L 76 134L 77 134L 77 134L 78 134L 78 134L 79 134L 79 134L 80 132L 81 130L 81 130L 82 133L 82 134L 83 134L 83 134L 84 134L 85 134L 85 134L 86 134L 86 134L 87 134L 87 134L 88 134L 88 134L 89 134L 90 134L 90 134L 91 134L 91 134L 92 133L 92 133L 93 133L 94 134L 94 134L 95 134L 95 134L 96 134L 96 134L 97 134L 98 134L 98 134L 99 134L 99 134L 100 134L 100 134L 101 134L 101 134L 102 134L 103 134L 103 134L 104 134L 104 134L 105 134L 105 134L 106 134L 107 133L 107 133L 108 133L 108 133L 109 134L 109 134L 110 134L 110 134L 111 134L 112 134L 112 134L 113 134L 113 134L 114 134L 114 134L 115 134L 116 134L 116 134L 117 134L 117 134L 118 134L 118 134L 119 134L 119 134L 120 134L 121 132L 121 126L 122 127L 122 131L 123 132L 123 133L 124 133L 125 133L 125 134L 126 134L 126 134L 127 134L 127 134L 128 134L 129 134L 129 134L 130 134L 130 134L 131 134L 131 134L 132 134L 132 134L 133 134L 134 134L 134 134L 135 134L 135 134L 136 134L 136 134L 137 134L 138 134L 138 134L 139 134L 139 134L 140 134L 140 134L 141 134L 141 134L 142 134L 143 134L 143 134L 144 134L 144 134L 145 134L 145 134L 146 134L 147 134L 147 134L 148 134L 148 134L 149 134L 149 134L 150 134L 150 134L 151 134L 152 132L 152 129L 153 129L 153 129L 154 132L 154 133L 155 133L 156 134L 156 134L 157 134L 157 134L 158 134L 158 134L 159 134L 160 134L 160 134L 161 134L 161 134L 162 134L 162 134L 163 134L 163 134L 164 134L 165 134L 165 134L 166 134L 166 134L 167 134L 167 134L 168 134L 169 134L 169 134L 170 134L 170 133L 171 132L 171 132L 172 132L 172 133L 173 133L 174 134L 174 134L 175 134L 175 134L 176 134L 176 134L 177 134L 178 134L 178 134L 179 134L 179 134L 180 134L 180 134L 181 134L 181 134L 182 134L 183 134L 183 134L 184 134L 184 134L 185 134L 185 133L 186 134L 187 134L 187 134L 188 134L 188 134L 189 134L 189 134L 190 134L 191 134L 191 134L 192 134L 192 134L 193 134L 193 134L 194 134L 194 134L 195 134L 196 134L 196 134L 197 134L 197 132L 198 131L 198 130L 199 132L 200 133L 200 133L 201 134L 201 134L 202 134L 202 134L 203 134L 203 134L 204 134L 205 134L 205 134L 206 134L 206 134L 207 134L 207 134L 208 134L 209 134L 209 134L 210 134L 210 134L 211 134L 211 134L 212 134L 212 134L 213 134L 214 133L 214 133L 215 133L 215 133L 216 134L 216 134L 217 134L 218 134L 218 134L 219 134L 219 134L 220 134L 220 134L 221 134L 222 134L 222 134L 223 134L 223 134L 224 134L 224 134L 225 134L 225 134L 226 134L 227 134L 227 134L 228 134L 228 134L 229 134L 229 134L 230 134L 231 134L 231 134L 232 134L 232 134L 233 134L 233 134L 234 134L 234 134L 235 134L 236 134L 236 133L 237 128L 237 127L 238 130L 238 132L 239 132L 240 133L 240 133L 241 134L 241 134L 242 134L 242 134L 243 134L 243 134L 244 134L 245 134L 245 134L 246 134L 246 134L 247 134L 247 134L 248 134L 249 134L 249 134L 250 134L 250 134L 251 134L 251 134L 252 134L 253 134L 253 134L 254 134L 254 134L 255 134L 255 134L 256 134L 256 134L 257 134L 258 134L 258 134L 259 134L 259 134L 260 134L 260 134L 261 134L 262 134L 262 134L 263 134L 263 134L 264 134L 264 134L 265 134L 265 134L 266 134L 267 134L 267 134L 268 134L 268 134L 269 134L 269 134L 270 127L 271 126L 271 -82L 272 132L 272 133L 273 133L 273 134L 274 134L 274 134L 275 134L 276 134L 276 134L 277 134L 277 134L 278 134L 278 134L 279 134L 280 134L 280 134L 281 134L 281 134L 282 134L 282 134L 283 134L 284 134L 284 134L 285 134L 285 134L 286 134L 286 134L 287 133L 287 132L 288 132L 289 133L 289 133L 290 134L 290 134L 291 134L 291 134L 292 134L 293 134L 293 134L 294 134L 294 134L 295 134L 295 134L 296 134L 296 134L 297 134L 298 134L 298 134L 299 134L 299 134L 300 134L 300 134L 301 134L 302 134L 302 132L 303 131L 303 132L 304 133L 304 134L 305 134L 305 134L 306 134L 307 134L 307 134L 308 134L 308 134L 309 134L 309 134" stroke-width="1px" stroke="#63e72c" fill="transparent"/>
			<text x="3%" y="107.33626913204382" class="text">0.012</text>
			<line x1="0" y1="134.26570461212907" x2="100%" y2="134.26570461212907" stroke="rgba(117, 111, 111, 0.5)" />
		</svg>