<svg width="160" height="50" xmlns="http://www.w3.org/2000/svg" style="outline: 1px solid #ccc" >
			<style>
				.text { font: italic 10px sans-serif; fill: #756f6f; }
			</style>
			<path d="M 0 0 L 0 -15177.491603918395L 0.17777777777777778 -94.78709752980222L 0.35555555555555557 -60.66382416315358L 0.5333333333333333 -44.87049495741918L 0.7111111111111111 -24.466826203973937L 0.888888888888889 -17.450699403739264L 1.0666666666666667 -9.376045531428822L 1.2444444444444445 -2.794632762467174L 1.4222222222222223 3.4623805626998134L 1.6 8.068163482073295L 1.777777777777778 11.1697273568141L 1.9555555555555557 15.255695236052247L 2.1333333333333333 17.37829695223929L 2.3111111111111113 15.677086421787514L 2.488888888888889 18.69260588121089L 2.666666666666667 21.689538508203885L 2.8444444444444446 23.602345627634193L 3.022222222222222 25.322879501552592L 3.2 27.368734955036302L 3.3777777777777778 28.44008209624867L 3.555555555555556 28.717969428875037L 3.7333333333333334 29.57834691091983L 3.9111111111111114 29.787063878628842L 4.0888888888888895 30.04015177387209L 4.266666666666667 30.805884339682553L 4.444444444444445 32.242264716101765L 4.622222222222223 33.24097817224831L 4.8 34.12206935194108L 4.977777777777778 34.73673440918705L 5.155555555555556 34.810940233350614L 5.333333333333334 34.87626040702754L 5.511111111111111 34.88414987149145L 5.688888888888889 34.427278526283196L 5.866666666666667 32.92984484686133L 6.044444444444444 32.00162043060664L 6.222222222222222 31.42399680062879L 6.4 32.181323933383084L 6.577777777777778 31.78737640810514L 6.7555555555555555 30.126139999915384L 6.933333333333334 32.97071463578234L 7.111111111111112 33.4976144489919L 7.288888888888889 35.21777648458786L 7.466666666666667 35.87641033824025L 7.644444444444445 36.3543599280732L 7.822222222222223 36.06188822093342L 8 36.76827235453405L 8.177777777777779 36.90090625967408L 8.355555555555556 37.07242161149635L 8.533333333333333 37.35309913366494L 8.711111111111112 37.460187174235315L 8.88888888888889 37.65177232124769L 9.066666666666666 37.76390668788127L 9.244444444444445 37.95727306532954L 9.422222222222222 38.00132098814808L 9.6 38.01287529487527L 9.777777777777779 38.08689282880559L 9.955555555555556 38.04784381132637L 10.133333333333333 38.08908959272241L 10.311111111111112 37.811216904171964L 10.488888888888889 13.879753307122442L 10.666666666666668 -39.5023271415439L 10.844444444444445 -3.741973638872153L 11.022222222222222 5.857492715563062L 11.200000000000001 9.30238998685983L 11.377777777777778 19.886759413174254L 11.555555555555555 25.150574772301272L 11.733333333333334 25.84420315870844L 11.911111111111111 29.17425094275354L 12.088888888888889 30.236881962058025L 12.266666666666667 31.792428635960583L 12.444444444444445 32.96103767697316L 12.622222222222224 33.82455362385363L 12.8 34.94576640424613L 12.977777777777778 35.24071685398224L 13.155555555555557 35.687747477994236L 13.333333333333334 35.57846547152202L 13.511111111111111 36.38460668993685L 13.68888888888889 37.00493283602686L 13.866666666666667 37.402159149150094L 14.044444444444444 37.55590233289354L 14.222222222222223 37.64631896416915L 14.4 37.81539806823767L 14.577777777777778 37.946356922979874L 14.755555555555556 38.1410196009347L 14.933333333333334 38.28220629296745L 15.111111111111112 38.39188934148483L 15.28888888888889 38.22838199074899L 15.466666666666667 35.01053029188136L 15.644444444444446 21.095049005559456L 15.822222222222223 19.310782198063034L 16 14.756211919423805L 16.177777777777777 20.8632374059897L 16.355555555555558 25.0142635127046L 16.533333333333335 29.15522099485428L 16.711111111111112 31.184978898082935L 16.88888888888889 33.05213046382737L 17.066666666666666 34.361039593853874L 17.244444444444444 35.33272596992707L 17.422222222222224 36.25261878850709L 17.6 36.818496386202405L 17.77777777777778 37.10824237021984L 17.955555555555556 36.63950769945981L 18.133333333333333 36.26359892665456L 18.311111111111114 36.9321992500975L 18.48888888888889 37.523234439681644L 18.666666666666668 37.74612515377056L 18.844444444444445 38.10310804317384L 19.022222222222222 38.14791486996738L 19.2 37.93954905477871L 19.37777777777778 38.10640410549372L 19.555555555555557 38.512793801570055L 19.733333333333334 38.652909572075544L 19.91111111111111 38.66010888634213L 20.08888888888889 38.68511213321352L 20.266666666666666 38.90163680188L 20.444444444444446 38.93274974481764L 20.622222222222224 39.01809222837667L 20.8 38.81024076353428L 20.977777777777778 36.3047121334019L 21.155555555555555 29.494063013113706L 21.333333333333336 12.498258756456842L 21.511111111111113 -1.132518587861675L 21.68888888888889 -2.293516030669764L 21.866666666666667 22.646408690391628L 22.044444444444444 26.40806916736132L 22.22222222222222 31.03289297690859L 22.400000000000002 32.833867833714194L 22.57777777777778 34.32388301285094L 22.755555555555556 35.58681598248353L 22.933333333333334 36.693324702295484L 23.11111111111111 37.291470872538554L 23.28888888888889 37.57093292164058L 23.46666666666667 37.81475263021025L 23.644444444444446 38.198105106053006L 23.822222222222223 38.33915690830503L 24 38.49599467639095L 24.177777777777777 38.547760208046995L 24.355555555555558 38.68293937521527L 24.533333333333335 38.77654371731912L 24.711111111111112 38.89978608240309L 24.88888888888889 38.97842942988123L 25.066666666666666 39.05739688103253L 25.244444444444447 39.090938062064524L 25.422222222222224 39.12129271806482L 25.6 39.24483343852548L 25.77777777777778 39.20156882873898L 25.955555555555556 38.71641629781546L 26.133333333333333 35.731739930232884L 26.311111111111114 27.861717499633457L 26.48888888888889 8.552284206943547L 26.666666666666668 -0.01660437999996134L 26.844444444444445 7.773436099998193L 27.022222222222222 12.437976395175433L 27.2 23.105151680695503L 27.37777777777778 27.40804857164072L 27.555555555555557 29.851519467749558L 27.733333333333334 33.17829614042506L 27.91111111111111 34.57601494326332L 28.08888888888889 34.91429195755797L 28.26666666666667 36.41610390589463L 28.444444444444446 37.29818623517478L 28.622222222222224 37.5989933064068L 28.8 37.98394059234842L 28.977777777777778 38.20956012533361L 29.155555555555555 38.40796378199905L 29.333333333333336 38.41149133391808L 29.511111111111113 38.50757957145844L 29.68888888888889 38.51491302256068L 29.866666666666667 38.54093497403774L 30.044444444444444 38.61605710394974L 30.222222222222225 38.3474855815475L 30.400000000000002 38.35586059088789L 30.57777777777778 38.136297533805845L 30.755555555555556 38.197383401803975L 30.933333333333334 38.401004744047796L 31.11111111111111 38.46883280867135L 31.28888888888889 38.71903946785091L 31.46666666666667 38.79172211485601L 31.644444444444446 38.85893771047097L 31.822222222222223 39.0979428571357L 32 39.20034067016699L 32.17777777777778 38.17563401846287L 32.355555555555554 38.397875852546555L 32.53333333333333 38.06276837660051L 32.711111111111116 28.54218487971239L 32.88888888888889 20.181020239692412L 33.06666666666667 23.405785507377534L 33.24444444444445 27.90932659620712L 33.422222222222224 29.439517973962637L 33.6 26.529997166865353L 33.77777777777778 22.727064647350534L 33.955555555555556 30.676892497008875L 34.13333333333333 33.30653039151147L 34.31111111111111 34.419257098884735L 34.48888888888889 36.37988739546715L 34.66666666666667 37.352999378088285L 34.84444444444445 37.836536890978934L 35.022222222222226 38.28842072753831L 35.2 38.38224588794293L 35.37777777777778 38.70677509125435L 35.55555555555556 38.96474853314736L 35.733333333333334 39.0529255291715L 35.91111111111111 39.16199834542611L 36.08888888888889 39.1535017424254L 36.266666666666666 39.00211485427721L 36.44444444444444 38.98659016427172L 36.62222222222223 38.982586800927294L 36.800000000000004 39.1061786221572L 36.97777777777778 39.09515312752348L 37.15555555555556 39.0617441384592L 37.333333333333336 39.117696110583466L 37.51111111111111 38.85057292469349L 37.68888888888889 38.30238849456411L 37.86666666666667 38.36935368137376L 38.044444444444444 38.09699364189861L 38.22222222222222 38.189254259994755L 38.4 38.14218922373182L 38.577777777777776 38.53353446182298L 38.75555555555556 38.897246398852694L 38.93333333333334 39.03059796908755L 39.111111111111114 39.196122376316616L 39.28888888888889 39.406073964176215L 39.46666666666667 39.45940792852287L 39.644444444444446 39.57044399954757L 39.82222222222222 39.622368109857916L 40 39.66252550670079L 40.17777777777778 39.65487567644138L 40.355555555555554 39.6848537751748L 40.53333333333333 39.702600663151486L 40.711111111111116 39.753329037827484L 40.88888888888889 39.767803965171666L 41.06666666666667 39.75745034721455L 41.24444444444445 39.63279623459532L 41.422222222222224 38.30488004459612L 41.6 35.92472886218868L 41.77777777777778 -60.52592114582194L 41.955555555555556 -67.49504141220815L 42.13333333333333 -27.338690582401753L 42.31111111111111 2.048942006346209L 42.48888888888889 15.612400820327984L 42.66666666666667 22.110704738628485L 42.84444444444445 24.696763244253113L 43.022222222222226 28.989947060579023L 43.2 31.720537245343824L 43.37777777777778 33.180946132219034L 43.55555555555556 34.299169103237276L 43.733333333333334 35.593388118015696L 43.91111111111111 36.33959119079012L 44.08888888888889 36.71534239661403L 44.266666666666666 36.96802077549861L 44.44444444444444 37.0192064063012L 44.62222222222223 37.515968967353544L 44.800000000000004 37.872372755216475L 44.97777777777778 38.09044846077861L 45.15555555555556 38.20556795774043L 45.333333333333336 37.81936166717503L 45.51111111111111 38.061933129449955L 45.68888888888889 38.330145537488455L 45.86666666666667 38.44652354014333L 46.044444444444444 38.69753473706988L 46.22222222222222 38.67671303975462L 46.4 38.567280727997826L 46.57777777777778 38.636492448888646L 46.75555555555556 38.411598798233655L 46.93333333333334 37.4212901180116L 47.111111111111114 37.705620365853974L 47.28888888888889 37.07668007532506L 47.46666666666667 37.07397939481023L 47.644444444444446 36.0827637715347L 47.82222222222222 35.2321547487067L 48 33.39859973781856L 48.17777777777778 33.653334964887684L 48.355555555555554 32.30190484157775L 48.53333333333334 34.248323598773766L 48.711111111111116 35.93651305781184L 48.88888888888889 37.226226486451544L 49.06666666666667 38.075156722742626L 49.24444444444445 38.456266844884844L 49.422222222222224 38.77565252400035L 49.6 38.96855089074289L 49.77777777777778 39.10715296816197L 49.955555555555556 39.19366331492972L 50.13333333333333 39.288384381249415L 50.31111111111111 39.29293482092692L 50.488888888888894 39.2980556297387L 50.66666666666667 39.35374470868037L 50.84444444444445 39.40873390084915L 51.022222222222226 39.47872359084893L 51.2 39.492501199369826L 51.37777777777778 39.32463804140035L 51.55555555555556 38.39582001836807L 51.733333333333334 37.8183069026196L 51.91111111111111 37.081084583758056L 52.08888888888889 36.677589032013145L 52.266666666666666 34.17532155743497L 52.44444444444445 31.594341905127422L 52.62222222222223 22.20315305971891L 52.800000000000004 21.40446621359781L 52.97777777777778 23.964283063439243L 53.15555555555556 24.17772073622885L 53.333333333333336 29.612073037320084L 53.51111111111111 31.370276504402852L 53.68888888888889 33.69656158055937L 53.86666666666667 35.07431793044454L 54.044444444444444 36.270569810605934L 54.22222222222222 37.248489180835804L 54.4 37.92134660248303L 54.57777777777778 38.304303538518226L 54.75555555555556 38.59176204937635L 54.93333333333334 38.81663829967876L 55.111111111111114 38.91481464590881L 55.28888888888889 39.038514255770124L 55.46666666666667 39.19311111772169L 55.644444444444446 39.19104799099577L 55.82222222222222 39.256322675091184L 56 39.228384417357375L 56.17777777777778 39.29535314925698L 56.355555555555554 39.39792805247918L 56.53333333333334 39.488392215016816L 56.711111111111116 39.5501522882653L 56.88888888888889 39.531125430397154L 57.06666666666667 39.53685872799829L 57.24444444444445 39.60645146747172L 57.422222222222224 39.63334886094927L 57.6 39.681389022400545L 57.77777777777778 39.60534554750637L 57.955555555555556 39.566918570097094L 58.13333333333333 39.50472868777847L 58.31111111111111 39.189552827849454L 58.488888888888894 37.82545529885067L 58.66666666666667 28.67253408505892L 58.84444444444445 18.558964620767817L 59.022222222222226 5.813382713806369L 59.2 10.650566486224072L 59.37777777777778 20.998362146851342L 59.55555555555556 28.90406777341675L 59.733333333333334 30.652277703463746L 59.91111111111111 31.854456752993727L 60.08888888888889 34.52689295244927L 60.266666666666666 35.863622254578466L 60.44444444444445 36.915435287653835L 60.62222222222223 37.448076113499155L 60.800000000000004 37.98523736995976L 60.97777777777778 38.35919084388757L 61.15555555555556 38.589322466173556L 61.333333333333336 38.48918848358785L 61.51111111111111 38.571029201398225L 61.68888888888889 38.761950518964206L 61.86666666666667 38.8871831537393L 62.044444444444444 39.06660728847943L 62.22222222222222 39.14796232810023L 62.400000000000006 39.169452750765856L 62.57777777777778 39.2430758357222L 62.75555555555556 39.25512589739031L 62.93333333333334 39.08128909796355L 63.111111111111114 38.906145614152265L 63.28888888888889 38.78871316021443L 63.46666666666667 38.39054770402028L 63.644444444444446 38.30242936677119L 63.82222222222222 37.967765741999976L 64 37.700061008432876L 64.17777777777778 37.34690734481848L 64.35555555555555 32.0568799084175L 64.53333333333333 28.839451237313046L 64.71111111111111 32.2946010574949L 64.88888888888889 33.35067547788744L 65.06666666666666 34.24916582891241L 65.24444444444444 34.75298387167988L 65.42222222222223 35.92523445581842L 65.60000000000001 35.19608655739825L 65.77777777777779 37.24866143705264L 65.95555555555556 38.227823128919965L 66.13333333333334 38.422122372731074L 66.31111111111112 38.83533368114731L 66.4888888888889 39.01747642804435L 66.66666666666667 39.14730094241706L 66.84444444444445 39.248860913408706L 67.02222222222223 39.3451982273982L 67.2 39.391325264435835L 67.37777777777778 39.38142879106019L 67.55555555555556 39.43869613763913L 67.73333333333333 39.4476456675099L 67.91111111111111 39.36671267858735L 68.08888888888889 39.20377338046857L 68.26666666666667 38.99954049634202L 68.44444444444444 39.05635507714021L 68.62222222222222 39.173402505514964L 68.8 39.309263050275746L 68.97777777777777 39.38583584562549L 69.15555555555555 39.39274339757868L 69.33333333333334 39.518399481861984L 69.51111111111112 39.60617563646326L 69.6888888888889 39.638873125504034L 69.86666666666667 39.54209270519127L 70.04444444444445 39.562690086007734L 70.22222222222223 39.2545558191604L 70.4 30.21177632244604L 70.57777777777778 15.709638673388476L 70.75555555555556 13.958045743224588L 70.93333333333334 -9.914958059309534L 71.11111111111111 22.953587388670325L 71.28888888888889 27.68557521804608L 71.46666666666667 29.98080557651067L 71.64444444444445 33.86038714139886L 71.82222222222222 35.52890066477527L 72 36.865348893805475L 72.17777777777778 37.66684759066234L 72.35555555555555 38.05510522587234L 72.53333333333333 38.42963196365024L 72.71111111111111 38.596136524024374L 72.88888888888889 38.7766319086781L 73.06666666666666 38.879043627226245L 73.24444444444445 38.97779896840963L 73.42222222222223 39.099051907736595L 73.60000000000001 39.12319606737156L 73.77777777777779 39.2139900220794L 73.95555555555556 39.25352501769294L 74.13333333333334 39.31512981316081L 74.31111111111112 39.29791907614052L 74.4888888888889 38.78150155734171L 74.66666666666667 38.03975225997966L 74.84444444444445 36.8976206588612L 75.02222222222223 36.48944308298617L 75.2 35.563842338136794L 75.37777777777778 36.5062527053691L 75.55555555555556 37.09328956516037L 75.73333333333333 38.27063928903987L 75.91111111111111 38.67241582843275L 76.08888888888889 38.93443017213522L 76.26666666666667 39.123995054791536L 76.44444444444444 39.22033256613099L 76.62222222222222 39.288965184928536L 76.8 39.403339893414284L 76.97777777777777 39.45971429250596L 77.15555555555555 39.5303571817652L 77.33333333333334 39.57621031647129L 77.51111111111112 39.605307703211665L 77.6888888888889 39.61046788256523L 77.86666666666667 39.613198392411974L 78.04444444444445 39.59241662106985L 78.22222222222223 39.55004503494822L 78.4 39.285421966326716L 78.57777777777778 38.061850036615255L 78.75555555555556 33.27563399289841L 78.93333333333334 32.10183352169062L 79.11111111111111 32.64935082945738L 79.28888888888889 31.904916940664794L 79.46666666666667 29.028272511565188L 79.64444444444445 6.389138904674475L 79.82222222222222 14.335224323195135L 80 22.987353082911692L 80.17777777777778 28.95688217504237L 80.35555555555555 32.10550002904399L 80.53333333333333 32.738648446314784L 80.71111111111111 35.64255628157905L 80.88888888888889 36.78133591973789L 81.06666666666666 37.60915384957438L 81.24444444444445 38.007114215719966L 81.42222222222223 38.26262972520494L 81.60000000000001 38.51303401534683L 81.77777777777779 38.74700795540773L 81.95555555555556 38.909278571753525L 82.13333333333334 39.03525885976686L 82.31111111111112 39.14240873609718L 82.4888888888889 39.15627157762828L 82.66666666666667 39.26666310665652L 82.84444444444445 39.21022708453775L 83.02222222222223 39.23467561835619L 83.2 39.178917287285046L 83.37777777777778 39.28556660398492L 83.55555555555556 39.38275419957783L 83.73333333333333 39.45502676081697L 83.91111111111111 39.473829050045595L 84.08888888888889 39.4162418336115L 84.26666666666667 39.37136732006607L 84.44444444444444 39.307068529273046L 84.62222222222222 39.34723657235921L 84.8 39.367065319261215L 84.97777777777777 39.331968310567845L 85.15555555555557 39.09124597981329L 85.33333333333334 38.19876932669274L 85.51111111111112 36.37672073545155L 85.6888888888889 35.845492043947594L 85.86666666666667 35.592321050157445L 86.04444444444445 36.246525589109744L 86.22222222222223 36.778449307153956L 86.4 36.74338421323341L 86.57777777777778 37.62341356883337L 86.75555555555556 38.06444408045637L 86.93333333333334 38.59350091213494L 87.11111111111111 39.026373497082666L 87.28888888888889 39.177042439785666L 87.46666666666667 39.265508559487664L 87.64444444444445 39.41861893135415L 87.82222222222222 39.50948848515432L 88 39.58689319194258L 88.17777777777778 39.64747559590717L 88.35555555555555 39.66144546661659L 88.53333333333333 39.69460978680285L 88.71111111111111 39.70274435785565L 88.88888888888889 39.66670821702387L 89.06666666666668 39.70913213365989L 89.24444444444445 39.71579005438136L 89.42222222222223 39.73807822709018L 89.60000000000001 39.732190505791145L 89.77777777777779 39.76789415559368L 89.95555555555556 39.76618597777956L 90.13333333333334 39.77898515339386L 90.31111111111112 39.73705484024197L 90.4888888888889 39.67054317759652L 90.66666666666667 39.606809988565836L 90.84444444444445 39.49071568786385L 91.02222222222223 38.66945567277004L 91.2 34.9535514689472L 91.37777777777778 30.549383967177366L 91.55555555555556 20.428985342002797L 91.73333333333333 15.08120033283997L 91.91111111111111 9.613849769848365L 92.08888888888889 25.268475799798793L 92.26666666666667 32.75773552905724L 92.44444444444444 34.02952567464407L 92.62222222222222 27.239244261382883L 92.8 36.426771597922816L 92.97777777777777 37.12346974423335L 93.15555555555557 37.61053592031358L 93.33333333333334 38.15415643173414L 93.51111111111112 38.56687856315918L 93.6888888888889 38.83195367021952L 93.86666666666667 39.00404780653101L 94.04444444444445 39.09872046414329L 94.22222222222223 39.140341876734524L 94.4 39.24628908998613L 94.57777777777778 39.35303794444199L 94.75555555555556 39.43985669273287L 94.93333333333334 39.47134996823L 95.11111111111111 39.50823369502452L 95.28888888888889 39.505764325329864L 95.46666666666667 39.516167158838776L 95.64444444444445 39.57717564415426L 95.82222222222222 39.59148045774701L 96 39.61832023943928L 96.17777777777778 39.64044837321652L 96.35555555555555 39.663076311831226L 96.53333333333333 39.64425965722401L 96.71111111111111 39.589018843741144L 96.88888888888889 39.515832702754146L 97.06666666666668 39.137381705827416L 97.24444444444445 38.624557135495905L 97.42222222222223 37.7195930204749L 97.60000000000001 37.298549128641326L 97.77777777777779 37.47574947896086L 97.95555555555556 38.00037192354765L 98.13333333333334 38.188732812041806L 98.31111111111112 38.71646779618762L 98.4888888888889 39.19163748518571L 98.66666666666667 39.38296027834038L 98.84444444444445 39.52189232717419L 99.02222222222223 39.622927395266636L 99.2 39.66740837481561L 99.37777777777778 39.677285846859675L 99.55555555555556 39.70020038319631L 99.73333333333333 39.68033941872136L 99.91111111111111 39.75159672769203L 100.08888888888889 39.768620443964586L 100.26666666666667 39.817654427360054L 100.44444444444444 39.83818925758291L 100.62222222222222 39.842551013463385L 100.8 39.83431687265032L 100.97777777777779 39.80553992103447L 101.15555555555557 39.78162643052895L 101.33333333333334 39.227146938488445L 101.51111111111112 37.937833331077904L 101.6888888888889 34.999766710419465L 101.86666666666667 27.632300861705108L 102.04444444444445 11.365375506345593L 102.22222222222223 -15.796230953572746L 102.4 -12.363478441542348L 102.57777777777778 -8.990859336751647L 102.75555555555556 10.2275065728996L 102.93333333333334 19.931552622863663L 103.11111111111111 30.479910426500957L 103.28888888888889 26.72758089423745L 103.46666666666667 31.87788416805768L 103.64444444444445 32.9394298355134L 103.82222222222222 35.19340238577773L 104 36.601961107848076L 104.17777777777778 37.2353388252459L 104.35555555555555 37.675145175797695L 104.53333333333333 38.05891852219257L 104.71111111111111 38.47133541300015L 104.8888888888889 38.68763337940073L 105.06666666666668 38.827673261031634L 105.24444444444445 38.9630404445067L 105.42222222222223 39.03086544430161L 105.60000000000001 39.12603454734882L 105.77777777777779 39.194495590867646L 105.95555555555556 39.25755899267749L 106.13333333333334 38.80541567747626L 106.31111111111112 38.16774692968308L 106.4888888888889 38.17287249439178L 106.66666666666667 38.42694014964121L 106.84444444444445 38.67184332735961L 107.02222222222223 38.58820001632361L 107.2 38.991818419401326L 107.37777777777778 38.90971611275535L 107.55555555555556 39.108621640812245L 107.73333333333333 39.224321529953116L 107.91111111111111 39.3034839053973L 108.08888888888889 39.4469906991456L 108.26666666666667 39.455586699960314L 108.44444444444444 39.552808656111594L 108.62222222222222 39.57738034572664L 108.8 39.62231154182924L 108.97777777777779 39.42231656777672L 109.15555555555557 39.11037538933665L 109.33333333333334 38.309947141984885L 109.51111111111112 35.503421183336094L 109.6888888888889 32.73664836651183L 109.86666666666667 13.034251004185762L 110.04444444444445 23.40256661353787L 110.22222222222223 27.735268842076344L 110.4 24.417893883924656L 110.57777777777778 30.643175061862742L 110.75555555555556 31.206978907183405L 110.93333333333334 33.13628743500615L 111.11111111111111 35.2510820427412L 111.28888888888889 36.46878535233581L 111.46666666666667 37.50977670025818L 111.64444444444445 37.90455807902915L 111.82222222222222 38.37585690453364L 112 38.62291902879583L 112.17777777777778 38.85478905036888L 112.35555555555555 39.04416724817307L 112.53333333333333 39.16097408685243L 112.71111111111111 39.250806197236365L 112.8888888888889 39.24209559804314L 113.06666666666668 38.629925402349L 113.24444444444445 38.98857441194085L 113.42222222222223 38.893524162774625L 113.60000000000001 38.78340280903828L 113.77777777777779 38.833635278650256L 113.95555555555556 38.797860050956714L 114.13333333333334 39.041295677303545L 114.31111111111112 39.32885615059523L 114.4888888888889 39.43014786996771L 114.66666666666667 39.50091311841589L 114.84444444444445 39.52194982138802L 115.02222222222223 39.59302544125805L 115.2 39.60259339681559L 115.37777777777778 39.64848866046304L 115.55555555555556 39.65126459638122L 115.73333333333333 39.62608917261099L 115.91111111111111 39.440360633536216L 116.08888888888889 37.813387154450126L 116.26666666666667 35.02671041808945L 116.44444444444444 32.79725507757851L 116.62222222222222 32.80729150107193L 116.80000000000001 32.776468576746815L 116.97777777777779 36.07184630780405L 117.15555555555557 36.78042496566685L 117.33333333333334 37.68215185673572L 117.51111111111112 38.414073495566385L 117.6888888888889 38.73687053774364L 117.86666666666667 39.019091686490086L 118.04444444444445 39.101991818725224L 118.22222222222223 38.98583252803621L 118.4 39.169435087161446L 118.57777777777778 39.33172020610511L 118.75555555555556 39.46342925204374L 118.93333333333334 39.49710559859672L 119.11111111111111 39.557729509611605L 119.28888888888889 39.613325511298456L 119.46666666666667 39.64169051806279L 119.64444444444445 39.67194701415545L 119.82222222222222 39.694561880017766L 120 39.69105643723172L 120.17777777777778 39.684629459493785L 120.35555555555555 39.611583346995225L 120.53333333333333 39.66360800631467L 120.71111111111112 39.68538521171506L 120.8888888888889 39.718108697035035L 121.06666666666668 39.69040862251768L 121.24444444444445 39.73588016420183L 121.42222222222223 39.75751311638927L 121.60000000000001 39.81152999388237L 121.77777777777779 39.836684692446774L 121.95555555555556 39.80435956195951L 122.13333333333334 39.73149764623829L 122.31111111111112 39.61679198664929L 122.4888888888889 38.767156141884335L 122.66666666666667 36.970261853299775L 122.84444444444445 33.337411063739886L 123.02222222222223 -279.9632244547949L 123.2 -181.3613941922548L 123.37777777777778 -16.550037081103255L 123.55555555555556 14.860314508602833L 123.73333333333333 23.399973710879923L 123.91111111111111 28.451084622480796L 124.08888888888889 31.53195451318455L 124.26666666666667 33.398971540924194L 124.44444444444444 34.62786155415452L 124.62222222222222 35.969258486173L 124.80000000000001 36.979800722253L 124.97777777777779 37.58205632212719L 125.15555555555557 37.93201218876688L 125.33333333333334 38.25283989491052L 125.51111111111112 38.33921537552124L 125.6888888888889 38.38512275875213L 125.86666666666667 38.657133278756525L 126.04444444444445 38.81864551779893L 126.22222222222223 38.77341848575151L 126.4 38.991344735928934L 126.57777777777778 39.1477167796412L 126.75555555555556 39.223906400465054L 126.93333333333334 39.28886323964847L 127.11111111111111 39.32844949851864L 127.28888888888889 39.31288595487163L 127.46666666666667 39.35168759159504L 127.64444444444445 39.35266034078241L 127.82222222222222 39.38735461492022L 128 39.451663650336265L 128.17777777777778 39.454802208361826L 128.35555555555555 39.45562526055189L 128.53333333333333 39.37962209092161L 128.7111111111111 38.94531115906606L 128.88888888888889 36.91661510344005L 129.06666666666666 33.18041138443394L 129.24444444444444 30.402268909692634L 129.42222222222222 30.38290761290379L 129.6 31.188194519138214L 129.77777777777777 34.351770531355356L 129.95555555555555 36.067411759512126L 130.13333333333333 37.70699786181412L 130.3111111111111 38.33324535345265L 130.48888888888888 38.59070568074277L 130.66666666666669 38.83840809258577L 130.84444444444446 39.03721840090313L 131.02222222222224 39.21675252834858L 131.20000000000002 39.33696372384522L 131.3777777777778 39.41284375397767L 131.55555555555557 39.45836531868477L 131.73333333333335 39.50710497235097L 131.91111111111113 39.574023846194265L 132.0888888888889 39.498347939834716L 132.26666666666668 39.55985894353557L 132.44444444444446 39.572739360681865L 132.62222222222223 39.63837934424733L 132.8 39.6895016295311L 132.9777777777778 39.70704582262164L 133.15555555555557 39.71240261129855L 133.33333333333334 39.69351968751235L 133.51111111111112 39.682281571832L 133.6888888888889 39.289473863634434L 133.86666666666667 39.14124604360623L 134.04444444444445 38.19681576504606L 134.22222222222223 37.08857381496583L 134.4 33.819609267703086L 134.57777777777778 29.569709063787588L 134.75555555555556 30.38363054329688L 134.93333333333334 31.77451849896881L 135.11111111111111 33.84368231955547L 135.2888888888889 34.12255467218418L 135.46666666666667 35.824041824766766L 135.64444444444445 37.08354866279923L 135.82222222222222 37.79058896804434L 136 37.48408878257088L 136.17777777777778 38.20569552655151L 136.35555555555555 38.099195285436885L 136.53333333333333 38.71209420163503L 136.7111111111111 39.07441563959739L 136.88888888888889 39.066740591192385L 137.06666666666666 39.24800754894622L 137.24444444444444 39.36279765250728L 137.42222222222222 39.41475220036212L 137.6 39.47373681373253L 137.77777777777777 39.48506238108925L 137.95555555555555 39.559048973634766L 138.13333333333333 39.49138056723212L 138.3111111111111 39.5449690241381L 138.48888888888888 39.62036504875258L 138.66666666666669 39.68215305214828L 138.84444444444446 39.71208063338761L 139.02222222222224 39.70462855027369L 139.20000000000002 39.70756576841552L 139.3777777777778 39.765884102607814L 139.55555555555557 39.776711936402634L 139.73333333333335 39.714799157162275L 139.91111111111113 39.34740371368247L 140.0888888888889 37.03411388913768L 140.26666666666668 35.11637988118001L 140.44444444444446 34.710355718699475L 140.62222222222223 36.20129394187141L 140.8 37.01232099986922L 140.9777777777778 38.17159715767525L 141.15555555555557 38.15649147748017L 141.33333333333334 38.60613335737365L 141.51111111111112 39.15401291295488L 141.6888888888889 39.27653852958073L 141.86666666666667 39.50698149029882L 142.04444444444445 39.57163952307069L 142.22222222222223 39.609976111762386L 142.4 39.673491662034365L 142.57777777777778 39.69627057910725L 142.75555555555556 39.645925333840225L 142.93333333333334 39.61598901072829L 143.11111111111111 39.67686693364469L 143.2888888888889 39.688371030325314L 143.46666666666667 39.75774216933099L 143.64444444444445 39.67322576431481L 143.82222222222222 39.3325719318894L 144 37.98115521085409L 144.17777777777778 34.515555754844165L 144.35555555555555 26.235508895900168L 144.53333333333333 -69.93804091833138L 144.7111111111111 -61.73867598662551L 144.88888888888889 -21.93475872093275L 145.06666666666666 4.306737252371455L 145.24444444444444 13.796237456573039L 145.42222222222222 21.081242487723532L 145.6 26.616151572053433L 145.77777777777777 28.004269586738356L 145.95555555555555 30.71595596935324L 146.13333333333333 33.03700578728696L 146.3111111111111 34.65391374775082L 146.4888888888889 35.7757077039101L 146.66666666666669 36.55600723413609L 146.84444444444446 37.08794428808467L 147.02222222222224 37.48019726201368L 147.20000000000002 37.78769663552642L 147.3777777777778 37.8645440632377L 147.55555555555557 37.65449317140489L 147.73333333333335 37.7948590243863L 147.91111111111113 37.98312211446674L 148.0888888888889 38.44472174114124L 148.26666666666668 38.675256707715036L 148.44444444444446 38.8619253587801L 148.62222222222223 38.91392814226965L 148.8 39.04116554414574L 148.9777777777778 39.11592490296247L 149.15555555555557 39.17153412463627L 149.33333333333334 39.23185630656808L 149.51111111111112 39.30789749932245L 149.6888888888889 39.35008277436461L 149.86666666666667 39.377292384103L 150.04444444444445 39.35731604656661L 150.22222222222223 39.285560053966705L 150.4 39.20428572054285L 150.57777777777778 39.16706934005617L 150.75555555555556 38.42653008291366L 150.93333333333334 33.97555036986395L 151.11111111111111 31.04638096739844L 151.2888888888889 29.52020171452454L 151.46666666666667 31.58346136267109L 151.64444444444445 33.69810140233744L 151.82222222222222 34.201921480525314L 152 33.64914611959993L 152.17777777777778 34.970413233118535L 152.35555555555555 34.557196729505954L 152.53333333333333 34.37941453402777L 152.7111111111111 36.31556747858089L 152.88888888888889 37.1698522333884L 153.06666666666666 37.98140327003843L 153.24444444444444 38.37985638211482L 153.42222222222222 38.69402468318538L 153.6 38.89582852697197L 153.77777777777777 39.057977060340576L 153.95555555555555 39.16282091809373L 154.13333333333333 39.23003950906878L 154.3111111111111 39.30934499741601L 154.4888888888889 39.3608103733642L 154.66666666666669 39.397703530852304L 154.84444444444446 39.422587576381865L 155.02222222222224 39.41540512676499L 155.20000000000002 39.42538205161923L 155.3777777777778 39.45906983803229L 155.55555555555557 39.51873435633652L 155.73333333333335 39.55844493983197L 155.91111111111113 39.50642892526946L 156.0888888888889 39.506871748289235L 156.26666666666668 39.42344881214623L 156.44444444444446 39.417921610755585L 156.62222222222223 39.45405348868942L 156.8 39.56074916842499L 156.9777777777778 39.55911537849905L 157.15555555555557 39.48150961812249L 157.33333333333334 39.572132176223114L 157.51111111111112 39.630629180351434L 157.6888888888889 39.67841057164718L 157.86666666666667 39.71908036037555L 158.04444444444445 39.753674577624565L 158.22222222222223 39.76562223906003L 158.4 39.77165421465084L 158.57777777777778 39.42805983956303L 158.75555555555556 33.65509520675575L 158.93333333333334 19.05801891704889L 159.11111111111111 9.627907765106947L 159.2888888888889 14.466286211988383L 159.46666666666667 22.523889108957523L 159.64444444444445 26.582370501038064L 159.82222222222222 30.5410971357835" stroke-width="2px" stroke="#63e72c" fill="transparent"/>
			<text x="80%" y="24.4328777086268" class="text">0.022</text>
		</svg>