<svg width="310" height="135" xmlns="http://www.w3.org/2000/svg" style="outline: 1px solid #ccc" >
			<style>
				.text { font: italic 10px sans-serif; fill: #756f6f; }
			</style>
			<path d="M 0 0 L 0 -76142L 0 87L 1 94L 1 100L 1 106L 2 110L 2 113L 2 115L 3 116L 3 117L 3 119L 4 119L 4 119L 4 120L 5 121L 5 121L 6 122L 6 123L 6 122L 7 121L 7 123L 7 124L 8 124L 8 124L 8 125L 9 124L 9 125L 9 125L 10 125L 10 125L 10 125L 11 126L 11 126L 11 126L 12 126L 12 126L 12 126L 13 127L 13 125L 13 126L 14 127L 14 127L 14 128L 15 127L 15 127L 16 128L 16 128L 16 128L 17 128L 17 128L 17 128L 18 129L 18 128L 18 128L 19 129L 19 129L 19 129L 20 129L 20 129L 20 129L 21 128L 21 128L 21 129L 22 129L 22 129L 22 129L 23 129L 23 129L 23 129L 24 129L 24 130L 24 130L 25 130L 25 130L 25 130L 26 130L 26 130L 27 130L 27 130L 27 130L 28 130L 28 130L 28 130L 29 130L 29 130L 29 130L 30 130L 30 130L 30 130L 31 130L 31 130L 31 130L 32 130L 32 130L 32 130L 33 130L 33 130L 33 130L 34 130L 34 130L 34 130L 35 130L 35 130L 35 129L 36 130L 36 130L 37 131L 37 131L 37 130L 38 130L 38 130L 38 131L 39 131L 39 131L 39 130L 40 130L 40 130L 40 130L 41 130L 41 130L 41 130L 42 131L 42 131L 42 131L 43 131L 43 130L 43 130L 44 131L 44 131L 44 131L 45 131L 45 131L 45 131L 46 131L 46 131L 47 131L 47 128L 47 129L 48 130L 48 130L 48 131L 49 131L 49 131L 49 131L 50 130L 50 130L 50 130L 51 130L 51 131L 51 131L 52 131L 52 131L 52 131L 53 131L 53 131L 53 131L 54 131L 54 131L 54 131L 55 131L 55 130L 55 131L 56 130L 56 130L 56 130L 57 131L 57 130L 58 131L 58 131L 58 130L 59 130L 59 130L 59 131L 60 130L 60 131L 60 131L 61 131L 61 131L 61 131L 62 131L 62 131L 62 131L 63 131L 63 131L 63 131L 64 131L 64 130L 64 124L 65 124L 65 127L 65 129L 66 130L 66 130L 66 130L 67 130L 67 130L 68 130L 68 131L 68 130L 69 130L 69 131L 69 131L 70 130L 70 130L 70 130L 71 130L 71 130L 71 131L 72 131L 72 131L 72 131L 73 131L 73 130L 73 129L 74 128L 74 128L 74 129L 75 130L 75 130L 75 131L 76 130L 76 131L 76 131L 77 131L 77 131L 78 131L 78 130L 78 130L 79 128L 79 125L 79 112L 80 123L 80 126L 80 127L 81 128L 81 129L 81 129L 82 129L 82 129L 82 129L 83 129L 83 129L 83 129L 84 130L 84 130L 84 130L 85 130L 85 130L 85 130L 86 129L 86 130L 86 130L 87 130L 87 129L 87 130L 88 130L 88 130L 89 130L 89 130L 89 130L 90 130L 90 130L 90 130L 91 130L 91 130L 91 130L 92 130L 92 129L 92 130L 93 128L 93 126L 93 128L 94 129L 94 129L 94 130L 95 130L 95 130L 95 130L 96 130L 96 130L 96 130L 97 130L 97 130L 97 130L 98 130L 98 130L 99 130L 99 130L 99 130L 100 131L 100 130L 100 130L 101 130L 101 131L 101 131L 102 131L 102 131L 102 131L 103 131L 103 131L 103 131L 104 131L 104 131L 104 131L 105 131L 105 131L 105 127L 106 129L 106 130L 106 130L 107 131L 107 131L 107 131L 108 131L 108 131L 109 130L 109 130L 109 131L 110 131L 110 131L 110 131L 111 131L 111 131L 111 131L 112 130L 112 130L 112 130L 113 130L 113 130L 113 131L 114 131L 114 131L 114 130L 115 130L 115 130L 115 131L 116 131L 116 131L 116 131L 117 131L 117 131L 117 131L 118 131L 118 131L 118 131L 119 131L 119 131L 120 131L 120 131L 120 131L 121 130L 121 130L 121 131L 122 131L 122 131L 122 131L 123 131L 123 131L 123 131L 124 131L 124 131L 124 131L 125 131L 125 131L 125 131L 126 131L 126 131L 126 130L 127 130L 127 130L 127 131L 128 130L 128 131L 128 131L 129 131L 129 131L 130 131L 130 131L 130 131L 131 131L 131 131L 131 131L 132 131L 132 131L 132 131L 133 131L 133 131L 133 131L 134 131L 134 131L 134 131L 135 131L 135 131L 135 131L 136 131L 136 132L 136 131L 137 131L 137 131L 137 131L 138 131L 138 131L 138 131L 139 132L 139 131L 140 130L 140 130L 140 130L 141 130L 141 130L 141 131L 142 131L 142 131L 142 131L 143 131L 143 131L 143 131L 144 131L 144 131L 144 131L 145 131L 145 131L 145 131L 146 132L 146 132L 146 132L 147 132L 147 131L 147 131L 148 131L 148 131L 148 131L 149 131L 149 132L 149 132L 150 131L 150 131L 151 131L 151 132L 151 132L 152 131L 152 132L 152 132L 153 132L 153 131L 153 131L 154 132L 154 132L 154 132L 155 132L 155 132L 155 132L 156 131L 156 131L 156 131L 157 132L 157 132L 157 132L 158 132L 158 132L 158 132L 159 131L 159 131L 159 131L 160 132L 160 132L 161 132L 161 132L 161 132L 162 132L 162 132L 162 132L 163 132L 163 131L 163 131L 164 131L 164 131L 164 130L 165 131L 165 131L 165 132L 166 132L 166 132L 166 132L 167 132L 167 132L 167 132L 168 132L 168 132L 168 132L 169 132L 169 132L 169 132L 170 132L 170 132L 171 131L 171 131L 171 131L 172 132L 172 132L 172 132L 173 132L 173 132L 173 132L 174 132L 174 131L 174 131L 175 132L 175 132L 175 132L 176 132L 176 132L 176 132L 177 129L 177 119L 177 126L 178 128L 178 130L 178 131L 179 131L 179 131L 179 131L 180 131L 180 131L 180 132L 181 132L 181 132L 182 131L 182 131L 182 131L 183 131L 183 131L 183 131L 184 131L 184 131L 184 131L 185 132L 185 131L 185 131L 186 131L 186 131L 186 131L 187 131L 187 131L 187 131L 188 131L 188 131L 188 131L 189 131L 189 131L 189 131L 190 131L 190 132L 190 131L 191 131L 191 132L 192 132L 192 132L 192 131L 193 131L 193 131L 193 131L 194 132L 194 132L 194 132L 195 132L 195 132L 195 131L 196 131L 196 132L 196 132L 197 132L 197 132L 197 132L 198 132L 198 132L 198 132L 199 132L 199 132L 199 -77L 200 67L 200 99L 200 117L 201 126L 201 130L 202 130L 202 130L 202 129L 203 131L 203 131L 203 131L 204 131L 204 130L 204 131L 205 131L 205 131L 205 130L 206 129L 206 126L 206 116L 207 128L 207 130L 207 131L 208 130L 208 129L 208 131L 209 131L 209 131L 209 131L 210 131L 210 131L 210 131L 211 117L 211 122L 211 126L 212 129L 212 130L 213 130L 213 130L 213 130L 214 130L 214 130L 214 130L 215 130L 215 107L 215 120L 216 127L 216 128L 216 129L 217 129L 217 130L 217 130L 218 130L 218 131L 218 131L 219 131L 219 131L 219 125L 220 129L 220 130L 220 130L 221 131L 221 131L 221 131L 222 131L 222 131L 223 131L 223 131L 223 131L 224 131L 224 131L 224 131L 225 131L 225 131L 225 131L 226 131L 226 131L 226 131L 227 131L 227 131L 227 131L 228 131L 228 131L 228 131L 229 131L 229 131L 229 131L 230 131L 230 131L 230 131L 231 131L 231 131L 231 131L 232 131L 232 131L 233 131L 233 131L 233 132L 234 132L 234 131L 234 131L 235 131L 235 131L 235 131L 236 131L 236 131L 236 130L 237 131L 237 131L 237 131L 238 131L 238 131L 238 131L 239 131L 239 131L 239 131L 240 132L 240 131L 240 131L 241 131L 241 131L 241 131L 242 131L 242 131L 242 132L 243 132L 243 131L 244 131L 244 131L 244 131L 245 131L 245 131L 245 131L 246 131L 246 130L 246 131L 247 131L 247 130L 247 126L 248 129L 248 130L 248 131L 249 131L 249 131L 249 131L 250 131L 250 131L 250 131L 251 131L 251 131L 251 131L 252 131L 252 131L 252 131L 253 131L 253 131L 254 131L 254 131L 254 131L 255 131L 255 130L 255 129L 256 130L 256 130L 256 131L 257 131L 257 131L 257 131L 258 131L 258 131L 258 131L 259 131L 259 131L 259 131L 260 131L 260 131L 260 131L 261 132L 261 132L 261 132L 262 132L 262 132L 262 132L 263 132L 263 131L 264 131L 264 131L 264 131L 265 132L 265 132L 265 132L 266 132L 266 132L 266 132L 267 132L 267 131L 267 131L 268 131L 268 132L 268 132L 269 132L 269 132L 269 131L 270 132L 270 132L 270 132L 271 132L 271 132L 271 132L 272 132L 272 132L 272 132L 273 132L 273 131L 273 131L 274 132L 274 132L 275 132L 275 132L 275 131L 276 131L 276 132L 276 131L 277 131L 277 130L 277 131L 278 131L 278 131L 278 132L 279 132L 279 132L 279 132L 280 132L 280 132L 280 132L 281 132L 281 132L 281 132L 282 132L 282 132L 282 132L 283 131L 283 131L 283 131L 284 131L 284 131L 285 132L 285 132L 285 132L 286 132L 286 131L 286 130L 287 128L 287 130L 287 130L 288 131L 288 131L 288 131L 289 131L 289 131L 289 132L 290 132L 290 132L 290 131L 291 131L 291 131L 291 131L 292 131L 292 131L 292 132L 293 132L 293 132L 293 131L 294 132L 294 132L 295 132L 295 132L 295 132L 296 131L 296 131L 296 131L 297 131L 297 131L 297 131L 298 131L 298 132L 298 132L 299 132L 299 132L 299 132L 300 132L 300 132L 300 132L 301 131L 301 131L 301 132L 302 132L 302 132L 302 132L 303 132L 303 132L 303 132L 304 132L 304 132L 304 132L 305 132L 305 132L 306 132L 306 132L 306 131L 307 131L 307 130L 307 131L 308 131L 308 132L 308 132L 309 132L 309 132L 309 132L 310 132" stroke-width="1px" stroke="#63e72c" fill="transparent"/>
			<text x="3%" y="105.32810255364063" class="text">0.017</text>
			<line x1="0" y1="131.89820333238316" x2="100%" y2="131.89820333238316" stroke="rgba(117, 111, 111, 0.5)" />
		</svg>