<svg width="160" height="50" xmlns="http://www.w3.org/2000/svg" style="outline: 1px solid #ccc" >
			<path d="M 0 0 L 0 -819.7149910036069L 3.2 0.5258754798229361L 6.4 26.696442783559522L 9.600000000000001 36.30173639073521L 12.8 40.47490126967011L 16 41.320958884959154L 19.200000000000003 41.697686734094326L 22.400000000000002 42.27675789536102L 25.6 -65.6943072191619L 28.8 33.9083882514292L 32 38.843685952857825L 35.2 41.58107584621626L 38.400000000000006 32.75443322065655L 41.6 41.666520222433824L 44.800000000000004 42.33715211268067L 48 42.4877998618624L 51.2 39.849739055616794L 54.400000000000006 42.05576828086257L 57.6 42.446322591274395L 60.800000000000004 42.57527079983022L 64 42.60354185889095L 67.2 19.050420576203358L 70.4 41.589679262961674L 73.60000000000001 42.30106028386702L 76.80000000000001 42.512607351650246L 80 34.11280766925448L 83.2 42.36713972151724L 86.4 42.594761161450776L 89.60000000000001 42.68962383233599L 92.80000000000001 31.574053178347402L 96 42.19891780845343L 99.2 42.48018945126276L 102.4 42.51964402171684L 105.60000000000001 40.28963027959475L 108.80000000000001 42.515063738002425L 112 42.67771521200286L 115.2 42.7291802791664L 118.4 42.76663386893236L 121.60000000000001 42.79123524214421L 124.80000000000001 42.80404844498356L 128 42.811686133804905L 131.20000000000002 42.81865142163247L 134.4 42.82334241447852L 137.6 -126.5000874337031L 140.8 39.25056870015728L 144 41.828860990266875L 147.20000000000002 42.28723391102468L 150.4 42.49965854864357L 153.60000000000002 42.61147173853389L 156.8 33.342776254601034" stroke-width="2px" stroke="#63e72c" fill="transparent"/>
		</svg>