<svg width="310" height="135" xmlns="http://www.w3.org/2000/svg" style="outline: 1px solid #ccc" >
			<style>
				.text { font: italic 10px sans-serif; fill: #756f6f; }
			</style>
			<path d="M 0 0 L 0 -6115L 1 -387L 1 -256L 2 -203L 3 -156L 3 -119L 4 -100L 5 -79L 6 -67L 6 -50L 7 -40L 8 -27L 8 -17L 9 -12L 10 -4L 10 5L 11 3L 12 1L 12 13L 13 16L 14 19L 14 27L 15 33L 16 38L 17 41L 17 44L 18 35L 19 33L 19 38L 20 42L 21 50L 21 53L 22 57L 23 60L 23 63L 24 66L 25 66L 25 69L 26 69L 27 68L 28 68L 28 69L 29 67L 30 62L 30 52L 31 34L 32 40L 32 48L 33 54L 34 58L 34 64L 35 66L 36 68L 37 71L 37 74L 38 77L 39 79L 39 80L 40 78L 41 71L 41 64L 42 66L 43 68L 43 71L 44 70L 45 75L 45 76L 46 77L 47 78L 48 81L 48 82L 49 82L 50 84L 50 84L 51 84L 52 85L 52 84L 53 84L 54 81L 54 59L 55 -42L 56 -38L 56 -2L 57 17L 58 41L 59 51L 59 60L 60 65L 61 72L 61 75L 62 76L 63 75L 63 77L 64 78L 65 77L 65 80L 66 81L 67 79L 68 80L 68 81L 69 80L 70 82L 70 83L 71 83L 72 82L 72 80L 73 75L 74 77L 74 79L 75 78L 76 78L 76 68L 77 43L 78 41L 79 53L 79 57L 80 64L 81 67L 81 73L 82 77L 83 79L 83 79L 84 79L 85 82L 85 84L 86 86L 87 86L 87 86L 88 87L 89 87L 90 87L 90 87L 91 85L 92 79L 92 69L 93 26L 94 -8L 94 5L 95 20L 96 51L 96 60L 97 67L 98 72L 99 76L 99 77L 100 81L 101 82L 101 83L 102 83L 103 83L 103 85L 104 86L 105 87L 105 87L 106 88L 107 88L 107 89L 108 89L 109 89L 110 88L 110 79L 111 30L 112 -109L 112 -89L 113 -15L 114 -6L 114 33L 115 48L 116 54L 116 64L 117 69L 118 72L 118 76L 119 78L 120 80L 121 82L 121 82L 122 81L 123 81L 123 81L 124 84L 125 84L 125 85L 126 86L 127 84L 127 81L 128 79L 129 77L 130 73L 130 61L 131 53L 132 42L 132 46L 133 55L 134 63L 134 67L 135 71L 136 75L 136 78L 137 82L 138 84L 138 85L 139 85L 140 84L 141 86L 141 87L 142 87L 143 88L 143 88L 144 89L 145 89L 145 89L 146 85L 147 66L 147 -3L 148 -85L 149 -5L 149 3L 150 0L 151 31L 152 41L 152 50L 153 59L 154 66L 154 72L 155 72L 156 77L 156 80L 157 81L 158 81L 158 82L 159 83L 160 83L 161 83L 161 84L 162 84L 163 83L 163 82L 164 81L 165 81L 165 81L 166 79L 167 79L 167 78L 168 78L 169 80L 169 78L 170 81L 171 81L 172 79L 172 77L 173 69L 174 63L 174 45L 175 39L 176 51L 176 59L 177 62L 178 68L 178 72L 179 75L 180 77L 180 79L 181 81L 182 83L 183 84L 183 86L 184 86L 185 87L 185 88L 186 88L 187 89L 187 89L 188 89L 189 90L 189 90L 190 90L 191 90L 192 90L 192 90L 193 83L 194 4L 194 -51L 195 -27L 196 -2L 196 29L 197 47L 198 57L 198 63L 199 70L 200 74L 200 77L 201 78L 202 79L 203 76L 203 76L 204 78L 205 80L 205 82L 206 83L 207 85L 207 86L 208 86L 209 87L 209 87L 210 88L 211 88L 211 89L 212 89L 213 89L 214 88L 214 75L 215 35L 216 15L 216 7L 217 24L 218 33L 218 46L 219 8L 220 56L 220 64L 221 61L 222 63L 223 67L 223 74L 224 76L 225 78L 225 82L 226 82L 227 84L 227 85L 228 86L 229 87L 229 88L 230 88L 231 88L 231 89L 232 89L 233 89L 234 90L 234 90L 235 90L 236 89L 236 86L 237 81L 238 41L 238 -239L 239 -106L 240 -52L 240 -21L 241 6L 242 16L 242 34L 243 47L 244 56L 245 62L 245 68L 246 71L 247 71L 247 74L 248 76L 249 78L 249 80L 250 81L 251 83L 251 83L 252 84L 253 85L 254 85L 254 84L 255 85L 256 85L 256 85L 257 85L 258 85L 258 85L 259 84L 260 82L 260 76L 261 72L 262 74L 262 68L 263 62L 264 31L 265 38L 265 31L 266 49L 267 60L 267 69L 268 73L 269 77L 269 79L 270 81L 271 82L 271 83L 272 84L 273 85L 273 86L 274 86L 275 87L 276 88L 276 88L 277 88L 278 89L 278 88L 279 86L 280 86L 280 83L 281 78L 282 69L 282 -70L 283 -189L 284 -64L 285 -30L 285 4L 286 26L 287 41L 287 50L 288 59L 289 65L 289 71L 290 73L 291 76L 291 77L 292 79L 293 80L 293 81L 294 81L 295 81L 296 82L 296 82L 297 83L 298 84L 298 84L 299 85L 300 84L 300 85L 301 84L 302 83L 302 83L 303 84L 304 84L 304 83L 305 83L 306 82L 307 81L 307 79L 308 64L 309 24L 309 -16" stroke-width="1px" stroke="#63e72c" fill="transparent"/>
			<text x="3%" y="-12.574551500089889" class="text">0.012</text>
			<line x1="0" y1="90.05885011925545" x2="100%" y2="90.05885011925545" stroke="rgba(117, 111, 111, 0.5)" />
		</svg>