<svg width="310" height="135" xmlns="http://www.w3.org/2000/svg" style="outline: 1px solid #ccc" >
			<style>
				.text { font: italic 10px sans-serif; fill: #756f6f; }
			</style>
			<path d="M 0 0 L 0 -23617L 1 -11L 2 31L 3 50L 4 61L 4 64L 5 71L 6 78L 7 85L 8 89L 9 91L 10 95L 11 97L 12 98L 12 99L 13 99L 14 100L 15 101L 16 103L 17 106L 18 106L 19 106L 19 106L 20 107L 21 106L 22 109L 23 108L 24 109L 25 110L 26 111L 27 112L 27 113L 28 112L 29 111L 30 109L 31 110L 32 110L 33 110L 34 105L 35 109L 35 109L 36 110L 37 112L 38 113L 39 114L 40 112L 41 113L 42 112L 43 113L 43 114L 44 114L 45 114L 46 114L 47 113L 48 114L 49 115L 50 116L 50 115L 51 114L 52 95L 53 105L 54 106L 55 110L 56 112L 57 113L 58 111L 58 112L 59 112L 60 114L 61 115L 62 116L 63 116L 64 117L 65 117L 66 117L 66 118L 67 117L 68 117L 69 118L 70 117L 71 98L 72 78L 73 94L 74 101L 74 102L 75 106L 76 110L 77 112L 78 113L 79 114L 80 115L 81 115L 81 111L 82 110L 83 113L 84 114L 85 115L 86 116L 87 116L 88 116L 89 113L 89 114L 90 114L 91 112L 92 114L 93 112L 94 113L 95 115L 96 116L 97 117L 97 117L 98 116L 99 97L 100 104L 101 105L 102 108L 103 112L 104 114L 105 115L 105 116L 106 117L 107 117L 108 117L 109 116L 110 117L 111 117L 112 118L 112 117L 113 117L 114 117L 115 113L 116 109L 117 109L 118 110L 119 113L 120 115L 120 116L 121 116L 122 117L 123 117L 124 118L 125 118L 126 118L 127 118L 128 117L 128 116L 129 115L 130 115L 131 116L 132 117L 133 118L 134 118L 135 119L 136 119L 136 119L 137 119L 138 119L 139 119L 140 119L 141 119L 142 115L 143 104L 143 104L 144 110L 145 114L 146 116L 147 117L 148 118L 149 118L 150 119L 151 119L 151 117L 152 91L 153 105L 154 109L 155 112L 156 115L 157 116L 158 117L 159 117L 159 118L 160 118L 161 118L 162 119L 163 118L 164 119L 165 118L 166 117L 167 116L 167 115L 168 115L 169 116L 170 117L 171 118L 172 118L 173 118L 174 113L 174 117L 175 118L 176 118L 177 119L 178 119L 179 120L 180 120L 181 120L 182 120L 182 120L 183 120L 184 121L 185 120L 186 117L 187 116L 188 114L 189 114L 190 115L 190 117L 191 119L 192 119L 193 120L 194 120L 195 120L 196 120L 197 120L 198 120L 198 120L 199 120L 200 119L 201 119L 202 120L 203 120L 204 120L 205 120L 205 120L 206 121L 207 121L 208 121L 209 121L 210 121L 211 120L 212 120L 213 118L 213 119L 214 120L 215 120L 216 121L 217 121L 218 121L 219 122L 220 121L 221 115L 221 114L 222 117L 223 119L 224 120L 225 121L 226 121L 227 121L 228 121L 229 121L 229 121L 230 121L 231 121L 232 121L 233 121L 234 121L 235 121L 236 121L 236 120L 237 121L 238 121L 239 121L 240 122L 241 122L 242 122L 243 122L 244 121L 244 121L 245 81L 246 62L 247 86L 248 95L 249 105L 250 108L 251 110L 252 113L 252 114L 253 115L 254 115L 255 115L 256 116L 257 116L 258 117L 259 116L 260 116L 260 117L 261 109L 262 111L 263 112L 264 114L 265 115L 266 115L 267 115L 267 116L 268 117L 269 118L 270 117L 271 118L 272 116L 273 114L 274 116L 275 114L 275 115L 276 115L 277 112L 278 111L 279 113L 280 116L 281 115L 282 108L 283 110L 283 113L 284 111L 285 110L 286 112L 287 111L 288 114L 289 115L 290 115L 291 116L 291 117L 292 117L 293 118L 294 119L 295 117L 296 116L 297 117L 298 118L 298 118L 299 115L 300 114L 301 117L 302 118L 303 118L 304 118L 305 118L 306 118L 306 118L 307 119L 308 119L 309 120" stroke-width="1px" stroke="#63e72c" fill="transparent"/>
			<text x="3%" y="95.66876477988566" class="text">0.018</text>
			<line x1="0" y1="121.83095653619445" x2="100%" y2="121.83095653619445" stroke="rgba(117, 111, 111, 0.5)" />
		</svg>