<svg width="310" height="135" xmlns="http://www.w3.org/2000/svg" style="outline: 1px solid #ccc" >
			<style>
				.text { font: italic 10px sans-serif; fill: #756f6f; }
			</style>
			<path d="M 0 0 L 0 -13392L 1 -276L 2 -170L 3 -99L 5 -60L 6 -35L 7 -16L 8 3L 9 12L 10 18L 11 28L 13 34L 14 41L 15 46L 16 52L 17 54L 18 59L 20 62L 21 65L 22 68L 23 69L 24 70L 25 73L 26 75L 28 73L 29 73L 30 77L 31 80L 32 82L 33 84L 34 86L 36 86L 37 87L 38 88L 39 90L 40 91L 41 92L 42 93L 44 94L 45 94L 46 94L 47 94L 48 95L 49 94L 51 92L 52 96L 53 97L 54 97L 55 99L 56 99L 57 97L 59 99L 60 99L 61 101L 62 102L 63 103L 64 102L 65 102L 67 102L 68 97L 69 99L 70 100L 71 103L 72 104L 73 104L 75 101L 76 100L 77 101L 78 101L 79 103L 80 105L 82 106L 83 107L 84 107L 85 106L 86 107L 87 105L 88 104L 90 102L 91 94L 92 93L 93 96L 94 101L 95 104L 96 104L 98 105L 99 106L 100 106L 101 108L 102 108L 103 108L 104 108L 106 108L 107 107L 108 108L 109 107L 110 108L 111 108L 113 110L 114 110L 115 110L 116 110L 117 109L 118 109L 119 109L 121 101L 122 67L 123 23L 124 51L 125 78L 126 90L 127 95L 129 99L 130 100L 131 103L 132 104L 133 105L 134 105L 135 107L 137 108L 138 109L 139 109L 140 110L 141 110L 142 111L 144 111L 145 111L 146 110L 147 110L 148 108L 149 108L 150 109L 152 109L 153 108L 154 108L 155 108L 156 108L 157 107L 158 106L 160 109L 161 99L 162 93L 163 94L 164 99L 165 103L 166 106L 168 108L 169 109L 170 111L 171 111L 172 112L 173 112L 175 112L 176 110L 177 111L 178 111L 179 111L 180 111L 181 109L 183 99L 184 101L 185 89L 186 96L 187 98L 188 102L 189 106L 191 108L 192 109L 193 110L 194 111L 195 112L 196 112L 197 112L 199 112L 200 112L 201 112L 202 112L 203 111L 204 101L 206 100L 207 95L 208 100L 209 103L 210 105L 211 107L 212 109L 214 110L 215 111L 216 112L 217 112L 218 113L 219 113L 220 113L 222 113L 223 113L 224 113L 225 113L 226 113L 227 110L 228 104L 230 88L 231 58L 232 53L 233 79L 234 97L 235 102L 237 105L 238 108L 239 109L 240 110L 241 111L 242 111L 243 112L 245 113L 246 113L 247 113L 248 113L 249 113L 250 113L 251 113L 253 110L 254 106L 255 102L 256 101L 257 99L 258 101L 259 104L 261 106L 262 107L 263 107L 264 109L 265 108L 266 106L 268 107L 269 109L 270 109L 271 110L 272 112L 273 112L 274 113L 276 113L 277 114L 278 114L 279 114L 280 114L 281 114L 282 114L 284 114L 285 114L 286 114L 287 107L 288 73L 289 76L 290 72L 292 86L 293 90L 294 102L 295 106L 296 108L 297 109L 299 111L 300 111L 301 111L 302 112L 303 113L 304 113L 305 113L 307 113L 308 114L 309 113" stroke-width="1px" stroke="#63e72c" fill="transparent"/>
			<text x="3%" y="90.66456609342293" class="text">0.012</text>
			<line x1="0" y1="114.236624708085" x2="100%" y2="114.236624708085" stroke="rgba(117, 111, 111, 0.5)" />
		</svg>