<svg width="310" height="135" xmlns="http://www.w3.org/2000/svg" style="outline: 1px solid #ccc" >
			<style>
				.text { font: italic 10px sans-serif; fill: #756f6f; }
			</style>
			<path d="M 0 0 L 0 -14300L 1 -180L 2 -177L 3 -176L 4 -158L 5 -85L 6 -47L 7 -32L 8 -19L 9 -10L 10 -2L 11 3L 12 9L 13 11L 14 17L 16 22L 17 24L 18 27L 19 31L 20 35L 21 38L 22 37L 23 42L 24 46L 25 47L 26 52L 27 52L 28 53L 29 56L 30 58L 31 60L 32 62L 33 64L 34 65L 35 65L 36 68L 37 67L 38 71L 39 71L 40 72L 41 74L 42 75L 43 75L 44 77L 45 79L 47 81L 48 82L 49 80L 50 80L 51 83L 52 84L 53 85L 54 86L 55 86L 56 87L 57 86L 58 87L 59 88L 60 90L 61 89L 62 90L 63 90L 64 89L 65 89L 66 91L 67 91L 68 91L 69 93L 70 92L 71 94L 72 94L 73 94L 74 95L 75 95L 76 95L 78 96L 79 98L 80 99L 81 97L 82 96L 83 94L 84 94L 85 96L 86 95L 87 99L 88 99L 89 97L 90 97L 91 98L 92 100L 93 100L 94 100L 95 102L 96 102L 97 103L 98 102L 99 102L 100 100L 101 100L 102 101L 103 103L 104 104L 105 104L 106 105L 107 104L 109 105L 110 106L 111 106L 112 105L 113 106L 114 105L 115 105L 116 97L 117 100L 118 102L 119 103L 120 103L 121 104L 122 106L 123 106L 124 105L 125 105L 126 103L 127 105L 128 106L 129 106L 130 106L 131 106L 132 106L 133 107L 134 106L 135 108L 136 108L 137 108L 138 98L 140 94L 141 96L 142 101L 143 105L 144 107L 145 107L 146 108L 147 109L 148 109L 149 110L 150 110L 151 108L 152 107L 153 105L 154 107L 155 108L 156 109L 157 110L 158 110L 159 110L 160 108L 161 109L 162 109L 163 110L 164 109L 165 109L 166 110L 167 102L 168 100L 169 100L 171 103L 172 105L 173 106L 174 108L 175 108L 176 109L 177 110L 178 111L 179 112L 180 111L 181 111L 182 108L 183 108L 184 109L 185 109L 186 109L 187 110L 188 111L 189 111L 190 111L 191 112L 192 111L 193 112L 194 113L 195 112L 196 112L 197 111L 198 109L 199 109L 200 108L 202 108L 203 107L 204 111L 205 111L 206 112L 207 112L 208 113L 209 113L 210 113L 211 112L 212 112L 213 113L 214 114L 215 114L 216 114L 217 114L 218 111L 219 102L 220 99L 221 103L 222 107L 223 109L 224 109L 225 112L 226 113L 227 113L 228 113L 229 114L 230 114L 231 114L 233 114L 234 115L 235 114L 236 112L 237 112L 238 110L 239 110L 240 111L 241 112L 242 113L 243 114L 244 114L 245 114L 246 113L 247 113L 248 111L 249 112L 250 111L 251 112L 252 112L 253 113L 254 114L 255 115L 256 115L 257 116L 258 116L 259 116L 260 116L 261 116L 262 116L 264 115L 265 110L 266 95L 267 94L 268 99L 269 100L 270 104L 271 106L 272 107L 273 110L 274 110L 275 113L 276 113L 277 114L 278 114L 279 115L 280 115L 281 115L 282 114L 283 114L 284 114L 285 114L 286 115L 287 115L 288 115L 289 115L 290 115L 291 114L 292 115L 293 115L 295 114L 296 114L 297 112L 298 111L 299 106L 300 101L 301 105L 302 108L 303 108L 304 111L 305 113L 306 114L 307 114L 308 115L 309 115" stroke-width="1px" stroke="#63e72c" fill="transparent"/>
			<text x="3%" y="91.7433417055333" class="text">0.0162</text>
			<line x1="0" y1="116.37189051515843" x2="100%" y2="116.37189051515843" stroke="rgba(117, 111, 111, 0.5)" />
		</svg>