<svg width="310" height="135" xmlns="http://www.w3.org/2000/svg" style="outline: 1px solid #ccc" >
			<style>
				.text { font: italic 10px sans-serif; fill: #756f6f; }
			</style>
			<path d="M 0 0 L 0 -2771L 1 -404L 2 -271L 4 -224L 5 -183L 6 -147L 7 -122L 9 -99L 10 -84L 11 -64L 12 -50L 14 -45L 15 -40L 16 -26L 17 -18L 19 -21L 20 -13L 21 -4L 22 0L 23 6L 25 14L 26 17L 27 21L 28 24L 30 28L 31 31L 32 30L 33 34L 35 37L 36 40L 37 39L 38 42L 40 46L 41 46L 42 46L 43 49L 44 47L 46 44L 47 42L 48 41L 49 34L 51 40L 52 50L 53 51L 54 51L 56 54L 57 52L 58 58L 59 62L 61 64L 62 63L 63 66L 64 66L 65 59L 67 57L 68 64L 69 68L 70 68L 72 68L 73 67L 74 69L 75 69L 77 68L 78 68L 79 69L 80 72L 82 75L 83 75L 84 76L 85 75L 86 74L 88 64L 89 46L 90 30L 91 12L 93 31L 94 45L 95 59L 96 63L 98 69L 99 71L 100 73L 101 75L 103 76L 104 78L 105 78L 106 78L 107 79L 109 80L 110 79L 111 80L 112 80L 114 80L 115 78L 116 78L 117 81L 119 81L 120 77L 121 72L 122 72L 124 66L 125 68L 126 65L 127 62L 128 66L 130 72L 131 73L 132 77L 133 80L 135 82L 136 83L 137 83L 138 85L 140 85L 141 85L 142 86L 143 87L 145 86L 146 85L 147 84L 148 81L 149 74L 151 58L 152 52L 153 46L 154 40L 156 57L 157 65L 158 75L 159 78L 161 81L 162 81L 163 84L 164 84L 165 86L 167 87L 168 88L 169 84L 170 79L 172 79L 173 77L 174 80L 175 82L 177 84L 178 87L 179 87L 180 88L 182 87L 183 87L 184 80L 185 67L 186 76L 188 77L 189 75L 190 78L 191 82L 193 82L 194 85L 195 87L 196 88L 198 88L 199 88L 200 87L 201 86L 203 88L 204 89L 205 90L 206 90L 207 88L 209 85L 210 63L 211 -59L 212 -31L 214 33L 215 49L 216 60L 217 67L 219 76L 220 80L 221 81L 222 83L 224 85L 225 87L 226 88L 227 89L 228 89L 230 89L 231 88L 232 88L 233 86L 235 84L 236 66L 237 -39L 238 -45L 240 -32L 241 20L 242 54L 243 67L 245 76L 246 79L 247 82L 248 83L 249 84L 251 85L 252 88L 253 88L 254 88L 256 86L 257 88L 258 86L 259 85L 261 81L 262 81L 263 76L 264 56L 266 59L 267 62L 268 68L 269 71L 270 75L 272 80L 273 84L 274 85L 275 87L 277 88L 278 88L 279 89L 280 90L 282 89L 283 89L 284 84L 285 80L 287 82L 288 72L 289 60L 290 43L 291 62L 293 68L 294 72L 295 72L 296 79L 298 81L 299 84L 300 80L 301 84L 303 87L 304 89L 305 90L 306 90L 308 91L 309 92" stroke-width="1px" stroke="#63e72c" fill="transparent"/>
			<text x="3%" y="73.21907478123511" class="text">0.0123</text>
			<line x1="0" y1="91.52384347654387" x2="100%" y2="91.52384347654387" stroke="rgba(117, 111, 111, 0.5)" />
		</svg>