<svg width="310" height="135" xmlns="http://www.w3.org/2000/svg" style="outline: 1px solid #ccc" >
			<style>
				.text { font: italic 10px sans-serif; fill: #756f6f; }
			</style>
			<path d="M 0 0 L 0 -14781L 1 -260L 2 -246L 3 -236L 4 -217L 4 -183L 5 -156L 6 -131L 7 -105L 8 -92L 9 -73L 10 -48L 11 -35L 12 -25L 12 -12L 13 -2L 14 6L 15 12L 16 17L 17 20L 18 27L 19 33L 19 34L 20 42L 21 45L 22 49L 23 49L 24 54L 25 57L 26 58L 27 59L 27 62L 28 63L 29 65L 30 67L 31 64L 32 71L 33 73L 34 75L 35 76L 35 75L 36 75L 37 76L 38 73L 39 76L 40 79L 41 81L 42 82L 43 84L 43 85L 44 87L 45 89L 46 88L 47 90L 48 89L 49 90L 50 86L 50 89L 51 90L 52 94L 53 94L 54 93L 55 95L 56 95L 57 93L 58 93L 58 95L 59 97L 60 98L 61 99L 62 100L 63 99L 64 100L 65 101L 66 101L 66 101L 67 99L 68 99L 69 102L 70 100L 71 103L 72 102L 73 103L 74 104L 74 102L 75 102L 76 102L 77 99L 78 86L 79 84L 80 85L 81 92L 81 99L 82 100L 83 101L 84 102L 85 105L 86 106L 87 107L 88 108L 89 108L 89 107L 90 106L 91 107L 92 107L 93 109L 94 109L 95 109L 96 109L 97 109L 97 95L 98 95L 99 94L 100 94L 101 98L 102 100L 103 105L 104 107L 105 108L 105 109L 106 111L 107 111L 108 112L 109 112L 110 112L 111 112L 112 112L 112 110L 113 107L 114 99L 115 93L 116 92L 117 93L 118 98L 119 103L 120 106L 120 106L 121 108L 122 110L 123 110L 124 111L 125 111L 126 112L 127 113L 128 112L 128 112L 129 111L 130 112L 131 112L 132 107L 133 95L 134 93L 135 96L 136 97L 136 102L 137 106L 138 107L 139 106L 140 107L 141 109L 142 111L 143 111L 143 111L 144 112L 145 113L 146 114L 147 114L 148 114L 149 114L 150 114L 151 115L 151 114L 152 115L 153 111L 154 46L 155 0L 156 0L 157 25L 158 37L 159 54L 159 75L 160 68L 161 87L 162 94L 163 96L 164 100L 165 104L 166 102L 167 105L 167 107L 168 107L 169 108L 170 108L 171 109L 172 109L 173 110L 174 110L 174 109L 175 109L 176 109L 177 109L 178 106L 179 105L 180 104L 181 104L 182 105L 182 106L 183 107L 184 106L 185 105L 186 105L 187 107L 188 108L 189 110L 190 111L 190 112L 191 111L 192 112L 193 112L 194 112L 195 113L 196 113L 197 113L 198 112L 198 110L 199 111L 200 109L 201 105L 202 102L 203 104L 204 95L 205 95L 205 99L 206 102L 207 105L 208 106L 209 108L 210 108L 211 109L 212 111L 213 111L 213 111L 214 112L 215 112L 216 112L 217 112L 218 114L 219 114L 220 113L 221 112L 221 112L 222 110L 223 104L 224 102L 225 102L 226 104L 227 107L 228 105L 229 106L 229 106L 230 109L 231 110L 232 112L 233 112L 234 112L 235 113L 236 113L 236 113L 237 114L 238 115L 239 114L 240 115L 241 115L 242 116L 243 116L 244 116L 244 114L 245 106L 246 30L 247 -31L 248 -81L 249 43L 250 58L 251 71L 252 85L 252 90L 253 94L 254 100L 255 102L 256 102L 257 101L 258 104L 259 106L 260 105L 260 107L 261 107L 262 108L 263 109L 264 110L 265 109L 266 110L 267 110L 267 111L 268 112L 269 111L 270 110L 271 111L 272 110L 273 110L 274 111L 275 110L 275 108L 276 109L 277 108L 278 106L 279 106L 280 106L 281 104L 282 106L 283 106L 283 105L 284 106L 285 106L 286 108L 287 109L 288 111L 289 111L 290 113L 291 114L 291 114L 292 115L 293 115L 294 116L 295 116L 296 116L 297 116L 298 116L 298 115L 299 114L 300 105L 301 38L 302 45L 303 57L 304 72L 305 85L 306 92L 306 96L 307 100L 308 103L 309 106" stroke-width="1px" stroke="#63e72c" fill="transparent"/>
			<text x="3%" y="84.4802533711545" class="text">0.0129</text>
			<line x1="0" y1="116.01178821706675" x2="100%" y2="116.01178821706675" stroke="rgba(117, 111, 111, 0.5)" />
		</svg>