<svg width="310" height="135" xmlns="http://www.w3.org/2000/svg" style="outline: 1px solid #ccc" >
			<style>
				.text { font: italic 10px sans-serif; fill: #756f6f; }
			</style>
			<path d="M 0 0 L 0 -5757L 1 -762L 2 -502L 3 -348L 4 -258L 4 -215L 5 -159L 6 -119L 7 -91L 8 -63L 9 -47L 10 -42L 11 -25L 12 -12L 12 1L 13 9L 14 19L 15 24L 16 31L 17 34L 18 35L 19 43L 19 45L 20 44L 21 34L 22 43L 23 46L 24 50L 25 56L 26 60L 27 57L 27 58L 28 63L 29 65L 30 67L 31 69L 32 70L 33 69L 34 71L 35 71L 35 72L 36 73L 37 74L 38 75L 39 75L 40 74L 41 68L 42 61L 43 34L 43 12L 44 -31L 45 17L 46 43L 47 55L 48 64L 49 67L 50 68L 50 70L 51 71L 52 73L 53 74L 54 75L 55 75L 56 76L 57 77L 58 76L 58 77L 59 77L 60 78L 61 78L 62 78L 63 74L 64 70L 65 70L 66 72L 66 74L 67 76L 68 78L 69 79L 70 80L 71 80L 72 80L 73 81L 74 81L 74 81L 75 81L 76 82L 77 82L 78 82L 79 82L 80 81L 81 60L 81 -5L 82 36L 83 46L 84 53L 85 64L 86 68L 87 74L 88 75L 89 76L 89 78L 90 79L 91 80L 92 80L 93 81L 94 81L 95 81L 96 81L 97 82L 97 82L 98 82L 99 82L 100 81L 101 81L 102 82L 103 82L 104 82L 105 82L 105 82L 106 83L 107 82L 108 82L 109 83L 110 83L 111 83L 112 83L 112 82L 113 83L 114 83L 115 83L 116 83L 117 83L 118 83L 119 83L 120 82L 120 52L 121 -2L 122 -14L 123 32L 124 44L 125 50L 126 47L 127 65L 128 71L 128 75L 129 77L 130 78L 131 79L 132 79L 133 80L 134 80L 135 81L 136 81L 136 81L 137 81L 138 81L 139 81L 140 81L 141 81L 142 81L 143 81L 143 81L 144 82L 145 82L 146 82L 147 82L 148 83L 149 83L 150 83L 151 83L 151 83L 152 83L 153 83L 154 83L 155 83L 156 84L 157 84L 158 84L 159 84L 159 84L 160 84L 161 84L 162 84L 163 84L 164 83L 165 84L 166 84L 167 84L 167 84L 168 82L 169 57L 170 28L 171 22L 172 38L 173 57L 174 60L 174 64L 175 69L 176 71L 177 73L 178 77L 179 78L 180 80L 181 80L 182 81L 182 81L 183 82L 184 82L 185 82L 186 82L 187 82L 188 82L 189 83L 190 83L 190 83L 191 83L 192 83L 193 83L 194 83L 195 83L 196 83L 197 83L 198 83L 198 84L 199 84L 200 83L 201 83L 202 83L 203 82L 204 81L 205 82L 205 82L 206 83L 207 83L 208 83L 209 83L 210 83L 211 83L 212 84L 213 84L 213 84L 214 84L 215 84L 216 84L 217 84L 218 84L 219 84L 220 84L 221 84L 221 84L 222 83L 223 84L 224 84L 225 84L 226 84L 227 84L 228 84L 229 84L 229 78L 230 -30L 231 -133L 232 -48L 233 9L 234 28L 235 51L 236 64L 236 69L 237 71L 238 75L 239 77L 240 78L 241 79L 242 80L 243 80L 244 80L 244 80L 245 81L 246 81L 247 81L 248 82L 249 82L 250 82L 251 82L 252 82L 252 82L 253 82L 254 82L 255 82L 256 81L 257 81L 258 82L 259 82L 260 83L 260 83L 261 83L 262 82L 263 81L 264 80L 265 81L 266 82L 267 83L 267 83L 268 83L 269 83L 270 83L 271 84L 272 84L 273 84L 274 84L 275 84L 275 84L 276 84L 277 83L 278 84L 279 84L 280 84L 281 84L 282 84L 283 79L 283 60L 284 12L 285 32L 286 40L 287 53L 288 64L 289 71L 290 75L 291 78L 291 79L 292 80L 293 81L 294 82L 295 82L 296 82L 297 82L 298 83L 298 83L 299 83L 300 83L 301 82L 302 81L 303 82L 304 81L 305 80L 306 82L 306 83L 307 83L 308 83L 309 83" stroke-width="1px" stroke="#63e72c" fill="transparent"/>
			<text x="3%" y="66.53691393504994" class="text">0.011</text>
			<line x1="0" y1="84.0547430251018" x2="100%" y2="84.0547430251018" stroke="rgba(117, 111, 111, 0.5)" />
		</svg>