<svg width="310" height="135" xmlns="http://www.w3.org/2000/svg" style="outline: 1px solid #ccc" >
			<style>
				.text { font: italic 10px sans-serif; fill: #756f6f; }
			</style>
			<path d="M 0 0 L 0 -5408L 1 -557L 2 -401L 4 -306L 5 -238L 6 -200L 7 -158L 9 -124L 10 -90L 11 -65L 12 -44L 14 -34L 15 -35L 16 -18L 17 -6L 19 0L 20 8L 21 14L 22 26L 24 25L 25 31L 26 37L 27 43L 29 48L 30 49L 31 53L 32 49L 33 47L 35 53L 36 52L 37 57L 38 63L 40 66L 41 68L 42 67L 43 71L 45 69L 46 71L 47 75L 48 76L 50 78L 51 79L 52 80L 53 77L 55 77L 56 80L 57 82L 58 78L 60 39L 61 45L 62 60L 63 72L 64 78L 66 81L 67 82L 68 84L 69 84L 71 85L 72 85L 73 86L 74 85L 76 85L 77 86L 78 86L 79 87L 81 87L 82 88L 83 88L 84 88L 86 88L 87 89L 88 89L 89 89L 91 89L 92 69L 93 0L 94 34L 95 61L 97 67L 98 74L 99 74L 100 81L 102 85L 103 86L 104 87L 105 88L 107 88L 108 88L 109 89L 110 89L 112 89L 113 89L 114 89L 115 90L 117 90L 118 90L 119 90L 120 89L 122 88L 123 89L 124 90L 125 90L 126 91L 128 91L 129 91L 130 91L 131 91L 133 91L 134 91L 135 86L 136 72L 138 72L 139 60L 140 49L 141 74L 143 82L 144 85L 145 88L 146 89L 148 89L 149 90L 150 90L 151 90L 153 90L 154 91L 155 91L 156 91L 157 91L 159 91L 160 91L 161 91L 162 91L 164 91L 165 91L 166 92L 167 92L 169 92L 170 91L 171 91L 172 90L 174 90L 175 90L 176 90L 177 91L 179 87L 180 74L 181 66L 182 66L 184 58L 185 66L 186 73L 187 80L 188 84L 190 88L 191 89L 192 90L 193 90L 195 90L 196 91L 197 91L 198 91L 200 91L 201 91L 202 91L 203 91L 205 91L 206 92L 207 92L 208 92L 210 92L 211 92L 212 92L 213 92L 215 91L 216 82L 217 78L 218 82L 219 87L 221 89L 222 90L 223 91L 224 91L 226 91L 227 92L 228 92L 229 92L 231 92L 232 92L 233 92L 234 92L 236 92L 237 92L 238 92L 239 92L 241 92L 242 92L 243 92L 244 90L 246 88L 247 87L 248 89L 249 89L 250 90L 252 91L 253 92L 254 92L 255 92L 257 92L 258 92L 259 92L 260 92L 262 92L 263 92L 264 93L 265 93L 267 93L 268 93L 269 93L 270 93L 272 93L 273 93L 274 93L 275 93L 277 93L 278 93L 279 87L 280 5L 281 -9L 283 17L 284 46L 285 57L 286 74L 288 81L 289 84L 290 86L 291 87L 293 89L 294 90L 295 90L 296 91L 298 91L 299 91L 300 91L 301 91L 303 91L 304 91L 305 91L 306 90L 308 91L 309 91" stroke-width="1px" stroke="#63e72c" fill="transparent"/>
			<text x="3%" y="72.89593455619759" class="text">0.011</text>
			<line x1="0" y1="92.89303338183683" x2="100%" y2="92.89303338183683" stroke="rgba(117, 111, 111, 0.5)" />
		</svg>