<svg width="310" height="135" xmlns="http://www.w3.org/2000/svg" style="outline: 1px solid #ccc" >
			<style>
				.text { font: italic 10px sans-serif; fill: #756f6f; }
			</style>
			<path d="M 0 0 L 0 -3001L 1 -995L 1 -933L 2 -880L 2 -810L 3 -717L 3 -596L 4 -579L 4 -486L 5 -433L 5 -380L 6 -329L 6 -283L 7 -256L 7 -226L 8 -201L 8 -182L 9 -161L 9 -135L 10 -119L 10 -111L 11 -90L 11 -82L 12 -72L 12 -71L 13 -54L 13 -49L 14 -37L 14 -34L 15 -24L 16 -35L 16 -8L 17 -1L 17 3L 18 9L 18 14L 19 22L 19 25L 20 28L 20 25L 21 33L 21 40L 22 41L 22 42L 23 45L 23 47L 24 51L 24 53L 25 48L 25 53L 26 55L 26 58L 27 57L 27 64L 28 62L 28 57L 29 59L 29 62L 30 67L 30 71L 31 53L 32 46L 32 66L 33 74L 33 77L 34 77L 34 77L 35 79L 35 76L 36 75L 36 78L 37 78L 37 81L 38 82L 38 82L 39 85L 39 86L 40 86L 40 87L 41 88L 41 87L 42 87L 42 88L 43 87L 43 88L 44 88L 44 86L 45 -226L 45 -136L 46 -6L 47 35L 47 54L 48 65L 48 72L 49 75L 49 80L 50 82L 50 83L 51 85L 51 86L 52 87L 52 88L 53 89L 53 90L 54 91L 54 92L 55 93L 55 93L 56 93L 56 90L 57 66L 57 44L 58 51L 58 62L 59 73L 59 84L 60 88L 60 90L 61 91L 61 92L 62 92L 63 92L 63 93L 64 94L 64 94L 65 94L 65 95L 66 95L 66 95L 67 95L 67 95L 68 94L 68 88L 69 57L 69 44L 70 57L 70 72L 71 81L 71 87L 72 89L 72 91L 73 93L 73 94L 74 94L 74 94L 75 95L 75 95L 76 95L 76 93L 77 76L 78 70L 78 72L 79 75L 79 81L 80 88L 80 92L 81 94L 81 94L 82 95L 82 95L 83 96L 83 96L 84 96L 84 96L 85 96L 85 96L 86 96L 86 96L 87 96L 87 96L 88 97L 88 97L 89 97L 89 97L 90 97L 90 97L 91 97L 91 97L 92 97L 92 97L 93 97L 94 97L 94 97L 95 97L 95 97L 96 97L 96 -495L 97 -1542L 97 -3977L 98 -190L 98 -71L 99 1L 99 26L 100 47L 100 59L 101 67L 101 71L 102 75L 102 79L 103 81L 103 83L 104 85L 104 87L 105 87L 105 88L 106 89L 106 90L 107 91L 107 91L 108 92L 109 93L 109 93L 110 94L 110 94L 111 94L 111 93L 112 89L 112 82L 113 39L 113 69L 114 25L 114 48L 115 59L 115 80L 116 87L 116 90L 117 92L 117 94L 118 94L 118 95L 119 95L 119 96L 120 96L 120 96L 121 96L 121 96L 122 96L 122 96L 123 96L 123 96L 124 96L 125 96L 125 96L 126 97L 126 95L 127 74L 127 37L 128 36L 128 58L 129 71L 129 83L 130 89L 130 90L 131 92L 131 94L 132 95L 132 95L 133 96L 133 96L 134 96L 134 96L 135 96L 135 97L 136 97L 136 97L 137 97L 137 97L 138 97L 138 97L 139 97L 140 97L 140 97L 141 97L 141 97L 142 97L 142 97L 143 97L 143 97L 144 97L 144 91L 145 65L 145 -23L 146 -11L 146 39L 147 73L 147 82L 148 88L 148 91L 149 92L 149 90L 150 94L 150 95L 151 96L 151 96L 152 96L 152 96L 153 97L 153 97L 154 97L 154 97L 155 97L 156 97L 156 97L 157 97L 157 97L 158 97L 158 97L 159 97L 159 97L 160 97L 160 97L 161 97L 161 97L 162 97L 162 97L 163 97L 163 97L 164 97L 164 98L 165 98L 165 98L 166 98L 166 98L 167 98L 167 98L 168 98L 168 98L 169 98L 169 98L 170 98L 171 98L 171 98L 172 98L 172 98L 173 -117L 173 -392L 174 -124L 174 -41L 175 29L 175 57L 176 70L 176 76L 177 80L 177 87L 178 88L 178 91L 179 93L 179 93L 180 94L 180 95L 181 95L 181 95L 182 96L 182 96L 183 96L 183 96L 184 96L 184 96L 185 97L 185 97L 186 97L 187 97L 187 97L 188 97L 188 97L 189 97L 189 97L 190 97L 190 97L 191 97L 191 97L 192 97L 192 97L 193 97L 193 97L 194 97L 194 97L 195 97L 195 97L 196 97L 196 -4L 197 -38L 197 37L 198 38L 198 64L 199 79L 199 86L 200 88L 200 93L 201 94L 202 95L 202 95L 203 95L 203 96L 204 96L 204 96L 205 97L 205 97L 206 97L 206 97L 207 97L 207 97L 208 97L 208 97L 209 97L 209 97L 210 97L 210 97L 211 97L 211 97L 212 97L 212 97L 213 97L 213 96L 214 82L 214 69L 215 75L 215 81L 216 86L 216 90L 217 90L 218 94L 218 95L 219 96L 219 97L 220 97L 220 97L 221 97L 221 97L 222 97L 222 97L 223 97L 223 97L 224 97L 224 97L 225 97L 225 97L 226 97L 226 97L 227 98L 227 98L 228 98L 228 98L 229 98L 229 98L 230 98L 230 98L 231 98L 231 98L 232 98L 233 98L 233 98L 234 98L 234 98L 235 98L 235 98L 236 98L 236 98L 237 98L 237 98L 238 98L 238 95L 239 -93L 239 -234L 240 -64L 240 -6L 241 53L 241 73L 242 80L 242 88L 243 91L 243 93L 244 94L 244 95L 245 95L 245 96L 246 96L 246 96L 247 96L 247 97L 248 97L 249 97L 249 97L 250 97L 250 97L 251 97L 251 97L 252 97L 252 97L 253 97L 253 97L 254 97L 254 97L 255 97L 255 97L 256 97L 256 97L 257 97L 257 97L 258 97L 258 97L 259 97L 259 97L 260 89L 260 46L 261 57L 261 72L 262 81L 262 88L 263 92L 264 94L 264 95L 265 96L 265 97L 266 97L 266 97L 267 97L 267 97L 268 97L 268 97L 269 97L 269 97L 270 97L 270 97L 271 98L 271 98L 272 98L 272 98L 273 98L 273 98L 274 98L 274 98L 275 98L 275 98L 276 98L 276 98L 277 98L 277 98L 278 98L 278 98L 279 98L 280 98L 280 98L 281 98L 281 98L 282 98L 282 98L 283 98L 283 98L 284 94L 284 -136L 285 -375L 285 -6L 286 26L 286 67L 287 79L 287 81L 288 89L 288 92L 289 94L 289 95L 290 95L 290 96L 291 96L 291 96L 292 96L 292 97L 293 97L 293 97L 294 97L 295 97L 295 97L 296 97L 296 97L 297 97L 297 97L 298 97L 298 97L 299 97L 299 97L 300 97L 300 97L 301 97L 301 97L 302 97L 302 97L 303 90L 303 85L 304 85L 304 84L 305 81L 305 90L 306 93L 306 94L 307 96L 307 97L 308 97L 308 97L 309 97L 309 97" stroke-width="1px" stroke="#63e72c" fill="transparent"/>
			<text x="3%" y="77.80726938103615" class="text">0.012</text>
			<line x1="0" y1="97.80104076507288" x2="100%" y2="97.80104076507288" stroke="rgba(117, 111, 111, 0.5)" />
		</svg>