<svg width="310" height="135" xmlns="http://www.w3.org/2000/svg" style="outline: 1px solid #ccc" >
			<style>
				.text { font: italic 10px sans-serif; fill: #756f6f; }
			</style>
			<path d="M 0 0 L 0 -808L 2 -294L 4 -174L 6 -130L 8 -94L 10 -74L 12 -62L 14 -42L 17 -28L 19 -20L 21 -12L 23 -5L 25 3L 27 6L 29 13L 31 16L 33 16L 35 17L 37 19L 39 25L 41 31L 43 33L 45 35L 48 34L 50 38L 52 42L 54 44L 56 37L 58 38L 60 42L 62 47L 64 51L 66 50L 68 50L 70 35L 72 44L 74 48L 76 53L 79 56L 81 47L 83 56L 85 59L 87 58L 89 59L 91 60L 93 56L 95 61L 97 60L 99 64L 101 64L 103 65L 105 63L 107 65L 110 64L 112 67L 114 69L 116 67L 118 65L 120 66L 122 67L 124 68L 126 69L 128 69L 130 71L 132 61L 134 60L 136 67L 138 72L 141 73L 143 68L 145 61L 147 64L 149 53L 151 67L 153 70L 155 69L 157 70L 159 72L 161 67L 163 73L 165 75L 167 57L 169 63L 172 62L 174 63L 176 69L 178 73L 180 70L 182 72L 184 72L 186 61L 188 57L 190 71L 192 74L 194 75L 196 77L 198 78L 200 74L 203 75L 205 71L 207 69L 209 68L 211 64L 213 65L 215 70L 217 71L 219 74L 221 75L 223 74L 225 73L 227 74L 229 72L 231 76L 234 74L 236 56L 238 65L 240 43L 242 59L 244 66L 246 64L 248 65L 250 71L 252 73L 254 77L 256 78L 258 79L 260 70L 262 44L 265 41L 267 51L 269 53L 271 68L 273 70L 275 74L 277 78L 279 78L 281 79L 283 79L 285 78L 287 80L 289 80L 291 81L 293 81L 296 78L 298 79L 300 80L 302 77L 304 80L 306 81L 308 80" stroke-width="1px" stroke="#63e72c" fill="transparent"/>
			<text x="3%" y="63.7949147459362" class="text">0.019</text>
			<line x1="0" y1="81.41283766843063" x2="100%" y2="81.41283766843063" stroke="rgba(117, 111, 111, 0.5)" />
		</svg>