<svg width="310" height="135" xmlns="http://www.w3.org/2000/svg" style="outline: 1px solid #ccc" >
			<style>
				.text { font: italic 10px sans-serif; fill: #756f6f; }
			</style>
			<path d="M 0 0 L 0 -3355L 1 -352L 2 -331L 3 -292L 5 -271L 6 -252L 7 -236L 8 -221L 9 -192L 10 -169L 11 -147L 13 -131L 14 -112L 15 -105L 16 -92L 17 -79L 18 -66L 20 -57L 21 -49L 22 -47L 23 -47L 24 -45L 25 -36L 26 -41L 28 -31L 29 -39L 30 -41L 31 -22L 32 -16L 33 -25L 34 -29L 36 -27L 37 -9L 38 0L 39 6L 40 11L 41 16L 42 23L 44 27L 45 30L 46 34L 47 36L 48 38L 49 41L 51 44L 52 46L 53 43L 54 44L 55 47L 56 48L 57 49L 59 52L 60 55L 61 57L 62 55L 63 54L 64 56L 65 55L 67 55L 68 58L 69 62L 70 62L 71 62L 72 66L 73 56L 75 36L 76 44L 77 49L 78 52L 79 58L 80 56L 82 44L 83 51L 84 61L 85 65L 86 70L 87 74L 88 74L 90 77L 91 78L 92 79L 93 81L 94 83L 95 83L 96 83L 98 84L 99 84L 100 83L 101 83L 102 80L 103 81L 104 75L 106 70L 107 75L 108 78L 109 78L 110 77L 111 74L 113 72L 114 76L 115 80L 116 80L 117 86L 118 84L 119 86L 121 86L 122 84L 123 84L 124 85L 125 90L 126 92L 127 93L 129 93L 130 90L 131 90L 132 92L 133 94L 134 94L 135 94L 137 93L 138 94L 139 93L 140 89L 141 80L 142 84L 144 83L 145 85L 146 86L 147 -32L 148 21L 149 58L 150 69L 152 82L 153 82L 154 84L 155 86L 156 93L 157 94L 158 95L 160 95L 161 95L 162 91L 163 92L 164 97L 165 96L 166 97L 168 95L 169 97L 170 98L 171 95L 172 97L 173 99L 175 99L 176 97L 177 98L 178 100L 179 100L 180 100L 181 100L 183 95L 184 81L 185 51L 186 13L 187 -4L 188 40L 189 51L 191 71L 192 81L 193 85L 194 91L 195 94L 196 97L 197 98L 199 99L 200 100L 201 99L 202 98L 203 100L 204 101L 206 102L 207 103L 208 103L 209 103L 210 103L 211 101L 212 102L 214 93L 215 90L 216 92L 217 88L 218 79L 219 71L 220 83L 222 84L 223 81L 224 86L 225 89L 226 94L 227 98L 228 100L 230 101L 231 100L 232 102L 233 103L 234 104L 235 104L 237 105L 238 104L 239 104L 240 102L 241 103L 242 104L 243 103L 245 99L 246 99L 247 100L 248 97L 249 97L 250 83L 251 93L 253 95L 254 98L 255 100L 256 100L 257 101L 258 97L 259 98L 261 91L 262 99L 263 100L 264 100L 265 96L 266 101L 268 103L 269 101L 270 102L 271 104L 272 104L 273 104L 274 104L 276 101L 277 99L 278 57L 279 -4L 280 50L 281 82L 282 90L 284 87L 285 97L 286 99L 287 100L 288 103L 289 101L 290 102L 292 104L 293 105L 294 106L 295 106L 296 107L 297 107L 299 108L 300 108L 301 106L 302 104L 303 71L 304 64L 305 72L 307 73L 308 62L 309 63" stroke-width="1px" stroke="#63e72c" fill="transparent"/>
			<text x="3%" y="50.71333151119244" class="text">0.0157</text>
			<line x1="0" y1="107.86098041937973" x2="100%" y2="107.86098041937973" stroke="rgba(117, 111, 111, 0.5)" />
		</svg>