<svg width="310" height="135" xmlns="http://www.w3.org/2000/svg" style="outline: 1px solid #ccc" >
			<style>
				.text { font: italic 10px sans-serif; fill: #756f6f; }
			</style>
			<path d="M 0 0 L 0 -4158L 1 -529L 2 -484L 4 -462L 5 -413L 6 -365L 7 -330L 9 -286L 10 -251L 11 -224L 12 -190L 14 -174L 15 -151L 16 -125L 17 -106L 19 -90L 20 -84L 21 -70L 22 -58L 24 -60L 25 -38L 26 -25L 27 -21L 29 -14L 30 -13L 31 -9L 32 4L 33 9L 35 17L 36 25L 37 25L 38 27L 40 32L 41 41L 42 44L 43 49L 45 52L 46 55L 47 52L 48 53L 50 56L 51 55L 52 63L 53 53L 55 62L 56 67L 57 62L 58 66L 60 70L 61 73L 62 61L 63 28L 64 49L 66 62L 67 65L 68 69L 69 76L 71 79L 72 81L 73 83L 74 85L 76 86L 77 88L 78 89L 79 89L 81 89L 82 90L 83 89L 84 89L 86 91L 87 87L 88 83L 89 87L 91 90L 92 92L 93 93L 94 95L 95 96L 97 94L 98 90L 99 89L 100 94L 102 97L 103 98L 104 99L 105 95L 107 96L 108 98L 109 98L 110 98L 112 95L 113 47L 114 -42L 115 -19L 117 19L 118 38L 119 62L 120 76L 122 84L 123 84L 124 89L 125 93L 126 94L 128 96L 129 97L 130 98L 131 98L 133 99L 134 100L 135 100L 136 100L 138 100L 139 98L 140 98L 141 92L 143 99L 144 102L 145 101L 146 101L 148 103L 149 103L 150 104L 151 105L 153 105L 154 105L 155 104L 156 104L 157 105L 159 105L 160 106L 161 106L 162 106L 164 107L 165 107L 166 107L 167 107L 169 102L 170 60L 171 -27L 172 -18L 174 49L 175 52L 176 83L 177 88L 179 95L 180 97L 181 100L 182 102L 184 100L 185 102L 186 104L 187 105L 188 105L 190 106L 191 106L 192 106L 193 107L 195 107L 196 106L 197 103L 198 75L 200 80L 201 90L 202 96L 203 101L 205 103L 206 105L 207 106L 208 106L 210 107L 211 107L 212 107L 213 107L 215 108L 216 108L 217 108L 218 108L 219 108L 221 108L 222 108L 223 108L 224 108L 226 108L 227 102L 228 69L 229 55L 231 24L 232 80L 233 90L 234 97L 236 102L 237 103L 238 103L 239 105L 241 106L 242 107L 243 107L 244 108L 246 108L 247 108L 248 108L 249 108L 250 108L 252 109L 253 109L 254 109L 255 109L 257 106L 258 98L 259 96L 260 96L 262 100L 263 105L 264 105L 265 106L 267 107L 268 108L 269 108L 270 109L 272 109L 273 109L 274 109L 275 109L 277 109L 278 109L 279 109L 280 109L 281 109L 283 109L 284 109L 285 109L 286 109L 288 109L 289 109L 290 109L 291 109L 293 109L 294 109L 295 109L 296 109L 298 109L 299 109L 300 109L 301 109L 303 109L 304 109L 305 110L 306 110L 308 109L 309 109" stroke-width="1px" stroke="#63e72c" fill="transparent"/>
			<text x="3%" y="87.40153664843461" class="text">0.012</text>
			<line x1="0" y1="109.52067264398897" x2="100%" y2="109.52067264398897" stroke="rgba(117, 111, 111, 0.5)" />
		</svg>