<svg width="310" height="135" xmlns="http://www.w3.org/2000/svg" style="outline: 1px solid #ccc" >
			<style>
				.text { font: italic 10px sans-serif; fill: #756f6f; }
			</style>
			<path d="M 0 0 L 0 -815L 1 -172L 2 -147L 3 -136L 4 -121L 4 -110L 5 -98L 6 -90L 7 -82L 8 -76L 9 -69L 10 -63L 11 -57L 12 -55L 12 -49L 13 -43L 14 -38L 15 -34L 16 -29L 17 -26L 18 -26L 19 -20L 19 -17L 20 -15L 21 -12L 22 -6L 23 -6L 24 -4L 25 1L 26 3L 27 2L 27 7L 28 12L 29 13L 30 16L 31 19L 32 22L 33 19L 34 25L 35 28L 35 29L 36 28L 37 26L 38 29L 39 32L 40 33L 41 27L 42 32L 43 33L 43 30L 44 20L 45 9L 46 12L 47 9L 48 22L 49 31L 50 33L 50 38L 51 30L 52 28L 53 28L 54 28L 55 35L 56 34L 57 39L 58 35L 58 39L 59 40L 60 43L 61 41L 62 40L 63 41L 64 44L 65 43L 66 43L 66 42L 67 42L 68 45L 69 45L 70 47L 71 46L 72 40L 73 45L 74 48L 74 51L 75 50L 76 48L 77 48L 78 51L 79 52L 80 54L 81 43L 81 52L 82 53L 83 55L 84 55L 85 56L 86 56L 87 53L 88 54L 89 54L 89 56L 90 56L 91 55L 92 50L 93 53L 94 52L 95 51L 96 56L 97 57L 97 58L 98 56L 99 57L 100 57L 101 58L 102 57L 103 57L 104 54L 105 53L 105 56L 106 57L 107 56L 108 59L 109 53L 110 55L 111 52L 112 54L 112 53L 113 60L 114 60L 115 61L 116 59L 117 62L 118 63L 119 63L 120 61L 120 61L 121 60L 122 59L 123 60L 124 61L 125 62L 126 59L 127 61L 128 59L 128 55L 129 64L 130 61L 131 65L 132 65L 133 65L 134 65L 135 61L 136 59L 136 56L 137 62L 138 64L 139 65L 140 58L 141 66L 142 65L 143 66L 143 62L 144 63L 145 60L 146 63L 147 64L 148 60L 149 62L 150 63L 151 59L 151 61L 152 61L 153 60L 154 54L 155 61L 156 64L 157 59L 158 55L 159 64L 159 67L 160 68L 161 65L 162 60L 163 65L 164 67L 165 67L 166 68L 167 64L 167 68L 168 67L 169 69L 170 68L 171 69L 172 69L 173 69L 174 70L 174 69L 175 69L 176 67L 177 66L 178 68L 179 65L 180 68L 181 68L 182 62L 182 65L 183 60L 184 63L 185 66L 186 66L 187 68L 188 67L 189 65L 190 68L 190 64L 191 67L 192 68L 193 69L 194 69L 195 64L 196 59L 197 61L 198 65L 198 67L 199 68L 200 67L 201 68L 202 70L 203 67L 204 68L 205 67L 205 63L 206 63L 207 60L 208 63L 209 63L 210 67L 211 66L 212 67L 213 64L 213 40L 214 62L 215 65L 216 66L 217 66L 218 68L 219 65L 220 70L 221 60L 221 52L 222 63L 223 68L 224 66L 225 66L 226 61L 227 60L 228 61L 229 63L 229 63L 230 63L 231 61L 232 63L 233 58L 234 62L 235 59L 236 61L 236 54L 237 60L 238 60L 239 64L 240 67L 241 63L 242 56L 243 67L 244 63L 244 67L 245 67L 246 64L 247 61L 248 57L 249 57L 250 44L 251 51L 252 60L 252 62L 253 63L 254 65L 255 67L 256 69L 257 62L 258 61L 259 61L 260 59L 260 62L 261 66L 262 65L 263 63L 264 63L 265 59L 266 56L 267 66L 267 61L 268 65L 269 68L 270 70L 271 63L 272 62L 273 69L 274 64L 275 66L 275 69L 276 66L 277 67L 278 64L 279 68L 280 68L 281 60L 282 63L 283 65L 283 66L 284 64L 285 65L 286 60L 287 58L 288 58L 289 62L 290 64L 291 66L 291 66L 292 63L 293 66L 294 63L 295 64L 296 67L 297 66L 298 70L 298 69L 299 68L 300 66L 301 67L 302 70L 303 69L 304 72L 305 70L 306 67L 306 56L 307 63L 308 66L 309 64" stroke-width="1px" stroke="#63e72c" fill="transparent"/>
			<text x="3%" y="51.06296594638559" class="text">0.0514</text>
			<line x1="0" y1="71.75814395711664" x2="100%" y2="71.75814395711664" stroke="rgba(117, 111, 111, 0.5)" />
		</svg>