<svg width="160" height="50" xmlns="http://www.w3.org/2000/svg" style="outline: 1px solid #ccc" >
			<style>
				.text { font: italic 10px sans-serif; fill: #756f6f; }
			</style>
			<path d="M 0 0 L 0 -374.1601990100266L 0.22857142857142856 -132.48948659083663L 0.45714285714285713 -129.7089212640572L 0.6857142857142857 -127.64356186591144L 0.9142857142857143 -126.5103322429168L 1.1428571428571428 -125.86964286227888L 1.3714285714285714 -126.35613249768093L 1.5999999999999999 -124.86311216768209L 1.8285714285714285 -123.89733828694807L 2.057142857142857 -122.86142928276593L 2.2857142857142856 -122.13819494382892L 2.5142857142857142 -121.67744564710372L 2.742857142857143 -121.40328110235149L 2.9714285714285715 -121.23630008207792L 3.1999999999999997 -121.16168345283299L 3.4285714285714284 -122.24313977667774L 3.657142857142857 -121.40567457636416L 3.8857142857142857 -121.12823334820439L 4.114285714285714 -120.84192829668251L 4.3428571428571425 -120.57052199427798L 4.571428571428571 -120.31660785859631L 4.8 -120.07508423745242L 5.0285714285714285 -119.86041834951095L 5.257142857142857 -119.67904899626626L 5.485714285714286 -119.5212276313716L 5.714285714285714 -119.3933912787156L 5.942857142857143 -119.30202097619855L 6.171428571428571 -119.25510171774309L 6.3999999999999995 -119.25690580081724L 6.628571428571428 -119.29621996149262L 6.857142857142857 -119.30492009197351L 7.085714285714285 -119.23657183062531L 7.314285714285714 -119.10391656555305L 7.542857142857143 -118.96553159536185L 7.771428571428571 -118.8455576605769L 8 -118.77299339542196L 8.228571428571428 -118.73967788119575L 8.457142857142857 -118.74349545127836L 8.685714285714285 -118.78300560349683L 8.914285714285715 -118.86067604040014L 9.142857142857142 -118.94966272655364L 9.371428571428572 -119.0509057174707L 9.6 -119.30901066923616L 9.828571428571427 -120.48967063736711L 10.057142857142857 -120.04602971419706L 10.285714285714285 -119.67222094395521L 10.514285714285714 -119.51011315454323L 10.742857142857142 -119.6914762328584L 10.971428571428572 -119.43423897601804L 11.2 -119.38826656093661L 11.428571428571429 -119.61291191131454L 11.657142857142857 -119.5187921248133L 11.885714285714286 -120.23898876430187L 12.114285714285714 -119.37565635461758L 12.342857142857142 -118.96064327940081L 12.571428571428571 -118.9226195221892L 12.799999999999999 -118.97115152011204L 13.028571428571428 -118.88831642332713L 13.257142857142856 -118.87829771941458L 13.485714285714286 -119.13627218127525L 13.714285714285714 -118.78315531421265L 13.942857142857143 -118.7498641569378L 14.17142857142857 -117.50341822538095L 14.4 -117.26818277667076L 14.628571428571428 -116.9340002310324L 14.857142857142856 -116.41044031541713L 15.085714285714285 -115.99013154028921L 15.314285714285713 -115.87437506491196L 15.542857142857143 -115.67714951504269L 15.77142857142857 -114.91405006382325L 16 -114.6776887453016L 16.228571428571428 -114.39063797392168L 16.457142857142856 -115.79256596926581L 16.685714285714287 -115.47143930283883L 16.914285714285715 -113.33612386434635L 17.142857142857142 -114.64975106678116L 17.37142857142857 -114.24277954314087L 17.599999999999998 -120.2630621816333L 17.82857142857143 -117.03554799839506L 18.057142857142857 -113.61803349717306L 18.285714285714285 -112.97655320109985L 18.514285714285712 -112.51225734082192L 18.742857142857144 -111.57813082093094L 18.97142857142857 -109.27183256209403L 19.2 -85.55608284359275L 19.428571428571427 -64.61077348305936L 19.657142857142855 -46.85252680929244L 19.885714285714286 -33.30521985850234L 20.114285714285714 -24.408000090945876L 20.34285714285714 -20.696301727820355L 20.57142857142857 -15.257440776225565L 20.8 -10.711861607487116L 21.02857142857143 -9.10854428306937L 21.257142857142856 -4.7768224427030574L 21.485714285714284 -3.7605452262279186L 21.714285714285715 0.13835690743429296L 21.942857142857143 3.268792633927447L 22.17142857142857 3.796804262178206L 22.4 6.21709017518797L 22.628571428571426 6.175341321604527L 22.857142857142858 9.75474338788623L 23.085714285714285 9.776872547707725L 23.314285714285713 13.35742478234701L 23.54285714285714 15.15391784363431L 23.771428571428572 14.35312560275797L 24 16.19771896347976L 24.228571428571428 17.88033416799187L 24.457142857142856 17.16296780345936L 24.685714285714283 19.436514344187927L 24.914285714285715 20.344680580203615L 25.142857142857142 20.35754927630544L 25.37142857142857 21.205933924653717L 25.599999999999998 22.39807059247299L 25.82857142857143 23.462944844413318L 26.057142857142857 23.13291587123724L 26.285714285714285 24.823483376351106L 26.514285714285712 26.061502324491606L 26.742857142857144 27.021131072320006L 26.97142857142857 27.261493403299333L 27.2 27.767818920456573L 27.428571428571427 27.966747979815374L 27.657142857142855 27.94868212142154L 27.885714285714286 27.2214788170813L 28.114285714285714 27.03869274871602L 28.34285714285714 29.563479349169324L 28.57142857142857 30.812041492390367L 28.8 30.93809244666052L 29.02857142857143 31.41190069450611L 29.257142857142856 30.62342913052488L 29.485714285714284 32.503411701281024L 29.71428571428571 32.813194654434376L 29.942857142857143 33.21689778633254L 30.17142857142857 33.56224979572502L 30.4 34.08939036732335L 30.628571428571426 34.34691487116375L 30.857142857142858 34.085793519474265L 31.085714285714285 33.996879283462974L 31.314285714285713 32.0328993602981L 31.54285714285714 31.741900880023298L 31.77142857142857 32.120095692086785L 32 32.66632102705717L 32.22857142857143 32.335115133833845L 32.457142857142856 34.048522651519384L 32.68571428571428 34.4842117206549L 32.91428571428571 35.21247438010661L 33.14285714285714 35.301626532654176L 33.371428571428574 35.642390078561306L 33.6 36.48043941006909L 33.82857142857143 36.26051644290387L 34.05714285714286 36.6696442423585L 34.285714285714285 36.1439604721459L 34.51428571428571 36.78008875488087L 34.74285714285714 36.57188605144722L 34.97142857142857 37.37546091141157L 35.199999999999996 36.20741467778122L 35.42857142857143 36.449728866884485L 35.65714285714286 36.56277280726462L 35.885714285714286 35.97992361057892L 36.114285714285714 36.72669980789987L 36.34285714285714 37.74735906466655L 36.57142857142857 37.337634168474345L 36.8 37.5525518788095L 37.028571428571425 38.12134984266254L 37.25714285714285 38.36662286307935L 37.48571428571429 38.85882358388521L 37.714285714285715 39.03266115146319L 37.94285714285714 39.037619036023L 38.17142857142857 38.91446784570019L 38.4 37.98238423782338L 38.628571428571426 38.117086061092195L 38.857142857142854 38.29793406783174L 39.08571428571428 38.26334751404413L 39.31428571428571 36.87031191937225L 39.542857142857144 32.22930565117993L 39.77142857142857 26.661146211079892L 40 25.926806439819455L 40.22857142857143 28.514982938029384L 40.457142857142856 34.143301303373434L 40.68571428571428 35.58109830224687L 40.91428571428571 35.8438358485683L 41.14285714285714 34.79036836584088L 41.371428571428574 35.53189878873159L 41.6 36.07013371258785L 41.82857142857143 36.802210975563355L 42.05714285714286 36.600132274640316L 42.285714285714285 37.403843048269394L 42.51428571428571 38.184839958786135L 42.74285714285714 38.89921450142004L 42.97142857142857 38.97490520236788L 43.199999999999996 39.08147880947374L 43.42857142857143 39.48489573838921L 43.65714285714286 39.72632252634898L 43.885714285714286 39.92476936943183L 44.114285714285714 39.92759296441347L 44.34285714285714 38.44699274453261L 44.57142857142857 36.92740754940989L 44.8 36.81152969677095L 45.028571428571425 38.12264685000292L 45.25714285714285 38.598053702083156L 45.48571428571429 39.55876806929347L 45.714285714285715 40.17406415280733L 45.94285714285714 40.44279020999523L 46.17142857142857 40.585579420887164L 46.4 40.61085076144181L 46.628571428571426 40.80553103242134L 46.857142857142854 40.720677147149466L 47.08571428571428 40.095824915555795L 47.31428571428571 40.229439273681535L 47.542857142857144 40.433773645171534L 47.77142857142857 40.70588504339989L 48 40.6251203835055L 48.22857142857143 40.97388956738892L 48.457142857142856 41.05025310890134L 48.68571428571428 40.28197838375649L 48.91428571428571 40.7088214176286L 49.14285714285714 40.81553192567813L 49.37142857142857 40.94557210287213L 49.6 41.1990558840596L 49.82857142857143 41.40662054657941L 50.05714285714286 41.47132878893415L 50.285714285714285 41.47276772689483L 50.51428571428571 41.443559615735325L 50.74285714285714 41.539080404562974L 50.97142857142857 41.66516471344595L 51.199999999999996 41.71567352051487L 51.42857142857142 41.538161585728815L 51.65714285714286 37.397211843560015L 51.885714285714286 23.815056578660972L 52.114285714285714 -5.028504512344938L 52.34285714285714 -5.7009861452661355L 52.57142857142857 21.430281063764486L 52.8 28.902790602489805L 53.028571428571425 33.34310992101385L 53.25714285714285 35.42269060328086L 53.48571428571429 37.101547523408804L 53.714285714285715 38.025103545492755L 53.94285714285714 35.15168893445018L 54.17142857142857 38.02063228416813L 54.4 39.27326597608839L 54.628571428571426 39.81722971827862L 54.857142857142854 40.0841373467367L 55.08571428571428 40.134220656402476L 55.31428571428571 40.33812941087042L 55.542857142857144 40.54563815772995L 55.77142857142857 40.92414648797882L 56 40.90402411624113L 56.22857142857143 41.02399289901392L 56.457142857142856 41.12880230850214L 56.68571428571428 41.23109060659223L 56.91428571428571 41.30578789275706L 57.14285714285714 40.9670050138691L 57.37142857142857 40.70598669519191L 57.6 41.05667379645203L 57.82857142857143 41.213141126360895L 58.05714285714286 41.241830241043914L 58.285714285714285 41.34934926062944L 58.51428571428571 41.30452541096785L 58.74285714285714 41.47808197100947L 58.97142857142857 41.520134876496215L 59.199999999999996 41.400981701582324L 59.42857142857142 40.878018327536196L 59.65714285714286 40.877949129275734L 59.885714285714286 40.607884386752055L 60.114285714285714 40.760815654682425L 60.34285714285714 38.69561202847322L 60.57142857142857 39.324427361511454L 60.8 37.06146928102163L 61.028571428571425 38.45767634041911L 61.25714285714285 39.22000311849367L 61.48571428571428 40.352972070719304L 61.714285714285715 40.012804569722L 61.94285714285714 40.29072178491952L 62.17142857142857 40.88140579904508L 62.4 40.21767070654265L 62.628571428571426 39.86346699947964L 62.857142857142854 39.6841844252991L 63.08571428571428 40.30560660834098L 63.31428571428571 40.7937391770747L 63.54285714285714 41.468664711746655L 63.77142857142857 41.739497697708806L 64 41.86778087860209L 64.22857142857143 41.979692177784635L 64.45714285714286 41.96765237537328L 64.68571428571428 42.01068266722132L 64.91428571428571 41.701818417931285L 65.14285714285714 41.06576378261092L 65.37142857142857 41.81459055313967L 65.6 42.00350152485318L 65.82857142857142 42.10589980238882L 66.05714285714285 42.11329190727149L 66.28571428571428 42.194285935889255L 66.5142857142857 42.24831110295755L 66.74285714285715 42.249318883992736L 66.97142857142858 42.2226899671968L 67.2 40.66603697633351L 67.42857142857143 29.7822070885556L 67.65714285714286 20.504732325236073L 67.88571428571429 28.379975612492977L 68.11428571428571 34.28194737255856L 68.34285714285714 35.42151373100574L 68.57142857142857 38.609633099326985L 68.8 39.70282278622362L 69.02857142857142 40.60233035926436L 69.25714285714285 40.90696653654908L 69.48571428571428 40.95498847512489L 69.71428571428571 41.389205201118045L 69.94285714285714 41.76786294823019L 70.17142857142856 41.97128179256586L 70.39999999999999 42.053491585387675L 70.62857142857143 42.10543233723528L 70.85714285714286 42.19364482272121L 71.08571428571429 42.208717012498994L 71.31428571428572 42.259943463371286L 71.54285714285714 42.29111059297418L 71.77142857142857 42.30371088328497L 72 42.338380853241475L 72.22857142857143 42.36064389486693L 72.45714285714286 42.37549997823194L 72.68571428571428 42.38402717845254L 72.91428571428571 42.32068523828775L 73.14285714285714 42.364631493826415L 73.37142857142857 42.264772987172215L 73.6 42.178040540234L 73.82857142857142 42.080257727755914L 74.05714285714285 42.206020165213985L 74.28571428571428 41.67736102517914L 74.5142857142857 41.13040936757296L 74.74285714285715 40.27002268293805L 74.97142857142858 23.17938414946312L 75.2 -79.4127406399819L 75.42857142857143 30.223186389119608L 75.65714285714286 34.99068377283927L 75.88571428571429 37.26310810997702L 76.11428571428571 39.16303827562544L 76.34285714285714 40.49054486948724L 76.57142857142857 41.036526860587486L 76.8 41.426778675737765L 77.02857142857142 41.69929399581306L 77.25714285714285 41.84899208487968L 77.48571428571428 41.9979151006969L 77.71428571428571 41.986804204617236L 77.94285714285714 41.716056190742236L 78.17142857142856 41.87643305568106L 78.39999999999999 42.030308122215814L 78.62857142857142 42.15429134633916L 78.85714285714286 42.21045751798823L 79.08571428571429 42.26950778989215L 79.31428571428572 42.30504596255417L 79.54285714285714 42.356833243494506L 79.77142857142857 42.379555422053755L 80 42.42487352031434L 80.22857142857143 42.43482733641076L 80.45714285714286 42.39908178682101L 80.68571428571428 39.89253805990499L 80.91428571428571 37.66438677557047L 81.14285714285714 38.22906571817051L 81.37142857142857 38.77856434347776L 81.6 38.6867045285398L 81.82857142857142 39.12154485800654L 82.05714285714285 40.95673049207971L 82.28571428571428 41.55945905572845L 82.5142857142857 42.02924032564888L 82.74285714285715 42.11791250346401L 82.97142857142858 42.21451929664636L 83.2 42.33028774067757L 83.42857142857143 42.392919682326436L 83.65714285714286 42.45118655594494L 83.88571428571429 42.483712936229686L 84.11428571428571 42.49820221903908L 84.34285714285714 42.520331067752316L 84.57142857142857 42.5390034826946L 84.8 42.55016262858383L 85.02857142857142 42.55830215011864L 85.25714285714285 42.5677278646974L 85.48571428571428 42.4981644040375L 85.71428571428571 41.487861884482925L 85.94285714285714 32.85518937485574L 86.17142857142856 -24.54862730329154L 86.39999999999999 30.17702209365026L 86.62857142857142 31.606617359173438L 86.85714285714286 34.36903815004105L 87.08571428571429 37.30181445109359L 87.31428571428572 38.0006909344373L 87.54285714285714 39.52590322121644L 87.77142857142857 40.239338104135435L 88 40.911008435442206L 88.22857142857143 41.23541126801806L 88.45714285714286 41.62563553895535L 88.68571428571428 41.80237627920894L 88.91428571428571 41.88293736955324L 89.14285714285714 42.03175541454778L 89.37142857142857 42.13257289052296L 89.6 42.252176091148364L 89.82857142857142 42.288566110320616L 90.05714285714285 42.27543041365304L 90.28571428571428 42.31680153618909L 90.5142857142857 42.3710247430314L 90.74285714285713 42.40508936293754L 90.97142857142858 42.45463682766569L 91.2 42.47519670655969L 91.42857142857143 42.14006585604148L 91.65714285714286 42.003633340745786L 91.88571428571429 42.02233033650267L 92.11428571428571 42.18109671602627L 92.34285714285714 42.33746879010674L 92.57142857142857 42.46631882369421L 92.8 42.50497485827104L 93.02857142857142 42.53279259653499L 93.25714285714285 42.55765498029605L 93.48571428571428 42.57136114701593L 93.71428571428571 42.42024438802305L 93.94285714285714 25.848923234311922L 94.17142857142856 -366.66608101654924L 94.39999999999999 -15.521189924920932L 94.62857142857142 -4.286441313812766L 94.85714285714286 28.61799510544671L 95.08571428571429 35.97720875127431L 95.31428571428572 37.95240256754856L 95.54285714285714 39.060172380548586L 95.77142857142857 39.35189406444471L 96 39.58184650226286L 96.22857142857143 40.64985766008671L 96.45714285714286 40.84724787333034L 96.68571428571428 41.148375249310725L 96.91428571428571 41.43171643073667L 97.14285714285714 40.62025393673227L 97.37142857142857 41.47158561165891L 97.6 41.739468380122965L 97.82857142857142 41.84435429206651L 98.05714285714285 41.920405843870846L 98.28571428571428 42.12896334293261L 98.5142857142857 42.25492427815929L 98.74285714285713 42.32229251750109L 98.97142857142858 42.348460622084474L 99.2 42.28382739198734L 99.42857142857143 42.32051816604303L 99.65714285714286 42.28949048952693L 99.88571428571429 42.37216617659117L 100.11428571428571 42.42670404024838L 100.34285714285714 42.45451950435584L 100.57142857142857 42.42190490113926L 100.8 42.500357960696284L 101.02857142857142 42.49776957350006L 101.25714285714285 42.516732962085435L 101.48571428571428 42.553244277675034L 101.71428571428571 42.55811427610676L 101.94285714285714 42.53996584984486L 102.17142857142856 23.632452204410242L 102.39999999999999 -20.555964743735984L 102.62857142857142 24.978999445263053L 102.85714285714285 35.729414508589656L 103.08571428571429 38.40163219192113L 103.31428571428572 39.763292956101L 103.54285714285714 40.790417899049416L 103.77142857142857 41.29334714260513L 104 41.678232180753426L 104.22857142857143 41.88367615738898L 104.45714285714286 42.06073480022813L 104.68571428571428 42.16589304116323L 104.91428571428571 42.251966771750176L 105.14285714285714 42.28098060127159L 105.37142857142857 42.35533789268092L 105.6 42.36871288865082L 105.82857142857142 42.35451318212518L 106.05714285714285 42.40148812648L 106.28571428571428 42.34711261197529L 106.5142857142857 42.21647066106639L 106.74285714285713 42.16117414377141L 106.97142857142858 42.20415093631621L 107.2 42.26722225778633L 107.42857142857143 42.41192963299572L 107.65714285714286 42.49098135197474L 107.88571428571429 42.48850084608059L 108.11428571428571 42.51058707151785L 108.34285714285714 42.48592504576615L 108.57142857142857 42.51483016896597L 108.8 42.53115345081434L 109.02857142857142 42.55031513083233L 109.25714285714285 42.50991370157835L 109.48571428571428 42.508859192207495L 109.71428571428571 42.413131723465L 109.94285714285714 39.244416053434L 110.17142857142856 35.87502779107552L 110.39999999999999 37.6903600753913L 110.62857142857142 37.87573685441194L 110.85714285714285 38.113017359714775L 111.08571428571429 39.36329928250789L 111.31428571428572 40.73908842910477L 111.54285714285714 41.45577961924491L 111.77142857142857 41.78433736867524L 112 42.18947517340109L 112.22857142857143 42.22227281474465L 112.45714285714286 42.37622672211762L 112.68571428571428 42.44953658827339L 112.91428571428571 42.51248758330727L 113.14285714285714 42.546854140625186L 113.37142857142857 42.56541284774154L 113.6 42.584360446802926L 113.82857142857142 42.60022223852419L 114.05714285714285 42.61162289132537L 114.28571428571428 42.624059300596215L 114.5142857142857 42.627553536603486L 114.74285714285713 42.641581083015346L 114.97142857142856 42.646031469699935L 115.2 42.66518331245919L 115.42857142857143 42.556697024338156L 115.65714285714286 41.39022991319975L 115.88571428571429 33.35953893533129L 116.11428571428571 33.22774139541325L 116.34285714285714 36.11162885053927L 116.57142857142857 37.73470300221789L 116.8 39.2371095577015L 117.02857142857142 39.952305557538665L 117.25714285714285 40.34836238934008L 117.48571428571428 41.08038204889199L 117.71428571428571 41.605040840113716L 117.94285714285714 41.66390289518067L 118.17142857142856 41.67303742972284L 118.39999999999999 41.69743866543304L 118.62857142857142 41.93258828466731L 118.85714285714285 42.09985509004426L 119.08571428571429 42.32995673564754L 119.31428571428572 42.402454137963026L 119.54285714285714 42.47955127639535L 119.77142857142857 42.51750931348993L 120 42.568578711626664L 120.22857142857143 42.57794282413678L 120.45714285714286 42.55489547462044L 120.68571428571428 42.606698705124494L 120.91428571428571 42.63194886564207L 121.14285714285714 42.648703615700704L 121.37142857142857 42.66218468151026L 121.6 42.67156241417262L 121.82857142857142 42.67720503262865L 122.05714285714285 42.68475320802831L 122.28571428571428 42.6855647913852L 122.5142857142857 42.69079401668798L 122.74285714285713 42.687237981649396L 122.97142857142856 42.704214803282206L 123.2 42.69426774854125L 123.42857142857143 42.599651895424984L 123.65714285714286 42.47977792163343L 123.88571428571429 40.03698578917475L 124.11428571428571 -13.15166698325065L 124.34285714285714 -11.893853788392427L 124.57142857142857 29.773013458699275L 124.8 35.70608435273944L 125.02857142857142 37.87945928627875L 125.25714285714285 39.39291609435409L 125.48571428571428 39.60386668569806L 125.71428571428571 40.2185052766979L 125.94285714285714 41.00998646108856L 126.17142857142856 40.42076202785225L 126.39999999999999 40.99147505636347L 126.62857142857142 41.509994676973776L 126.85714285714285 41.84579176439132L 127.08571428571427 42.10531523367485L 127.31428571428572 42.20456346275496L 127.54285714285714 42.28606664134023L 127.77142857142857 42.18825657393301L 128 42.295159613512666L 128.22857142857143 42.31821333002664L 128.45714285714286 42.33963354848665L 128.68571428571428 42.37198629001499L 128.9142857142857 42.426304227499635L 129.14285714285714 42.39239413008249L 129.37142857142857 42.4294228088599L 129.6 42.5253631917992L 129.82857142857142 42.56469545945541L 130.05714285714285 42.56926516479673L 130.28571428571428 42.58390737989427L 130.5142857142857 42.61035340956186L 130.74285714285713 42.630227129535534L 130.97142857142856 42.644750869639104L 131.2 42.65169654395892L 131.42857142857142 42.65998546990563L 131.65714285714284 42.589854956855724L 131.88571428571427 42.62583895516675L 132.1142857142857 42.63098629786073L 132.34285714285713 42.631351607056935L 132.57142857142856 42.33185484669156L 132.79999999999998 32.24702906912438L 133.0285714285714 27.868812065677645L 133.25714285714287 32.737567405679144L 133.4857142857143 38.03336164830854L 133.71428571428572 39.945053136095616L 133.94285714285715 40.55110271988149L 134.17142857142858 40.94302050225235L 134.4 41.639264814381306L 134.62857142857143 42.133719025159806L 134.85714285714286 42.26313999228239L 135.0857142857143 42.431884395304095L 135.31428571428572 42.474379765411484L 135.54285714285714 42.5034675239009L 135.77142857142857 42.55830291033757L 136 42.563406220734244L 136.22857142857143 42.59657066519221L 136.45714285714286 42.61202105981236L 136.68571428571428 42.63309730094675L 136.9142857142857 42.635987709889676L 137.14285714285714 42.6352100295839L 137.37142857142857 42.65930177003982L 137.6 42.667372995199386L 137.82857142857142 42.678227504217816L 138.05714285714285 42.66875808309019L 138.28571428571428 42.62770483409189L 138.5142857142857 42.617222936307954L 138.74285714285713 42.4791388260125L 138.97142857142856 42.46967320479721L 139.2 42.5198975633551L 139.42857142857142 42.49569018127557L 139.65714285714284 42.5048580333827L 139.88571428571427 42.33477282202913L 140.1142857142857 41.4208610810271L 140.34285714285713 39.84752822394247L 140.57142857142856 39.08917659713017L 140.79999999999998 39.69720840536686L 141.0285714285714 28.681088274518824L 141.25714285714287 28.04996599480513L 141.4857142857143 36.54322427480237L 141.71428571428572 36.507912501822815L 141.94285714285715 40.4138542758501L 142.17142857142858 39.20949558443057L 142.4 40.14579757469499L 142.62857142857143 40.66633100025843L 142.85714285714286 40.725923513432335L 143.0857142857143 41.38141979367632L 143.31428571428572 41.587278876469206L 143.54285714285714 42.06234686445208L 143.77142857142857 42.27734068850397L 144 42.35461813159296L 144.22857142857143 42.395564867845145L 144.45714285714286 42.46388565669365L 144.68571428571428 42.511979685210626L 144.9142857142857 42.50601915222959L 145.14285714285714 42.51993840199508L 145.37142857142857 42.55648239646572L 145.6 42.5151927361003L 145.82857142857142 42.378119603789486L 146.05714285714285 42.20433518723452L 146.28571428571428 42.218260236878066L 146.5142857142857 42.33316773648311L 146.74285714285713 42.44876006898198L 146.97142857142856 42.49343266773398L 147.2 42.38462588690759L 147.42857142857142 42.47318600897288L 147.65714285714284 42.55426166787901L 147.88571428571427 42.635196089596676L 148.1142857142857 42.65849212122785L 148.34285714285713 42.669460346390764L 148.57142857142856 42.67119709040087L 148.79999999999998 42.68822253144913L 149.0285714285714 42.68703108941525L 149.25714285714284 42.69025217536633L 149.4857142857143 42.695665408561325L 149.71428571428572 42.66839451086478L 149.94285714285715 42.66849490705533L 150.17142857142858 42.55553716492989L 150.4 42.51269603410611L 150.62857142857143 28.598171508982265L 150.85714285714286 12.86880592318645L 151.0857142857143 -241.51505902851545L 151.31428571428572 14.918393918760692L 151.54285714285714 29.37035369487565L 151.77142857142857 32.825998178175126L 152 37.47573917612362L 152.22857142857143 38.632029095157975L 152.45714285714286 38.59459650887209L 152.68571428571428 25.999703756315373L 152.9142857142857 39.787857652725634L 153.14285714285714 41.20000841506295L 153.37142857142857 41.16809776417047L 153.6 41.94490586510911L 153.82857142857142 42.08243000796041L 154.05714285714285 41.98639918090615L 154.28571428571428 42.01117798855255L 154.5142857142857 42.273621213379926L 154.74285714285713 42.28555515253946L 154.97142857142856 42.3624865561216L 155.2 42.48075261607128L 155.42857142857142 42.51067363946299L 155.65714285714284 42.53304886161751L 155.88571428571427 42.549200055147494L 156.1142857142857 42.557100215829514L 156.34285714285713 42.577301851102305L 156.57142857142856 42.5701741890974L 156.79999999999998 42.59954740339649L 157.0285714285714 42.607277645993335L 157.25714285714284 42.627833702793446L 157.4857142857143 42.638620187473684L 157.71428571428572 42.6372787944913L 157.94285714285715 41.18773350521491L 158.17142857142858 39.30092662713992L 158.4 37.199836063190666L 158.62857142857143 34.96134620392849L 158.85714285714286 36.40209105454498L 159.0857142857143 39.11439647151681L 159.31428571428572 40.17239340903839L 159.54285714285714 41.184799687185674L 159.77142857142857 41.867858084770035" stroke-width="2px" stroke="#63e72c" fill="transparent"/>
			<text x="80%" y="33.49428646781603" class="text">0.013</text>
		</svg>