<svg width="280" height="120" xmlns="http://www.w3.org/2000/svg" style="outline: 1px solid #ccc" >
			<style>
				.text { font: italic 10px sans-serif; fill: #756f6f; }
			</style>
			<path d="M 0 0 L 0 -8887L 1 -34L 3 3L 4 21L 6 35L 7 46L 8 50L 10 55L 11 60L 13 62L 14 65L 15 68L 17 70L 18 70L 20 72L 21 74L 22 76L 24 78L 25 78L 27 80L 28 81L 29 81L 31 81L 32 83L 34 84L 35 85L 36 84L 38 85L 39 84L 41 83L 42 84L 43 85L 45 86L 46 86L 48 75L 49 72L 50 75L 52 78L 53 83L 55 85L 56 86L 57 87L 59 88L 60 88L 62 89L 63 90L 64 89L 66 89L 67 86L 69 88L 70 87L 71 86L 73 87L 74 88L 76 89L 77 90L 78 91L 80 92L 81 92L 83 91L 84 91L 85 91L 87 91L 88 76L 90 72L 91 79L 92 82L 94 84L 95 86L 97 87L 98 89L 99 90L 101 89L 102 91L 104 91L 105 92L 106 93L 108 92L 109 91L 111 89L 112 85L 113 82L 115 85L 116 89L 118 89L 119 91L 120 91L 122 92L 123 92L 125 93L 126 93L 127 93L 129 92L 130 91L 132 90L 133 89L 134 91L 136 93L 137 92L 139 93L 140 94L 141 94L 143 94L 144 94L 146 95L 147 95L 148 95L 150 94L 151 79L 153 12L 154 55L 155 73L 157 81L 158 84L 160 87L 161 88L 162 90L 164 91L 165 91L 167 92L 168 91L 169 91L 171 91L 172 91L 174 91L 175 90L 176 91L 178 91L 179 92L 181 93L 182 93L 183 94L 185 94L 186 93L 188 93L 189 89L 190 89L 192 84L 193 87L 195 82L 196 85L 197 88L 199 89L 200 90L 202 91L 203 92L 204 93L 206 94L 207 94L 209 94L 210 94L 211 94L 213 94L 214 94L 216 94L 217 94L 218 93L 220 93L 221 93L 223 92L 224 90L 225 81L 227 68L 228 76L 230 80L 231 87L 232 89L 234 90L 235 91L 237 92L 238 92L 239 93L 241 93L 242 94L 244 94L 245 94L 246 95L 248 95L 249 95L 251 94L 252 93L 253 92L 255 90L 256 82L 258 64L 259 74L 260 79L 262 83L 263 88L 265 90L 266 92L 267 93L 269 93L 270 93L 272 94L 273 94L 274 94L 276 95L 277 95L 279 95" stroke-width="1px" stroke="#63e72c" fill="transparent"/>
			<text x="3%" y="76.11973975741049" class="text">0.014</text>
			<line x1="0" y1="95.1496746967631" x2="100%" y2="95.1496746967631" stroke="rgba(117, 111, 111, 0.5)" />
		</svg>
