<svg width="160" height="50" xmlns="http://www.w3.org/2000/svg" style="outline: 1px solid #ccc" >
			<style>
				.text { font: italic 10px sans-serif; fill: #756f6f; }
			</style>
			<path d="M 0 0 L 0 -272L 1 -73L 2 -50L 3 -39L 4 -30L 5 -22L 6 -19L 7 -13L 9 -8L 10 -5L 11 -2L 12 -1L 13 1L 14 2L 15 5L 16 5L 17 7L 18 8L 19 7L 20 10L 21 11L 22 12L 23 12L 25 12L 26 14L 27 14L 28 15L 29 14L 30 15L 31 16L 32 12L 33 15L 34 16L 35 18L 36 18L 37 18L 38 20L 39 18L 41 16L 42 18L 43 16L 44 19L 45 20L 46 19L 47 21L 48 21L 49 22L 50 22L 51 21L 52 20L 53 20L 54 20L 55 21L 57 23L 58 23L 59 23L 60 24L 61 24L 62 24L 63 22L 64 22L 65 20L 66 21L 67 23L 68 23L 69 23L 70 23L 71 21L 73 21L 74 22L 75 23L 76 24L 77 23L 78 24L 79 25L 80 25L 81 26L 82 12L 83 21L 84 22L 85 23L 86 25L 87 26L 89 27L 90 27L 91 26L 92 24L 93 25L 94 26L 95 26L 96 26L 97 27L 98 28L 99 28L 100 28L 101 25L 102 17L 103 21L 105 22L 106 25L 107 25L 108 24L 109 25L 110 26L 111 27L 112 28L 113 28L 114 28L 115 28L 116 25L 117 26L 118 25L 119 26L 121 26L 122 27L 123 28L 124 28L 125 28L 126 28L 127 28L 128 28L 129 26L 130 25L 131 26L 132 27L 133 22L 134 24L 135 24L 137 26L 138 27L 139 28L 140 28L 141 28L 142 27L 143 27L 144 27L 145 27L 146 26L 147 24L 148 23L 149 24L 150 21L 151 22L 153 24L 154 25L 155 26L 156 28L 157 28L 158 28L 159 29" stroke-width="2px" stroke="#63e72c" fill="transparent"/>
			<text x="3%" y="22.91028344260525" class="text">0.021</text>
			<line x1="0" y1="28.637854303256564" x2="100%" y2="28.637854303256564" stroke="rgba(117, 111, 111, 0.5)" />
		</svg>