<svg width="160" height="50" xmlns="http://www.w3.org/2000/svg" style="outline: 1px solid #ccc" >
			<style>
				.text { font: italic 10px sans-serif; fill: #756f6f; }
			</style>
			<path d="M 0 0 L 0 -2057.9196962225546L 0.45714285714285713 -140.99421736913268L 0.9142857142857143 -93.61883980764765L 1.3714285714285714 -60.06885891420363L 1.8285714285714285 -55.931505970736225L 2.2857142857142856 -39.922097231332856L 2.742857142857143 -33.17383162667957L 3.1999999999999997 -25.982032233663844L 3.657142857142857 -19.19189715148289L 4.114285714285714 -17.945324582091033L 4.571428571428571 -11.873307862413832L 5.0285714285714285 -8.133024413288723L 5.485714285714286 -5.992031008136635L 5.942857142857143 -1.6052313959737958L 6.3999999999999995 0.38904873299818377L 6.857142857142857 2.8213178910340275L 7.314285714285714 3.882380402823266L 7.771428571428571 5.719357218934256L 8.228571428571428 9.224664238712563L 8.685714285714285 10.648428427568938L 9.142857142857142 12.494909821545015L 9.6 14.014498798514587L 10.057142857142857 15.453556342616437L 10.514285714285714 14.80528886616488L 10.971428571428572 16.649595797716813L 11.428571428571429 18.870772267414896L 11.885714285714286 19.241014451690653L 12.342857142857142 19.85977775517095L 12.799999999999999 20.632622493428915L 13.257142857142856 22.320940089784507L 13.714285714285714 23.107024331725842L 14.17142857142857 23.901500862785664L 14.628571428571428 24.197188071502108L 15.085714285714285 24.975939617134046L 15.542857142857143 25.465751942148966L 16 24.777386943258122L 16.457142857142856 20.754179867683163L 16.914285714285715 21.142937924565825L 17.37142857142857 16.295089436850375L 17.82857142857143 15.153215113184046L 18.285714285714285 18.552926986984144L 18.742857142857144 20.93743073053083L 19.2 23.5961684102617L 19.657142857142855 25.28149144217671L 20.114285714285714 25.535401728572122L 20.57142857142857 26.767236155698402L 21.02857142857143 27.239069604979687L 21.485714285714284 27.31962611964912L 21.942857142857143 27.74438132728709L 22.4 27.803680799392918L 22.857142857142858 25.84606331541599L 23.314285714285713 23.78448565292744L 23.771428571428572 26.11149478628766L 24.228571428571428 27.847377103941795L 24.685714285714283 28.82875360416507L 25.142857142857142 29.38245062789156L 25.599999999999998 29.798398318971L 26.057142857142857 30.089407860751407L 26.514285714285712 30.41501177694683L 26.97142857142857 30.452967139908544L 27.428571428571427 30.5338155317643L 27.885714285714286 29.289415013594024L 28.34285714285714 -91.90882362157848L 28.8 -49.16045061477098L 29.257142857142856 -8.187279106213879L 29.71428571428571 3.2075796881640457L 30.17142857142857 6.2154175314756515L 30.628571428571426 14.376782335618302L 31.085714285714285 18.820709789917952L 31.54285714285714 21.07102208467582L 32 22.59319492111003L 32.457142857142856 24.230839931717835L 32.91428571428571 25.61109610642768L 33.371428571428574 26.329049167072576L 33.82857142857143 26.944975190310803L 34.285714285714285 27.638532355554915L 34.74285714285714 27.325230624764984L 35.199999999999996 27.71689956823448L 35.65714285714286 27.587359599267018L 36.114285714285714 28.0046334640428L 36.57142857142857 28.32470193818027L 37.028571428571425 26.253690648536654L 37.48571428571429 26.241286024714814L 37.94285714285714 28.0438119036547L 38.4 28.191502169363552L 38.857142857142854 29.136125400061452L 39.31428571428571 29.844611256380762L 39.77142857142857 30.236090891352926L 40.22857142857143 29.517170418000617L 40.68571428571428 29.764952418455117L 41.14285714285714 30.30461892603863L 41.6 28.750334987409396L 42.05714285714286 27.87995171223998L 42.51428571428571 28.042739928667178L 42.97142857142857 29.14190352600162L 43.42857142857143 29.80612409271068L 43.885714285714286 29.29976238132999L 44.34285714285714 28.8856079919482L 44.8 30.05552598927326L 45.25714285714285 30.709803702323054L 45.714285714285715 31.260255071733706L 46.17142857142857 31.49987508710677L 46.628571428571426 31.805935672520388L 47.08571428571428 32.09538845873293L 47.542857142857144 32.243457602173464L 48 32.368444161584414L 48.457142857142856 32.48629805946649L 48.91428571428571 32.47343913415051L 49.37142857142857 32.491003218851105L 49.82857142857143 32.63414287467967L 50.285714285714285 32.473617021636144L 50.74285714285714 16.20997483499466L 51.199999999999996 -14.46406490496544L 51.65714285714286 -17.709697795349086L 52.114285714285714 -2.9429145593377513L 52.57142857142857 4.769443359796568L 53.028571428571425 10.600573841128842L 53.48571428571429 18.13777759417304L 53.94285714285714 21.941106868195504L 54.4 24.416084241346105L 54.857142857142854 26.194627577450312L 55.31428571428571 26.92477922788595L 55.77142857142857 28.185754019661218L 56.22857142857143 28.601936630374407L 56.68571428571428 29.43880250188567L 57.14285714285714 30.165669258937932L 57.6 30.507025858031135L 58.05714285714286 30.626718602567195L 58.51428571428571 30.647787161891443L 58.97142857142857 30.670940973540343L 59.42857142857142 30.86907696037616L 59.885714285714286 31.31701314249562L 60.34285714285714 31.47998347151977L 60.8 31.52538056360935L 61.25714285714285 31.65457632035315L 61.714285714285715 31.127471094509158L 62.17142857142857 31.08048374403421L 62.628571428571426 29.55983026394245L 63.08571428571428 25.07692370076026L 63.54285714285714 25.776963296798723L 64 22.657268600475785L 64.45714285714286 22.956625203468636L 64.91428571428571 25.774896282814904L 65.37142857142857 28.539079897445927L 65.82857142857142 29.623758983294646L 66.28571428571428 30.629350427192282L 66.74285714285715 31.165248682781726L 67.2 31.64110890037785L 67.65714285714286 31.622349107347482L 68.11428571428571 31.934011376439557L 68.57142857142857 31.95420183948438L 69.02857142857142 32.08283940763004L 69.48571428571428 32.13187251490537L 69.94285714285714 32.40102185219442L 70.39999999999999 32.574108482041446L 70.85714285714286 32.75506403845867L 71.31428571428572 32.77818525223449L 71.77142857142857 32.78945106572204L 72.22857142857143 32.77486323269399L 72.68571428571428 32.85235527875985L 73.14285714285714 32.80120828347225L 73.6 32.1993855380689L 74.05714285714285 30.2866169498741L 74.5142857142857 26.4435734854483L 74.97142857142858 14.316834707070363L 75.42857142857143 -1.7482251725962499L 75.88571428571429 -4.243573402122166L 76.34285714285714 4.992526093688625L 76.8 11.427850336302576L 77.25714285714285 17.49017343179017L 77.71428571428571 23.72421095833579L 78.17142857142856 25.331432337989106L 78.62857142857142 26.941979139609515L 79.08571428571429 28.182469749102818L 79.54285714285714 29.201811460351028L 80 29.7461960232892L 80.45714285714286 30.3862306413005L 80.91428571428571 30.857176599802976L 81.37142857142857 31.315060625830466L 81.82857142857142 31.64598655037507L 82.28571428571428 31.93695372315347L 82.74285714285715 32.072887381956306L 83.2 32.15171031894549L 83.65714285714286 32.176325248065226L 84.11428571428571 32.161157557874404L 84.57142857142857 32.25739868737532L 85.02857142857142 32.405229352839044L 85.48571428571428 32.59998474571913L 85.94285714285714 32.508894745115285L 86.39999999999999 32.244175352484824L 86.85714285714286 32.539544866404405L 87.31428571428572 32.77181345456322L 87.77142857142857 32.856493690566325L 88.22857142857143 32.56487064482029L 88.68571428571428 31.26024657025079L 89.14285714285714 28.198935632645483L 89.6 22.24987576453697L 90.05714285714285 24.024581661897518L 90.5142857142857 24.445523323333404L 90.97142857142858 17.03897279679917L 91.42857142857143 17.777227538684542L 91.88571428571429 14.80373773708147L 92.34285714285714 21.691446051921773L 92.8 25.178218578020758L 93.25714285714285 27.926453612224858L 93.71428571428571 28.351766818573388L 94.17142857142856 28.719149287287184L 94.62857142857142 30.25787536679397L 95.08571428571429 31.153721065795853L 95.54285714285714 31.63185089352736L 96 32.03591568126889L 96.45714285714286 32.306364796790255L 96.91428571428571 32.57432911669142L 97.37142857142857 32.69607540592278L 97.82857142857142 32.72350067279909L 98.28571428571428 32.48130942790738L 98.74285714285713 32.46039876535059L 99.2 32.68872769870092L 99.65714285714286 32.81030166903233L 100.11428571428571 32.87697847408921L 100.57142857142857 32.11560163024758L 101.02857142857142 32.37801653142632L 101.48571428571428 32.756049205783334L 101.94285714285714 32.903738142545954L 102.39999999999999 33.00016396037966L 102.85714285714285 32.90523955559487L 103.31428571428572 33.25061860279085L 103.77142857142857 33.3508993172005L 104.22857142857143 33.28418683415038L 104.68571428571428 33.12254511518415L 105.14285714285714 33.22419367859469L 105.6 33.27590859598524L 106.05714285714285 33.22156867482896L 106.5142857142857 22.082185056120057L 106.97142857142858 -62.82154878690797L 107.42857142857143 -36.914750547175316L 107.88571428571429 -36.477789648804546L 108.34285714285714 -22.40780428192153L 108.8 3.3277421813701054L 109.25714285714285 13.674944853110823L 109.71428571428571 19.255100401691013L 110.17142857142856 23.202707100350363L 110.62857142857142 25.040376520719057L 111.08571428571429 27.054099055244958L 111.54285714285714 28.075470781292612L 112 28.709662561851683L 112.45714285714286 29.167382655492638L 112.91428571428571 29.79715402310297L 113.37142857142857 30.157549625184828L 113.82857142857142 30.73880781524795L 114.28571428571428 30.967274338596443L 114.74285714285713 31.301871195914952L 115.2 31.52350538393704L 115.65714285714286 31.519402208126518L 116.11428571428571 31.669990786006537L 116.57142857142857 31.485351401547405L 117.02857142857142 31.58665432586191L 117.48571428571428 30.407869792864396L 117.94285714285714 30.287307220448874L 118.39999999999999 30.6977207701191L 118.85714285714285 31.218670288159974L 119.31428571428572 31.822633170912642L 119.77142857142857 32.13962716263035L 120.22857142857143 32.401273777476575L 120.68571428571428 32.09616880918292L 121.14285714285714 32.34431840069965L 121.6 32.466162421441155L 122.05714285714285 31.998548496602385L 122.5142857142857 32.223832819755586L 122.97142857142856 31.63418391949839L 123.42857142857143 28.294254395271064L 123.88571428571429 18.239392027367444L 124.34285714285714 -22.889104857999044L 124.8 -39.06654549664728L 125.25714285714285 2.8464364993226354L 125.71428571428571 13.32262549552123L 126.17142857142856 19.897710574571047L 126.62857142857142 23.974343638018347L 127.08571428571427 26.064687319819253L 127.54285714285714 27.662147491324397L 128 28.630343252043172L 128.45714285714286 29.65606100310424L 128.9142857142857 30.21925421600885L 129.37142857142857 30.55479079828829L 129.82857142857142 30.52568589181854L 130.28571428571428 30.70187116839244L 130.74285714285713 31.220051729077838L 131.2 31.526346026291538L 131.65714285714284 31.592384514347003L 132.1142857142857 31.710074866955363L 132.57142857142856 31.866696214127632L 133.0285714285714 31.910612435384365L 133.4857142857143 32.07974258527078L 133.94285714285715 31.942852074174148L 134.4 32.152199917199226L 134.85714285714286 32.283349918506914L 135.31428571428572 32.52830883496405L 135.77142857142857 32.549945268759004L 136.22857142857143 32.4852787399133L 136.68571428571428 32.21492238328244L 137.14285714285714 32.30945063598665L 137.6 32.31488178809742L 138.05714285714285 30.04305256172526L 138.5142857142857 26.34253566537375L 138.97142857142856 25.696852442874064L 139.42857142857142 27.69584217698845L 139.88571428571427 29.896418137095896L 140.34285714285713 30.411470350523743L 140.79999999999998 31.520432992761425L 141.25714285714287 32.133911105966746L 141.71428571428572 32.448739745177676L 142.17142857142858 32.56132421173386L 142.62857142857143 32.75429954605462L 143.0857142857143 32.970572100631585L 143.54285714285714 33.00344515505431L 144 33.0630839398583L 144.45714285714286 33.14385130446155L 144.9142857142857 33.113597851841334L 145.37142857142857 32.79648409478254L 145.82857142857142 32.38269196083829L 146.28571428571428 32.26471641937214L 146.74285714285713 32.5559987198492L 147.2 32.506067570897116L 147.65714285714284 32.196206938692114L 148.1142857142857 32.541081256117145L 148.57142857142856 32.955634549675324L 149.0285714285714 32.917797386612605L 149.4857142857143 33.22735835440744L 149.94285714285715 33.15225702607793L 150.4 32.71334537101352L 150.85714285714286 31.834379310562515L 151.31428571428572 27.102867784061797L 151.77142857142857 24.367413682904992L 152.22857142857143 24.79827778548919L 152.68571428571428 18.94087360811916L 153.14285714285714 -13.15251765913429L 153.6 -7.760452158266645L 154.05714285714285 15.13972972123782L 154.5142857142857 22.51119445530418L 154.97142857142856 26.198373113782488L 155.42857142857142 29.092564384991736L 155.88571428571427 30.251893509727807L 156.34285714285713 30.706430699968884L 156.79999999999998 31.18837407119633L 157.25714285714284 31.54259856127007L 157.71428571428572 31.8592302653453L 158.17142857142858 32.033864479298046L 158.62857142857143 32.23718742165667L 159.0857142857143 32.31399127222568L 159.54285714285714 32.33452840615742" stroke-width="2px" stroke="#63e72c" fill="transparent"/>
			<text x="80%" y="25.867622724925937" class="text">0.013</text>
		</svg>