<svg width="310" height="135" xmlns="http://www.w3.org/2000/svg" style="outline: 1px solid #ccc" >
			<style>
				.text { font: italic 10px sans-serif; fill: #756f6f; }
			</style>
			<path d="M 0 0 L 0 -9038L 2 -109L 3 -70L 5 -44L 7 -21L 8 -7L 10 6L 11 20L 13 26L 15 34L 16 41L 18 43L 20 48L 21 49L 23 60L 24 67L 26 68L 28 70L 29 73L 31 77L 33 79L 34 73L 36 78L 38 73L 39 79L 41 84L 42 86L 44 85L 46 88L 47 87L 49 89L 51 93L 52 90L 54 79L 55 86L 57 81L 59 87L 60 85L 62 92L 64 96L 65 98L 67 99L 69 101L 70 101L 72 95L 73 97L 75 100L 77 101L 78 101L 80 103L 82 103L 83 103L 85 102L 86 102L 88 100L 90 104L 91 105L 93 105L 95 104L 96 105L 98 104L 100 105L 101 103L 103 105L 104 107L 106 108L 108 108L 109 99L 111 102L 113 102L 114 104L 116 107L 117 107L 119 106L 121 105L 122 103L 124 100L 126 100L 127 104L 129 106L 131 108L 132 109L 134 109L 135 109L 137 110L 139 111L 140 111L 142 111L 144 111L 145 107L 147 108L 148 107L 150 104L 152 101L 153 81L 155 91L 157 100L 158 102L 160 105L 162 106L 163 107L 165 107L 166 102L 168 104L 170 107L 171 107L 173 107L 175 109L 176 110L 178 110L 179 108L 181 101L 183 103L 184 105L 186 108L 188 109L 189 109L 191 110L 193 110L 194 111L 196 112L 197 112L 199 112L 201 112L 202 113L 204 113L 206 113L 207 114L 209 114L 210 113L 212 113L 214 113L 215 113L 217 109L 219 -167L 220 -6L 222 51L 224 76L 225 86L 227 91L 228 93L 230 97L 232 101L 233 103L 235 103L 237 104L 238 105L 240 107L 241 108L 243 108L 245 108L 246 109L 248 108L 250 109L 251 108L 253 108L 255 109L 256 109L 258 107L 259 109L 261 108L 263 109L 264 109L 266 108L 268 109L 269 110L 271 110L 272 110L 274 110L 276 108L 277 107L 279 107L 281 107L 282 106L 284 105L 286 107L 287 105L 289 106L 290 109L 292 110L 294 110L 295 111L 297 112L 299 113L 300 113L 302 114L 303 114L 305 114L 307 114L 308 114" stroke-width="1px" stroke="#63e72c" fill="transparent"/>
			<text x="3%" y="91.48021754244218" class="text">0.014</text>
			<line x1="0" y1="114.3502719280527" x2="100%" y2="114.3502719280527" stroke="rgba(117, 111, 111, 0.5)" />
		</svg>