<svg width="310" height="135" xmlns="http://www.w3.org/2000/svg" style="outline: 1px solid #ccc" >
			<style>
				.text { font: italic 10px sans-serif; fill: #756f6f; }
			</style>
			<path d="M 0 0 L 0 -3071L 1 -584L 1 -412L 2 -303L 2 -217L 3 -174L 3 -141L 4 -127L 4 -91L 5 -76L 5 -50L 6 -30L 6 -19L 7 -17L 7 -13L 8 -7L 8 7L 9 14L 9 20L 10 23L 10 28L 11 32L 11 37L 12 42L 12 40L 13 40L 13 34L 14 42L 14 42L 15 36L 16 47L 16 53L 17 59L 17 63L 18 66L 18 67L 19 68L 19 69L 20 72L 20 73L 21 71L 21 72L 22 75L 22 74L 23 71L 23 63L 24 62L 24 60L 25 35L 25 31L 26 33L 26 44L 27 54L 27 64L 28 66L 28 71L 29 75L 29 78L 30 79L 30 80L 31 80L 32 79L 32 81L 33 82L 33 83L 34 84L 34 85L 35 85L 35 80L 36 21L 36 -93L 37 3L 37 36L 38 52L 38 61L 39 65L 39 68L 40 67L 40 72L 41 74L 41 76L 42 78L 42 80L 43 81L 43 82L 44 83L 44 84L 45 84L 45 85L 46 86L 47 86L 47 86L 48 86L 48 85L 49 74L 49 -19L 50 -174L 50 -109L 51 -46L 51 -1L 52 20L 52 24L 53 36L 53 42L 54 57L 54 61L 55 65L 55 70L 56 73L 56 75L 57 76L 57 78L 58 79L 58 81L 59 81L 59 82L 60 82L 60 82L 61 83L 61 84L 62 84L 63 84L 63 83L 64 82L 64 75L 65 -4L 65 -46L 66 -15L 66 5L 67 22L 67 43L 68 55L 68 61L 69 66L 69 70L 70 74L 70 77L 71 79L 71 80L 72 81L 72 82L 73 83L 73 84L 74 84L 74 85L 75 85L 75 84L 76 82L 76 79L 77 79L 78 74L 78 68L 79 71L 79 74L 80 75L 80 78L 81 75L 81 70L 82 29L 82 -66L 83 -78L 83 25L 84 34L 84 51L 85 60L 85 66L 86 69L 86 73L 87 74L 87 76L 88 77L 88 79L 89 81L 89 82L 90 83L 90 84L 91 85L 91 85L 92 85L 92 86L 93 86L 94 87L 94 87L 95 86L 95 83L 96 80L 96 76L 97 63L 97 35L 98 22L 98 34L 99 35L 99 53L 100 45L 100 64L 101 72L 101 75L 102 79L 102 80L 103 81L 103 83L 104 84L 104 85L 105 86L 105 86L 106 87L 106 87L 107 87L 107 88L 108 88L 109 88L 109 88L 110 86L 110 81L 111 70L 111 57L 112 -62L 112 -91L 113 -65L 113 -44L 114 -18L 114 26L 115 46L 115 54L 116 63L 116 69L 117 73L 117 76L 118 78L 118 80L 119 79L 119 79L 120 81L 120 82L 121 82L 121 81L 122 83L 122 84L 123 85L 123 85L 124 86L 125 86L 125 87L 126 87L 126 87L 127 87L 127 86L 128 84L 128 81L 129 72L 129 62L 130 61L 130 65L 131 62L 131 35L 132 38L 132 43L 133 51L 133 56L 134 60L 134 57L 135 55L 135 59L 136 69L 136 74L 137 78L 137 79L 138 80L 138 81L 139 82L 140 83L 140 85L 141 86L 141 85L 142 85L 142 86L 143 86L 143 86L 144 86L 144 87L 145 88L 145 88L 146 88L 146 88L 147 88L 147 88L 148 88L 148 87L 149 83L 149 77L 150 40L 150 -31L 151 -74L 151 -69L 152 -4L 152 25L 153 44L 153 51L 154 59L 154 66L 155 70L 156 75L 156 78L 157 80L 157 82L 158 83L 158 84L 159 84L 159 85L 160 85L 160 86L 161 86L 161 87L 162 87L 162 87L 163 87L 163 86L 164 86L 164 86L 165 86L 165 84L 166 84L 166 75L 167 60L 167 50L 168 51L 168 52L 169 58L 169 60L 170 63L 171 66L 171 72L 172 78L 172 77L 173 82L 173 83L 174 83L 174 84L 175 85L 175 86L 176 87L 176 87L 177 88L 177 88L 178 88L 178 88L 179 88L 179 88L 180 88L 180 88L 181 89L 181 89L 182 89L 182 88L 183 88L 183 69L 184 -654L 184 -1485L 185 -333L 185 -169L 186 -88L 187 -35L 187 -10L 188 14L 188 23L 189 41L 189 49L 190 56L 190 57L 191 59L 191 66L 192 68L 192 72L 193 74L 193 75L 194 76L 194 78L 195 79L 195 80L 196 81L 196 81L 197 81L 197 81L 198 80L 198 80L 199 74L 199 74L 200 74L 200 75L 201 76L 202 77L 202 77L 203 79L 203 78L 204 79L 204 77L 205 75L 205 74L 206 75L 206 76L 207 73L 207 74L 208 77L 208 81L 209 82L 209 84L 210 85L 210 85L 211 86L 211 86L 212 87L 212 87L 213 88L 213 87L 214 87L 214 88L 215 88L 215 88L 216 88L 216 89L 217 89L 218 89L 218 89L 219 89L 219 89L 220 73L 220 -104L 221 -232L 221 -112L 222 -45L 222 -28L 223 9L 223 17L 224 21L 224 42L 225 51L 225 56L 226 65L 226 67L 227 71L 227 73L 228 75L 228 78L 229 78L 229 79L 230 80L 230 81L 231 82L 231 82L 232 81L 233 81L 233 79L 234 82L 234 82L 235 83L 235 84L 236 85L 236 84L 237 85L 237 86L 238 86L 238 86L 239 86L 239 87L 240 87L 240 87L 241 86L 241 86L 242 86L 242 85L 243 75L 243 27L 244 -40L 244 -80L 245 -47L 245 -11L 246 20L 246 36L 247 51L 247 62L 248 67L 249 71L 249 75L 250 76L 250 77L 251 79L 251 81L 252 82L 252 82L 253 83L 253 84L 254 85L 254 85L 255 86L 255 86L 256 86L 256 86L 257 86L 257 86L 258 86L 258 86L 259 86L 259 83L 260 76L 260 60L 261 32L 261 38L 262 27L 262 35L 263 53L 264 46L 264 54L 265 59L 265 66L 266 70L 266 75L 267 78L 267 80L 268 82L 268 83L 269 84L 269 84L 270 85L 270 86L 271 86L 271 87L 272 87L 272 87L 273 87L 273 88L 274 88L 274 88L 275 88L 275 88L 276 87L 276 86L 277 82L 277 73L 278 66L 278 47L 279 28L 280 24L 280 32L 281 44L 281 54L 282 63L 282 67L 283 71L 283 77L 284 79L 284 81L 285 82L 285 84L 286 85L 286 86L 287 86L 287 87L 288 87L 288 87L 289 87L 289 88L 290 88L 290 88L 291 87L 291 87L 292 87L 292 88L 293 88L 293 88L 294 88L 295 88L 295 86L 296 84L 296 79L 297 69L 297 -84L 298 -1036L 298 -419L 299 -314L 299 -136L 300 -77L 300 -13L 301 7L 301 27L 302 29L 302 43L 303 54L 303 61L 304 64L 304 66L 305 69L 305 72L 306 73L 306 76L 307 76L 307 78L 308 80L 308 81L 309 80L 309 80" stroke-width="1px" stroke="#63e72c" fill="transparent"/>
			<text x="3%" y="64.33277511650392" class="text">0.011</text>
			<line x1="0" y1="88.9911411135721" x2="100%" y2="88.9911411135721" stroke="rgba(117, 111, 111, 0.5)" />
		</svg>