<svg width="280" height="120" xmlns="http://www.w3.org/2000/svg" style="outline: 1px solid #ccc" >
			<style>
				.text { font: italic 10px sans-serif; fill: #756f6f; }
			</style>
			<path d="M 0 0 L 0 -10058L 1 -42L 3 5L 4 24L 6 37L 7 46L 8 54L 10 58L 11 64L 13 69L 14 71L 15 73L 17 75L 18 78L 20 80L 21 81L 22 82L 24 80L 25 82L 27 83L 28 84L 29 85L 31 86L 32 87L 34 89L 35 90L 36 91L 38 87L 39 64L 41 64L 42 74L 43 82L 45 85L 46 88L 48 90L 49 90L 50 91L 52 92L 53 92L 55 93L 56 91L 57 92L 59 93L 60 93L 62 94L 63 95L 64 95L 66 95L 67 95L 69 95L 70 95L 71 96L 73 96L 74 96L 76 97L 77 97L 78 97L 80 96L 81 96L 83 95L 84 79L 85 71L 87 85L 88 90L 90 92L 91 95L 92 96L 94 96L 95 97L 97 97L 98 97L 99 96L 101 96L 102 97L 104 98L 105 97L 106 95L 108 96L 109 97L 111 97L 112 97L 113 98L 115 98L 116 98L 118 98L 119 98L 120 98L 122 99L 123 100L 125 100L 126 99L 127 98L 129 78L 130 70L 132 80L 133 82L 134 87L 136 90L 137 94L 139 95L 140 96L 141 97L 143 98L 144 98L 146 99L 147 99L 148 98L 150 99L 151 99L 153 99L 154 98L 155 96L 157 86L 158 87L 160 88L 161 89L 162 90L 164 94L 165 95L 167 96L 168 97L 169 98L 171 98L 172 98L 174 98L 175 98L 176 98L 178 99L 179 100L 181 100L 182 99L 183 97L 185 98L 186 99L 188 99L 189 99L 190 99L 192 99L 193 97L 195 97L 196 96L 197 95L 199 91L 200 92L 202 93L 203 94L 204 94L 206 96L 207 97L 209 98L 210 98L 211 99L 213 99L 214 99L 216 100L 217 100L 218 100L 220 100L 221 100L 223 100L 224 100L 225 97L 227 87L 228 92L 230 92L 231 91L 232 95L 234 97L 235 98L 237 98L 238 99L 239 100L 241 100L 242 100L 244 100L 245 100L 246 101L 248 100L 249 100L 251 97L 252 89L 253 68L 255 84L 256 90L 258 93L 259 94L 260 95L 262 90L 263 92L 265 95L 266 93L 267 97L 269 99L 270 99L 272 99L 273 100L 274 99L 276 100L 277 100L 279 100" stroke-width="1px" stroke="#63e72c" fill="transparent"/>
			<text x="3%" y="79.89367507304074" class="text">0.013</text>
			<line x1="0" y1="100.65433897211557" x2="100%" y2="100.65433897211557" stroke="rgba(117, 111, 111, 0.5)" />
		</svg>
