<svg width="160" height="50" xmlns="http://www.w3.org/2000/svg" style="outline: 1px solid #ccc" >
			<style>
				.text { font: italic 10px sans-serif; fill: #756f6f; }
			</style>
			<path d="M 0 0 L 0 -294L 1 -95L 2 -58L 3 -38L 4 -30L 5 -20L 6 -13L 7 -9L 9 -3L 10 -1L 11 2L 12 4L 13 6L 14 8L 15 9L 16 10L 17 11L 18 11L 19 12L 20 14L 21 14L 22 13L 23 15L 25 16L 26 16L 27 16L 28 17L 29 15L 30 14L 31 16L 32 18L 33 17L 34 19L 35 18L 36 19L 37 17L 38 19L 39 19L 41 21L 42 21L 43 22L 44 20L 45 21L 46 22L 47 23L 48 23L 49 22L 50 21L 51 19L 52 19L 53 19L 54 19L 55 21L 57 23L 58 24L 59 24L 60 23L 61 22L 62 23L 63 24L 64 23L 65 23L 66 21L 67 23L 68 24L 69 24L 70 23L 71 23L 73 25L 74 25L 75 26L 76 24L 77 24L 78 16L 79 15L 80 20L 81 21L 82 21L 83 22L 84 24L 85 26L 86 26L 87 27L 89 27L 90 28L 91 27L 92 27L 93 24L 94 22L 95 12L 96 15L 97 21L 98 24L 99 25L 100 26L 101 27L 102 27L 103 26L 105 26L 106 25L 107 26L 108 22L 109 21L 110 22L 111 24L 112 26L 113 26L 114 27L 115 27L 116 26L 117 25L 118 23L 119 26L 121 27L 122 27L 123 27L 124 26L 125 24L 126 24L 127 26L 128 27L 129 27L 130 27L 131 25L 132 24L 133 25L 134 26L 135 27L 137 28L 138 28L 139 28L 140 24L 141 22L 142 19L 143 23L 144 26L 145 27L 146 28L 147 27L 148 27L 149 27L 150 27L 151 26L 153 26L 154 19L 155 21L 156 23L 157 26L 158 27L 159 28" stroke-width="2px" stroke="#63e72c" fill="transparent"/>
			<text x="3%" y="22.522379480273976" class="text">0.018</text>
			<line x1="0" y1="28.15297435034247" x2="100%" y2="28.15297435034247" stroke="rgba(117, 111, 111, 0.5)" />
		</svg>