<svg width="310" height="135" xmlns="http://www.w3.org/2000/svg" style="outline: 1px solid #ccc" >
			<style>
				.text { font: italic 10px sans-serif; fill: #756f6f; }
			</style>
			<path d="M 0 0 L 0 -5670L 1 -637L 2 -390L 3 -260L 4 -205L 4 -153L 5 -117L 6 -80L 7 -52L 8 -42L 9 -28L 10 -11L 11 -2L 12 11L 12 21L 13 27L 14 31L 15 38L 16 45L 17 48L 18 51L 19 52L 19 53L 20 49L 21 50L 22 54L 23 60L 24 63L 25 64L 26 66L 27 67L 27 68L 28 60L 29 31L 30 41L 31 54L 32 62L 33 66L 34 69L 35 71L 35 72L 36 72L 37 73L 38 74L 39 74L 40 75L 41 75L 42 75L 43 76L 43 76L 44 76L 45 77L 46 76L 47 64L 48 -15L 49 -11L 50 35L 50 55L 51 61L 52 63L 53 65L 54 69L 55 71L 56 72L 57 74L 58 75L 58 75L 59 76L 60 76L 61 77L 62 77L 63 77L 64 76L 65 76L 66 75L 66 75L 67 76L 68 77L 69 77L 70 77L 71 78L 72 78L 73 78L 74 78L 74 78L 75 79L 76 79L 77 78L 78 79L 79 79L 80 78L 81 78L 81 78L 82 78L 83 79L 84 74L 85 68L 86 47L 87 32L 88 38L 89 37L 89 61L 90 66L 91 71L 92 74L 93 75L 94 76L 95 77L 96 77L 97 77L 97 78L 98 78L 99 78L 100 78L 101 78L 102 78L 103 77L 104 76L 105 77L 105 78L 106 78L 107 79L 108 79L 109 79L 110 78L 111 79L 112 79L 112 79L 113 79L 114 79L 115 79L 116 80L 117 79L 118 80L 119 80L 120 80L 120 80L 121 79L 122 80L 123 80L 124 80L 125 80L 126 80L 127 80L 128 80L 128 80L 129 80L 130 80L 131 80L 132 80L 133 81L 134 81L 135 79L 136 30L 136 -144L 137 -15L 138 26L 139 42L 140 52L 141 62L 142 68L 143 71L 143 73L 144 74L 145 75L 146 76L 147 76L 148 76L 149 76L 150 76L 151 76L 151 77L 152 78L 153 78L 154 78L 155 78L 156 78L 157 79L 158 79L 159 79L 159 79L 160 78L 161 78L 162 78L 163 76L 164 75L 165 69L 166 63L 167 66L 167 70L 168 74L 169 73L 170 75L 171 77L 172 78L 173 79L 174 79L 174 79L 175 79L 176 79L 177 79L 178 79L 179 79L 180 79L 181 80L 182 80L 182 80L 183 80L 184 80L 185 80L 186 80L 187 80L 188 80L 189 80L 190 80L 190 80L 191 80L 192 80L 193 80L 194 80L 195 80L 196 80L 197 80L 198 80L 198 80L 199 80L 200 79L 201 70L 202 6L 203 -134L 204 -13L 205 21L 205 29L 206 52L 207 61L 208 67L 209 71L 210 73L 211 74L 212 75L 213 76L 213 76L 214 77L 215 77L 216 77L 217 77L 218 78L 219 78L 220 78L 221 78L 221 79L 222 79L 223 79L 224 79L 225 79L 226 78L 227 77L 228 78L 229 79L 229 79L 230 79L 231 79L 232 79L 233 80L 234 80L 235 80L 236 80L 236 80L 237 80L 238 80L 239 80L 240 75L 241 62L 242 50L 243 42L 244 54L 244 67L 245 70L 246 73L 247 74L 248 76L 249 77L 250 78L 251 78L 252 78L 252 78L 253 78L 254 78L 255 79L 256 79L 257 79L 258 79L 259 80L 260 80L 260 80L 261 80L 262 80L 263 80L 264 80L 265 80L 266 80L 267 80L 267 80L 268 80L 269 80L 270 80L 271 79L 272 80L 273 80L 274 80L 275 80L 275 80L 276 80L 277 81L 278 81L 279 81L 280 79L 281 75L 282 55L 283 9L 283 -9L 284 -7L 285 3L 286 48L 287 58L 288 65L 289 70L 290 72L 291 74L 291 76L 292 76L 293 77L 294 77L 295 78L 296 78L 297 78L 298 78L 298 79L 299 79L 300 79L 301 79L 302 79L 303 79L 304 79L 305 79L 306 79L 306 80L 307 80L 308 80L 309 80" stroke-width="1px" stroke="#63e72c" fill="transparent"/>
			<text x="3%" y="63.6068726660297" class="text">0.011</text>
			<line x1="0" y1="80.57225654886346" x2="100%" y2="80.57225654886346" stroke="rgba(117, 111, 111, 0.5)" />
		</svg>