<svg width="310" height="135" xmlns="http://www.w3.org/2000/svg" style="outline: 1px solid #ccc" >
			<style>
				.text { font: italic 10px sans-serif; fill: #756f6f; }
			</style>
			<path d="M 0 0 L 0 -2386L 1 -712L 1 -570L 2 -423L 3 -368L 3 -333L 4 -296L 5 -266L 6 -241L 6 -218L 7 -201L 8 -193L 8 -173L 9 -166L 10 -153L 10 -140L 11 -134L 12 -129L 12 -115L 13 -102L 14 -92L 14 -93L 15 -79L 16 -71L 17 -61L 17 -58L 18 -63L 19 -47L 19 -38L 20 -31L 21 -27L 21 -23L 22 -17L 23 -12L 23 -9L 24 -11L 25 -9L 25 -1L 26 3L 27 4L 28 3L 28 5L 29 7L 30 13L 30 11L 31 14L 32 3L 32 7L 33 13L 34 20L 34 9L 35 11L 36 24L 37 29L 37 30L 38 28L 39 24L 39 28L 40 35L 41 36L 41 35L 42 31L 43 33L 43 35L 44 27L 45 24L 45 26L 46 25L 47 30L 48 36L 48 41L 49 45L 50 43L 50 42L 51 45L 52 44L 52 47L 53 42L 54 45L 54 42L 55 45L 56 41L 56 45L 57 46L 58 45L 59 43L 59 45L 60 45L 61 45L 61 50L 62 51L 63 47L 63 43L 64 44L 65 47L 65 49L 66 51L 67 54L 68 56L 68 57L 69 58L 70 61L 70 61L 71 61L 72 61L 72 55L 73 56L 74 51L 74 50L 75 47L 76 46L 76 50L 77 53L 78 57L 79 58L 79 61L 80 62L 81 61L 81 63L 82 63L 83 63L 83 65L 84 63L 85 61L 85 63L 86 65L 87 63L 87 59L 88 64L 89 68L 90 69L 90 68L 91 72L 92 69L 92 68L 93 68L 94 61L 94 52L 95 51L 96 56L 96 59L 97 60L 98 59L 99 63L 99 66L 100 68L 101 70L 101 72L 102 74L 103 75L 103 75L 104 76L 105 76L 105 75L 106 73L 107 74L 107 69L 108 62L 109 63L 110 67L 110 68L 111 56L 112 66L 112 70L 113 71L 114 73L 114 76L 115 76L 116 77L 116 75L 117 74L 118 70L 118 72L 119 68L 120 68L 121 67L 121 70L 122 62L 123 69L 123 70L 124 75L 125 75L 125 77L 126 74L 127 76L 127 76L 128 75L 129 77L 130 71L 130 71L 131 73L 132 76L 132 75L 133 79L 134 80L 134 81L 135 79L 136 77L 136 75L 137 79L 138 80L 138 79L 139 79L 140 82L 141 81L 141 81L 142 79L 143 76L 143 75L 144 74L 145 71L 145 67L 146 57L 147 61L 147 71L 148 70L 149 76L 149 79L 150 82L 151 81L 152 81L 152 83L 153 84L 154 82L 154 84L 155 81L 156 81L 156 79L 157 76L 158 80L 158 80L 159 76L 160 43L 161 30L 161 46L 162 55L 163 64L 163 70L 164 72L 165 72L 165 74L 166 78L 167 80L 167 80L 168 83L 169 83L 169 84L 170 81L 171 83L 172 84L 172 85L 173 85L 174 84L 174 85L 175 86L 176 81L 176 76L 177 66L 178 67L 178 66L 179 72L 180 72L 180 74L 181 74L 182 76L 183 78L 183 80L 184 80L 185 83L 185 84L 186 84L 187 85L 187 85L 188 79L 189 78L 189 76L 190 78L 191 80L 192 78L 192 77L 193 76L 194 79L 194 79L 195 78L 196 80L 196 81L 197 84L 198 85L 198 82L 199 82L 200 79L 200 81L 201 82L 202 81L 203 83L 203 82L 204 84L 205 84L 205 85L 206 85L 207 86L 207 88L 208 89L 209 88L 209 89L 210 90L 211 88L 211 85L 212 73L 213 49L 214 41L 214 42L 215 54L 216 54L 216 67L 217 74L 218 78L 218 80L 219 81L 220 82L 220 86L 221 85L 222 87L 223 88L 223 90L 224 90L 225 90L 225 90L 226 91L 227 89L 227 86L 228 86L 229 76L 229 65L 230 55L 231 48L 231 44L 232 41L 233 47L 234 60L 234 70L 235 75L 236 79L 236 79L 237 80L 238 83L 238 85L 239 87L 240 89L 240 90L 241 90L 242 90L 242 89L 243 89L 244 89L 245 89L 245 88L 246 86L 247 83L 247 81L 248 70L 249 69L 249 51L 250 47L 251 43L 251 53L 252 62L 253 71L 254 72L 254 75L 255 80L 256 81L 256 82L 257 84L 258 86L 258 87L 259 89L 260 89L 260 90L 261 89L 262 90L 262 90L 263 88L 264 89L 265 90L 265 85L 266 81L 267 74L 267 63L 268 65L 269 69L 269 67L 270 73L 271 70L 271 74L 272 79L 273 81L 273 83L 274 85L 275 87L 276 88L 276 89L 277 89L 278 90L 278 90L 279 88L 280 87L 280 88L 281 87L 282 86L 282 87L 283 89L 284 87L 285 87L 285 82L 286 77L 287 75L 287 64L 288 68L 289 64L 289 69L 290 75L 291 80L 291 81L 292 82L 293 82L 293 85L 294 87L 295 90L 296 91L 296 91L 297 91L 298 91L 298 91L 299 91L 300 92L 300 92L 301 90L 302 90L 302 91L 303 91L 304 90L 304 87L 305 85L 306 66L 307 60L 307 58L 308 66L 309 67L 309 74" stroke-width="1px" stroke="#63e72c" fill="transparent"/>
			<text x="3%" y="59.33412428546433" class="text">0.0130</text>
			<line x1="0" y1="91.81534298960847" x2="100%" y2="91.81534298960847" stroke="rgba(117, 111, 111, 0.5)" />
		</svg>